STARTFONT 2.3
FONT -FontForge-Source Code Pro-Book-R-Normal--20-200-72-72-M-120-ISO10646-1
SIZE 20 72 72  4
FONTBOUNDINGBOX 20 30 -4 -9
COMMENT "Generated by fontforge, http://fontforge.sourceforge.net"
COMMENT "Copyright 2010, 2012 Adobe Systems Incorporated (http://www.adobe.com/), with Reserved Font Name `Source'."
STARTPROPERTIES 41
FOUNDRY "FontForge"
FAMILY_NAME "Source Code Pro"
WEIGHT_NAME "Book"
SLANT "R"
SETWIDTH_NAME "Normal"
ADD_STYLE_NAME ""
PIXEL_SIZE 20
POINT_SIZE 200
RESOLUTION_X 72
RESOLUTION_Y 72
SPACING "M"
AVERAGE_WIDTH 120
CHARSET_REGISTRY "ISO10646"
CHARSET_ENCODING "1"
FONTNAME_REGISTRY ""
CHARSET_COLLECTIONS "ASCII ISOLatin1Encoding ISO8859-2 ISO8859-5 ISO8859-7 ISO8859-9 ISO8859-4 ISO10646-1"
BITS_PER_PIXEL 4
FONT_NAME "SourceCodePro-Regular"
FACE_NAME "Source Code Pro"
COPYRIGHT "Copyright 2010, 2012 Adobe Systems Incorporated (http://www.adobe.com/), with Reserved Font Name `Source'."
FONT_VERSION "2.030;PS 1.000;hotconv 16.6.51;makeotf.lib2.5.65220"
FONT_ASCENT 15
FONT_DESCENT 5
UNDERLINE_POSITION -2
UNDERLINE_THICKNESS 1
X_HEIGHT 9
CAP_HEIGHT 12
RAW_ASCENT 750
RAW_DESCENT 250
NORM_SPACE 12
RELATIVE_WEIGHT 40
RELATIVE_SETWIDTH 50
SUPERSCRIPT_X 0
SUPERSCRIPT_Y 7
SUPERSCRIPT_SIZE 12
SUBSCRIPT_X 0
SUBSCRIPT_Y 1
SUBSCRIPT_SIZE 12
FIGURE_WIDTH 12
AVG_LOWERCASE_WIDTH 120
AVG_UPPERCASE_WIDTH 120
ENDPROPERTIES
CHARS 1564
STARTCHAR space
ENCODING 32
SWIDTH 600 0
DWIDTH 12 0
BBX 1 1 0 0
BITMAP
00
ENDCHAR
STARTCHAR exclam
ENCODING 33
SWIDTH 600 0
DWIDTH 12 0
BBX 4 13 4 0
BITMAP
0CC0
0CC0
0BB0
0BB0
0AA0
0AA0
0990
0990
0000
0000
2DD2
6FF6
2DD2
ENDCHAR
STARTCHAR quotedbl
ENCODING 34
SWIDTH 600 0
DWIDTH 12 0
BBX 8 7 2 7
BITMAP
6FC00CF6
5FC00CF6
5FB00BF5
3FA00AF3
2F8008F2
0F7006F0
0E5005E0
ENDCHAR
STARTCHAR numbersign
ENCODING 35
SWIDTH 600 0
DWIDTH 12 0
BBX 10 13 1 0
BITMAP
0009700E20
000B501F10
000D302E00
000E658D52
0DFFCCDEC5
003D008800
005B00A700
007A33C730
4FFEEEFEE0
00B500F100
00D302E000
00F204C000
01F006B000
ENDCHAR
STARTCHAR dollar
ENCODING 36
SWIDTH 600 0
DWIDTH 12 0
BBX 10 17 1 -2
BITMAP
00007B0000
00007B0000
00007B0000
004BFFD910
04F8114C90
0AE0000000
09F4000000
01CFA50000
0006DFD600
000004BFA0
00000009F2
02000007F2
1EC4114EA0
039CFFC700
00007B0000
00007B0000
00007B0000
ENDCHAR
STARTCHAR percent
ENCODING 37
SWIDTH 600 0
DWIDTH 12 0
BBX 12 13 0 0
BITMAP
04DEB20001B2
2E519C000BC1
5D002F109C10
5D002F16D100
2E519B051000
04DEB2000000
000000000000
0001502BED50
001C60BA15F2
01C900F300C6
1CB000F300C6
2B1000BA15F2
0000002BED50
ENDCHAR
STARTCHAR ampersand
ENCODING 38
SWIDTH 600 0
DWIDTH 12 0
BBX 12 13 0 0
BITMAP
0005DEB10000
003F51C90000
007D008C0000
008E00C90000
005F4BD10000
000DFB100131
006FF50005F2
06F8BE200AC0
0EB01DD23F60
2F7002DECC00
1FA0002EF800
07F7119FCFC3
006CEEB305C4
ENDCHAR
STARTCHAR quotesingle
ENCODING 39
SWIDTH 600 0
DWIDTH 12 0
BBX 4 7 4 7
BITMAP
1FF1
1FF1
1FF1
0EE0
0CC0
0BB0
0990
ENDCHAR
STARTCHAR parenleft
ENCODING 40
SWIDTH 600 0
DWIDTH 12 0
BBX 6 18 4 -3
BITMAP
0001B3
001CC1
00BD10
06F300
0E9000
5F4000
9E0000
BC0000
CA0000
CA0000
BC0000
9E0000
5F4000
0E9000
06F300
00BD10
001CC1
0001B3
ENDCHAR
STARTCHAR parenright
ENCODING 41
SWIDTH 600 0
DWIDTH 12 0
BBX 6 18 2 -3
BITMAP
3B1000
1CC100
01DA00
003F60
0009D0
0004F4
0000E9
0000CB
0000AC
0000AC
0000CB
0000E9
0004F4
0009D0
003F60
01DA00
1CC100
3B1000
ENDCHAR
STARTCHAR asterisk
ENCODING 42
SWIDTH 600 0
DWIDTH 12 0
BBX 10 9 1 2
BITMAP
0000660000
0000880000
0000990000
2E94AA49E2
027DFFD720
0006FF6000
001E77E100
00AB00BA00
01B1001B10
ENDCHAR
STARTCHAR plus
ENCODING 43
SWIDTH 600 0
DWIDTH 12 0
BBX 10 9 1 2
BITMAP
0000990000
0000AA0000
0000AA0000
0000AA0000
4FFFFFFFF4
0000AA0000
0000AA0000
0000AA0000
0000990000
ENDCHAR
STARTCHAR comma
ENCODING 44
SWIDTH 600 0
DWIDTH 12 0
BBX 4 8 4 -5
BITMAP
2DE4
7FFC
2DFD
00AC
01E8
1BD1
DC20
2000
ENDCHAR
STARTCHAR hyphen
ENCODING 45
SWIDTH 600 0
DWIDTH 12 0
BBX 10 1 1 6
BITMAP
4FFFFFFFF4
ENDCHAR
STARTCHAR period
ENCODING 46
SWIDTH 600 0
DWIDTH 12 0
BBX 4 3 4 0
BITMAP
3DD3
9FF9
3DD3
ENDCHAR
STARTCHAR slash
ENCODING 47
SWIDTH 600 0
DWIDTH 12 0
BBX 8 17 2 -3
BITMAP
000000AC
000001F7
000006F1
00000CA0
00003F40
00009D00
0000E800
0005F200
000BB000
002F5000
008E0000
00D90000
04F30000
0AC00000
1F600000
7F100000
CA000000
ENDCHAR
STARTCHAR zero
ENCODING 48
SWIDTH 600 0
DWIDTH 12 0
BBX 10 13 1 0
BITMAP
003BEEB300
03F8118F30
0CB0000BC0
3F500005F3
6F100002F6
8F007700F8
9E03FF30F8
8F01DC10F8
6F200002F6
3F500005F3
0CB0000BC0
03E9119E30
003BEEB300
ENDCHAR
STARTCHAR one
ENCODING 49
SWIDTH 600 0
DWIDTH 12 0
BBX 10 13 1 0
BITMAP
0036CF4000
04FFFF4000
00006F4000
00006F4000
00006F4000
00006F4000
00006F4000
00006F4000
00006F4000
00006F4000
00006F4000
00006F4000
1FFFFFFFF9
ENDCHAR
STARTCHAR two
ENCODING 50
SWIDTH 600 0
DWIDTH 12 0
BBX 10 13 1 0
BITMAP
03AEFE9100
5F9213CD10
0400002F70
0000000EA0
0000000EA0
0000004F60
000000CD00
000009F400
00008F7000
0007F80000
007F800000
08F8000000
7FFEFFFFF7
ENDCHAR
STARTCHAR three
ENCODING 51
SWIDTH 600 0
DWIDTH 12 0
BBX 10 13 1 0
BITMAP
03ADFDA300
2EA302AF50
0200000EC0
0000000CD0
0000002F90
000026DB10
000EFFA100
000014AE50
0000000AF2
00000005F5
23000008F3
9F82028F90
06BEFEB500
ENDCHAR
STARTCHAR four
ENCODING 52
SWIDTH 600 0
DWIDTH 12 0
BBX 11 13 0 0
BITMAP
0000004FE000
000002DAE000
00000B79E000
00008B0AE000
0005E20AE000
002E500AE000
01DA000AE000
0AD1000AE000
3FFFFFFFFFE0
0000000AE000
0000000AE000
0000000AE000
0000000AE000
ENDCHAR
STARTCHAR five
ENCODING 53
SWIDTH 600 0
DWIDTH 12 0
BBX 10 13 1 0
BITMAP
07FFFFFFC0
08F0000000
09E0000000
0AD0000000
0BB0000000
0CEDFEC600
0582128FA0
00000009F3
00000004F6
00000005F5
2100000AF1
9E6203AF60
17BEFEA300
ENDCHAR
STARTCHAR six
ENCODING 54
SWIDTH 600 0
DWIDTH 12 0
BBX 10 13 1 0
BITMAP
0006CEEC71
00AE5116C1
07F3000000
0D90000000
3F50000000
5F25CED910
6FA9213CD1
6F600003F7
5F400000EA
2F700000E9
0AE10004F5
02DB214DA0
0029DFD600
ENDCHAR
STARTCHAR seven
ENCODING 55
SWIDTH 600 0
DWIDTH 12 0
BBX 10 13 1 0
BITMAP
9FFFFFFFF9
00000009D1
0000005F30
000001D900
000008E100
00001E9000
00005F3000
00009E0000
0000DA0000
0002F80000
0004F60000
0006F50000
0007F40000
ENDCHAR
STARTCHAR eight
ENCODING 56
SWIDTH 600 0
DWIDTH 12 0
BBX 10 13 1 0
BITMAP
004BEFC400
04F8116F50
0BC00008D0
0CB00006F0
06F4000AE0
006F936F70
01AFFFF900
1DE527DB30
7F400009E2
9E000000F8
7F200002F8
1CC4114CE2
017CFED920
ENDCHAR
STARTCHAR nine
ENCODING 57
SWIDTH 600 0
DWIDTH 12 0
BBX 10 13 1 0
BITMAP
006DFD9200
0AE412BD20
5F40000DB0
9F000007F2
9E000004F5
7F300006F7
1DC3129BF7
029DEC53F6
00000005F3
0000000AD0
0000003F70
1C6115DA00
17CEFC6000
ENDCHAR
STARTCHAR colon
ENCODING 58
SWIDTH 600 0
DWIDTH 12 0
BBX 4 10 4 0
BITMAP
3DD3
9FF9
3DD3
0000
0000
0000
0000
3DD3
9FF9
3DD3
ENDCHAR
STARTCHAR semicolon
ENCODING 59
SWIDTH 600 0
DWIDTH 12 0
BBX 4 15 4 -5
BITMAP
3DD3
9FF9
3DD3
0000
0000
0000
0000
2DE4
7FFC
2DFD
00AC
01E8
1BD1
DC20
2000
ENDCHAR
STARTCHAR less
ENCODING 60
SWIDTH 600 0
DWIDTH 12 0
BBX 8 9 2 2
BITMAP
0000004A
00003BC3
002AD500
19E81000
9F400000
19E81000
002AD500
00003BC3
0000004A
ENDCHAR
STARTCHAR equal
ENCODING 61
SWIDTH 600 0
DWIDTH 12 0
BBX 10 5 1 4
BITMAP
4FFFFFFFF4
0000000000
0000000000
0000000000
4FFFFFFFF4
ENDCHAR
STARTCHAR greater
ENCODING 62
SWIDTH 600 0
DWIDTH 12 0
BBX 8 9 2 2
BITMAP
A4000000
3CB30000
005DA200
00018E91
000004F9
00018E91
005DA200
3CB30000
A4000000
ENDCHAR
STARTCHAR question
ENCODING 63
SWIDTH 600 0
DWIDTH 12 0
BBX 8 13 2 0
BITMAP
18DFEB30
7D412AE3
000002F8
000004F6
00003EB0
0003EB10
000DB000
003F5000
00000000
00000000
005EB000
00AFF200
005EB000
ENDCHAR
STARTCHAR at
ENCODING 64
SWIDTH 600 0
DWIDTH 12 0
BBX 10 16 1 -3
BITMAP
0007CEEA20
01CC4129D1
0AC10000B7
3F3000006B
8B0000004D
C700038CEE
E5009E836E
F405F2005E
F407D0007E
E504F416DE
B8007EE93E
7C00000000
2F30000000
08C1000000
00BC4115A1
0006CEEB50
ENDCHAR
STARTCHAR A
ENCODING 65
SWIDTH 600 0
DWIDTH 12 0
BBX 12 13 0 0
BITMAP
00002FF20000
00007EE70000
0000C9AC0000
0002F56F2000
0007F12F7000
000CB00CC000
002F7008F200
007F2003F700
00CFFFFFFC00
03F700007F20
08F200003F80
0DC000000DD0
3F80000008F3
ENDCHAR
STARTCHAR B
ENCODING 66
SWIDTH 600 0
DWIDTH 12 0
BBX 9 13 2 0
BITMAP
FFFFEC6000
FA0027FA00
FA00009F10
FA00007F20
FA0000AE10
FA0028F600
FFFFFF8100
FA0014BE30
FA00000DB0
FA00000BE0
FA00001EB0
FA0014BE30
FFFFED9200
ENDCHAR
STARTCHAR C
ENCODING 67
SWIDTH 600 0
DWIDTH 12 0
BBX 10 13 1 0
BITMAP
0006BEFD82
01BE6115D6
09F3000010
2F90000000
7F40000000
9F10000000
AF00000000
9F10000000
7F40000000
2F90000000
09F3000012
01BE6114DC
0006CEFD81
ENDCHAR
STARTCHAR D
ENCODING 68
SWIDTH 600 0
DWIDTH 12 0
BBX 11 13 1 0
BITMAP
4FFFED920000
4F6014BE5000
4F60000BE200
4F600002F900
4F600000DD00
4F600000BF00
4F600000AF10
4F600000BF00
4F600000DC00
4F600003F800
4F60000BE200
4F6014BE4000
4FFFFD920000
ENDCHAR
STARTCHAR E
ENCODING 69
SWIDTH 600 0
DWIDTH 12 0
BBX 9 13 2 0
BITMAP
BFFFFFFF60
BE00000000
BE00000000
BE00000000
BE00000000
BE00000000
BFFFFFF600
BE00000000
BE00000000
BE00000000
BE00000000
BE00000000
BFFFFFFF90
ENDCHAR
STARTCHAR F
ENCODING 70
SWIDTH 600 0
DWIDTH 12 0
BBX 9 13 2 0
BITMAP
5FFFFFFFB0
5F50000000
5F50000000
5F50000000
5F50000000
5F50000000
5FFFFFFB00
5F50000000
5F50000000
5F50000000
5F50000000
5F50000000
5F50000000
ENDCHAR
STARTCHAR G
ENCODING 71
SWIDTH 600 0
DWIDTH 12 0
BBX 10 13 1 0
BITMAP
0018CEEC70
02DD4116E3
0DD1000010
6F50000000
AF10000000
DD00000000
EC00000000
DD0008FFFA
BF000000DA
6F500000DA
0DD10000DA
03EC4126E9
0018DFEC60
ENDCHAR
STARTCHAR H
ENCODING 72
SWIDTH 600 0
DWIDTH 12 0
BBX 10 13 1 0
BITMAP
6F400004F6
6F400004F6
6F400004F6
6F400004F6
6F400004F6
6F400004F6
6FFFFFFFF6
6F400004F6
6F400004F6
6F400004F6
6F400004F6
6F400004F6
6F400004F6
ENDCHAR
STARTCHAR I
ENCODING 73
SWIDTH 600 0
DWIDTH 12 0
BBX 10 13 1 0
BITMAP
1FFFFFFFF1
0000DD0000
0000DD0000
0000DD0000
0000DD0000
0000DD0000
0000DD0000
0000DD0000
0000DD0000
0000DD0000
0000DD0000
0000DD0000
1FFFFFFFF1
ENDCHAR
STARTCHAR J
ENCODING 74
SWIDTH 600 0
DWIDTH 12 0
BBX 9 13 1 0
BITMAP
04FFFFFFD0
0000000CD0
0000000CD0
0000000CD0
0000000CD0
0000000CD0
0000000CD0
0000000CD0
0000000CD0
0000000DB0
0700002F90
2EB313BE20
03AEFEA200
ENDCHAR
STARTCHAR K
ENCODING 75
SWIDTH 600 0
DWIDTH 12 0
BBX 11 13 1 0
BITMAP
1FA00003FA00
1FA0002EC100
1FA001DE2000
1FA00BE30000
1FA09F500000
1FA7FF400000
1FDFADD00000
1FFB05F60000
1FD100CE1000
1FA0004F9000
1FA0000AF300
1FA00002FB00
1FA000008F50
ENDCHAR
STARTCHAR L
ENCODING 76
SWIDTH 600 0
DWIDTH 12 0
BBX 9 13 2 0
BITMAP
5F50000000
5F50000000
5F50000000
5F50000000
5F50000000
5F50000000
5F50000000
5F50000000
5F50000000
5F50000000
5F50000000
5F50000000
5FFFFFFFC0
ENDCHAR
STARTCHAR M
ENCODING 77
SWIDTH 600 0
DWIDTH 12 0
BBX 10 13 1 0
BITMAP
8FA0000AF8
8FE0001EF8
8DF5005FD8
8DCA00ABD8
8E7E01E6E8
8F2F45F1F8
8F0B99A1F8
8F06EE51F8
8F01EE01F8
8F006501F8
8F000001F8
8F000001F8
8F000001F8
ENDCHAR
STARTCHAR N
ENCODING 78
SWIDTH 600 0
DWIDTH 12 0
BBX 10 13 1 0
BITMAP
5FB00004F5
5FF40004F5
5FCC0004F5
5F6F4004F5
5F2DC004F5
5F35F504F5
5F30CC03F5
5F405F53F5
5F400CD3F5
5F4004F6F5
5F4000CCF5
5F40004FF5
5F40000BF5
ENDCHAR
STARTCHAR O
ENCODING 79
SWIDTH 600 0
DWIDTH 12 0
BBX 10 13 1 0
BITMAP
004BEEB400
06F7118F60
2F900009F2
9F200002F9
DD000000DD
FB000000BF
FA000000BF
FB000000BF
CD000000DC
8F200002F8
2F900009F2
06F8118F60
004BEEB400
ENDCHAR
STARTCHAR P
ENCODING 80
SWIDTH 600 0
DWIDTH 12 0
BBX 9 13 2 0
BITMAP
EFFFED9200
EB0014CE30
EB00002FA0
EB00000DC0
EB00000EC0
EB00003F80
EB0015DD10
EFFFEC7100
EB00000000
EB00000000
EB00000000
EB00000000
EB00000000
ENDCHAR
STARTCHAR Q
ENCODING 81
SWIDTH 600 0
DWIDTH 12 0
BBX 10 16 1 -3
BITMAP
004BEEB400
06F8118F60
2F900009F2
8F200002F8
CD000000DC
EB000000BE
FB000000BF
EB000000BE
CD000000DC
8F200002F8
2F900009F2
06F8118F60
005CFFC500
00008F3000
00001CD411
0000018DFD
ENDCHAR
STARTCHAR R
ENCODING 82
SWIDTH 600 0
DWIDTH 12 0
BBX 9 13 2 0
BITMAP
FFFFED9100
FA0015DD10
FA00004F70
FA00001F90
FA00001F90
FA00006F60
FA0016EC00
FFFFFE8100
FA00AF2000
FA002EC000
FA0006F600
FA0000CE20
FA00003FB0
ENDCHAR
STARTCHAR S
ENCODING 83
SWIDTH 600 0
DWIDTH 12 0
BBX 10 13 1 0
BITMAP
003ADFDA40
05F8103AE1
0DC0000010
0FC0000000
0BF8000000
02DFD71000
0016DFF910
000004BFE1
00000007F8
00000001FA
06000002F8
6FC5114CD1
04ADEFD810
ENDCHAR
STARTCHAR T
ENCODING 84
SWIDTH 600 0
DWIDTH 12 0
BBX 12 13 0 0
BITMAP
2FFFFFFFFFF2
00000DD00000
00000DD00000
00000DD00000
00000DD00000
00000DD00000
00000DD00000
00000DD00000
00000DD00000
00000DD00000
00000DD00000
00000DD00000
00000DD00000
ENDCHAR
STARTCHAR U
ENCODING 85
SWIDTH 600 0
DWIDTH 12 0
BBX 10 13 1 0
BITMAP
6F400003F6
6F400003F6
6F400003F6
6F400003F6
6F400003F6
6F400003F6
6F400003F6
6F400003F6
6F400003F6
4F600005F4
1EA00009E1
06F8117F60
005CEFC500
ENDCHAR
STARTCHAR V
ENCODING 86
SWIDTH 600 0
DWIDTH 12 0
BBX 10 13 1 0
BITMAP
EC000000BE
AF100001FA
5F600005F5
1FB0000AF1
0AF1000EB0
06F5004F60
01FA008F10
00BE00DB00
006F32F600
001F87F200
000BDBC000
0007FF7000
0002FF2000
ENDCHAR
STARTCHAR W
ENCODING 87
SWIDTH 600 0
DWIDTH 12 0
BBX 12 13 0 0
BITMAP
BF20000001FB
9F40000003F9
6F60000004F6
4F70089006F4
2F901FF308F2
0EB04EE609F0
0CD08CCA0BD0
0AE0C98E0DA0
07F2F55F3E80
05F7F11F7F60
03FCD00CBF40
01FF9009FF10
00DF5005FE00
ENDCHAR
STARTCHAR X
ENCODING 88
SWIDTH 600 0
DWIDTH 12 0
BBX 10 13 1 0
BITMAP
5F700006F6
0CE1000DC0
03F8007F30
009F21EA00
001EA7E200
0007FE7000
0003FF2000
000BDEA000
004F57F400
00DC00DD00
07F3005F70
1EA0000CE1
9F200003F9
ENDCHAR
STARTCHAR Y
ENCODING 89
SWIDTH 600 0
DWIDTH 12 0
BBX 12 13 0 0
BITMAP
1EC000000BE1
07F400003F70
00DC0000BD00
006F5003F600
000DC00BD000
0005F53F5000
0000CCBC0000
00004FF40000
00000DD00000
00000DD00000
00000DD00000
00000DD00000
00000DD00000
ENDCHAR
STARTCHAR Z
ENCODING 90
SWIDTH 600 0
DWIDTH 12 0
BBX 10 13 1 0
BITMAP
1FFFFFFFFA
0000000AE2
0000005F70
000001EC00
000009F300
00004F8000
0001DD0000
0008F40000
003F900000
00CD100000
07F5000000
2FA0000000
AFFFFFFFFC
ENDCHAR
STARTCHAR bracketleft
ENCODING 91
SWIDTH 600 0
DWIDTH 12 0
BBX 7 17 4 -3
BITMAP
8FFFFF10
8C000000
8C000000
8C000000
8C000000
8C000000
8C000000
8C000000
8C000000
8C000000
8C000000
8C000000
8C000000
8C000000
8C000000
8C000000
8FFFFF10
ENDCHAR
STARTCHAR backslash
ENCODING 92
SWIDTH 600 0
DWIDTH 12 0
BBX 8 17 2 -3
BITMAP
CA000000
7F100000
1F600000
0AC00000
04F30000
00D90000
008E0000
002F5000
000BB000
0005F200
0000E800
00009D00
00003F40
00000CA0
000006F1
000001F7
000000AC
ENDCHAR
STARTCHAR bracketright
ENCODING 93
SWIDTH 600 0
DWIDTH 12 0
BBX 7 17 1 -3
BITMAP
1FFFFF80
00000C80
00000C80
00000C80
00000C80
00000C80
00000C80
00000C80
00000C80
00000C80
00000C80
00000C80
00000C80
00000C80
00000C80
00000C80
1FFFFF80
ENDCHAR
STARTCHAR asciicircum
ENCODING 94
SWIDTH 600 0
DWIDTH 12 0
BBX 8 8 2 5
BITMAP
000DD000
004EE400
00AAAA00
01F44F10
07E00E70
0C8008C0
3F3003F3
9D0000D9
ENDCHAR
STARTCHAR underscore
ENCODING 95
SWIDTH 600 0
DWIDTH 12 0
BBX 10 1 1 -3
BITMAP
CFFFFFFFFC
ENDCHAR
STARTCHAR grave
ENCODING 96
SWIDTH 600 0
DWIDTH 12 0
BBX 5 4 3 11
BITMAP
3B1000
4FB000
04EA00
003C10
ENDCHAR
STARTCHAR a
ENCODING 97
SWIDTH 600 0
DWIDTH 12 0
BBX 10 10 1 0
BITMAP
028CEFD800
0AB4117F80
0000000AF1
00000006F3
00159BDFF4
06EC7425F4
3F900005F4
5F400007F4
2EB203ABF4
03BEEA31F4
ENDCHAR
STARTCHAR b
ENCODING 98
SWIDTH 600 0
DWIDTH 12 0
BBX 10 14 1 0
BITMAP
2F80000000
2F80000000
2F80000000
2F70000000
2F75CEE910
2FDA304EC0
2F900006F6
2F800001FA
2F800000EC
2F800000FB
2F800002F9
2F800009F3
2FE8217F80
2F47DFC600
ENDCHAR
STARTCHAR c
ENCODING 99
SWIDTH 600 0
DWIDTH 12 0
BBX 10 10 1 0
BITMAP
0017CEFC81
02DE5115D3
0BF2000000
3F90000000
5F50000000
5F50000000
3F80000000
0CE2000000
02DE5114D8
0018DFEC71
ENDCHAR
STARTCHAR d
ENCODING 100
SWIDTH 600 0
DWIDTH 12 0
BBX 10 14 1 0
BITMAP
00000008F2
00000008F2
00000008F2
00000007F2
006CFD77F2
08F8117EF2
3F900008F2
9F200008F2
BF000008F2
CE000008F2
AF100008F2
5F700009F2
0BE5029CF2
018DFC44F2
ENDCHAR
STARTCHAR e
ENCODING 101
SWIDTH 600 0
DWIDTH 12 0
BBX 10 10 1 0
BITMAP
002AEFD810
04E9214DC1
1EA00002F7
6F300000DB
9FFFFFFFFB
9F20000000
6F50000000
1ED1000000
04EC4125B1
0029DFEC71
ENDCHAR
STARTCHAR f
ENCODING 102
SWIDTH 600 0
DWIDTH 12 0
BBX 10 14 2 0
BITMAP
00018DFEC4
0009E51142
000F900000
002F700000
DEFFFFFF80
002F700000
002F700000
002F700000
002F700000
002F700000
002F700000
002F700000
002F700000
002F700000
ENDCHAR
STARTCHAR g
ENCODING 103
SWIDTH 600 0
DWIDTH 12 0
BBX 11 14 1 -4
BITMAP
004BEFFFFF40
05F812CE2000
0DB0002F7000
0F90000F8000
0CD0004F4000
02EC67E90000
06D798400000
0E7000000000
0AC200000000
05FEFFFEC600
4F4000019F30
8E0000007F30
3F931138F900
03ADEECA4000
ENDCHAR
STARTCHAR h
ENCODING 104
SWIDTH 600 0
DWIDTH 12 0
BBX 10 14 1 0
BITMAP
2F80000000
2F80000000
2F80000000
2F70000000
2F72AEEB20
2F9C413DD0
2FC10006F4
2F800003F6
2F800003F7
2F800003F7
2F800003F7
2F800003F7
2F800003F7
2F800003F7
ENDCHAR
STARTCHAR i
ENCODING 105
SWIDTH 600 0
DWIDTH 12 0
BBX 8 15 1 0
BITMAP
00001DC1
00005FF3
00001DC1
00000000
00000000
3FFFFFE0
00000AE0
00000AE0
00000AE0
00000AE0
00000AE0
00000AE0
00000AE0
00000AE0
00000AE0
ENDCHAR
STARTCHAR j
ENCODING 106
SWIDTH 600 0
DWIDTH 12 0
BBX 8 19 1 -4
BITMAP
00001DC1
00005FF3
00001DC1
00000000
00000000
3FFFFFE0
00000AE0
00000AE0
00000AE0
00000AE0
00000AE0
00000AE0
00000AE0
00000AE0
00000AE0
00000BD0
00000DB0
43118F50
8DEEC500
ENDCHAR
STARTCHAR k
ENCODING 107
SWIDTH 600 0
DWIDTH 12 0
BBX 10 14 2 0
BITMAP
DC00000000
DC00000000
DC00000000
DC00000000
DC00006F70
DC0005F900
DC005FA000
DC04FB0000
DC4EF50000
DEEBBE2000
DFA01DC000
DD0004F900
DC00007F50
DC00000BE2
ENDCHAR
STARTCHAR l
ENCODING 108
SWIDTH 600 0
DWIDTH 12 0
BBX 10 14 1 0
BITMAP
8FFFF90000
0001F90000
0001F90000
0001F90000
0001F90000
0001F90000
0001F90000
0001F90000
0001F90000
0001F90000
0001F90000
0000EA0000
00009E4022
000019EFD6
ENDCHAR
STARTCHAR m
ENCODING 109
SWIDTH 600 0
DWIDTH 12 0
BBX 11 10 1 0
BITMAP
D87ED26ED400
DD71DC91CD00
DD009F108F10
DC009E007F20
DC009E007F20
DC009E007F20
DC009E007F20
DC009E007F20
DC009E007F20
DC009E007F20
ENDCHAR
STARTCHAR n
ENCODING 110
SWIDTH 600 0
DWIDTH 12 0
BBX 10 10 1 0
BITMAP
2F42AEEB20
2F8C413DD0
2FC10006F4
2F800003F6
2F800003F7
2F800003F7
2F800003F7
2F800003F7
2F800003F7
2F800003F7
ENDCHAR
STARTCHAR o
ENCODING 111
SWIDTH 600 0
DWIDTH 12 0
BBX 10 10 1 0
BITMAP
005BEEB500
07F8118F70
3F800008F3
9F200002F9
BF000000FB
BF000000FB
9F200002F9
3F800008F3
08F7117F80
005BEEB500
ENDCHAR
STARTCHAR p
ENCODING 112
SWIDTH 600 0
DWIDTH 12 0
BBX 10 14 1 -4
BITMAP
2F44BEE910
2FCA304EC0
2F900006F6
2F800001FA
2F800000EC
2F800000FB
2F800002F9
2F800008F3
2FE8216F80
2F77DFC600
2F70000000
2F80000000
2F80000000
2F80000000
ENDCHAR
STARTCHAR q
ENCODING 113
SWIDTH 600 0
DWIDTH 12 0
BBX 10 14 1 -4
BITMAP
006CFD74F2
08F8117EF2
3F900008F2
9F200008F2
BF000008F2
CE000008F2
AF100008F2
5F700009F2
0BE5029DF2
018DFC47F2
00000007F2
00000008F2
00000008F2
00000008F2
ENDCHAR
STARTCHAR r
ENCODING 114
SWIDTH 600 0
DWIDTH 12 0
BBX 9 10 2 0
BITMAP
1F506CEE80
1F6B820220
1FE4000000
1F90000000
1F80000000
1F80000000
1F80000000
1F80000000
1F80000000
1F80000000
ENDCHAR
STARTCHAR s
ENCODING 115
SWIDTH 600 0
DWIDTH 12 0
BBX 10 10 1 0
BITMAP
006CEFD940
08E5114A90
0EB0000000
0BF7100000
02BFFC8300
00026AEFB1
00000009F6
02000003F7
5FA4102BE2
049DEED920
ENDCHAR
STARTCHAR t
ENCODING 116
SWIDTH 600 0
DWIDTH 12 0
BBX 10 13 1 0
BITMAP
0009C00000
000BC00000
000CC00000
9EFFFFFFF8
000DC00000
000DC00000
000DC00000
000DC00000
000DC00000
000CC00000
000AE00000
0003F92024
00005CFED8
ENDCHAR
STARTCHAR u
ENCODING 117
SWIDTH 600 0
DWIDTH 12 0
BBX 10 10 1 0
BITMAP
7F300008F1
7F300008F1
7F300008F1
7F300008F1
7F300008F1
7F300008F1
6F400008F1
4F60001DF1
0DD314C8F1
02BEEA24F1
ENDCHAR
STARTCHAR v
ENCODING 118
SWIDTH 600 0
DWIDTH 12 0
BBX 10 10 1 0
BITMAP
CD000000CC
6F400003F6
0EA00009E1
08F1001E90
02F7006F30
00BD00CC00
005F32F500
000D98E000
0007ED8000
0001FF2000
ENDCHAR
STARTCHAR w
ENCODING 119
SWIDTH 600 0
DWIDTH 12 0
BBX 12 10 0 0
BITMAP
BD00055000CB
8F100EF100F8
5F403EE403F5
2F706CC806F2
0DA0A99B09E0
0AD0D66E0CB0
07F3F33F3E70
04F9E00E8F40
01FEB00BEF10
00CF8007FD00
ENDCHAR
STARTCHAR x
ENCODING 120
SWIDTH 600 0
DWIDTH 12 0
BBX 10 10 1 0
BITMAP
2EB0000AE2
06F6005F60
00AE21EA00
001DC9E100
0004FF5000
0008FF6000
004F6AE200
01DB01DC00
0AE2003F90
5F600007F5
ENDCHAR
STARTCHAR y
ENCODING 121
SWIDTH 600 0
DWIDTH 12 0
BBX 10 14 1 -4
BITMAP
CD000000BC
4F400002F6
0CB00008E1
05F3000D90
00C9004F30
005F10AC00
000C71F600
0005D7E100
0000DE9000
00009F3000
0000DB0000
0005F50000
004EA00000
7FD7000000
ENDCHAR
STARTCHAR z
ENCODING 122
SWIDTH 600 0
DWIDTH 12 0
BBX 10 10 1 0
BITMAP
0DFFFFFFF5
0000005FA0
000002ED10
00001DE200
0000AF5000
0007F80000
004FB00000
02ED100000
0CF3000000
7FFFFFFFF9
ENDCHAR
STARTCHAR braceleft
ENCODING 123
SWIDTH 600 0
DWIDTH 12 0
BBX 9 17 2 -3
BITMAP
00019DFF10
000AD30000
000D800000
000D800000
000C900000
000B900000
000B900000
016F500000
9FF7000000
016F500000
000B900000
000B900000
000C900000
000D800000
000D800000
000AD30000
00019DFF10
ENDCHAR
STARTCHAR bar
ENCODING 124
SWIDTH 600 0
DWIDTH 12 0
BBX 2 20 5 -5
BITMAP
BB
BB
BB
BB
BB
BB
BB
BB
BB
BB
BB
BB
BB
BB
BB
BB
BB
BB
BB
BB
ENDCHAR
STARTCHAR braceright
ENCODING 125
SWIDTH 600 0
DWIDTH 12 0
BBX 8 17 2 -3
BITMAP
FFD91000
003DA000
0008D000
0008D000
0008C000
0009B000
0009B000
0005F610
00007FF9
0005F610
0009B000
0009B000
0008C000
0008D000
0008D000
003DA000
FFD91000
ENDCHAR
STARTCHAR asciitilde
ENCODING 126
SWIDTH 600 0
DWIDTH 12 0
BBX 10 3 1 5
BITMAP
03CE8000B4
1E51BB15E1
4B0008EC30
ENDCHAR
STARTCHAR uni00A0
ENCODING 160
SWIDTH 600 0
DWIDTH 12 0
BBX 1 1 0 0
BITMAP
00
ENDCHAR
STARTCHAR exclamdown
ENCODING 161
SWIDTH 600 0
DWIDTH 12 0
BBX 4 14 4 -4
BITMAP
2DD2
6FF6
2DD2
0000
0000
0990
0990
0AA0
0AA0
0AA0
0BB0
0BB0
0CC0
0CC0
ENDCHAR
STARTCHAR cent
ENCODING 162
SWIDTH 600 0
DWIDTH 12 0
BBX 8 13 2 0
BITMAP
0000B400
0000B400
006CFFC5
09E5B576
4F60B400
9F00B400
BE00B400
9F00B400
5F60B400
0AE5B569
007CFEB6
0000B400
0000B400
ENDCHAR
STARTCHAR sterling
ENCODING 163
SWIDTH 600 0
DWIDTH 12 0
BBX 10 13 1 0
BITMAP
0004BEFD81
006F7115D4
00EA000000
01F7000000
00E9000000
00AD000000
6EFFFFFD00
001F600000
000F700000
002F600000
008E100000
04F6000000
5FFFFFFFF9
ENDCHAR
STARTCHAR currency
ENCODING 164
SWIDTH 600 0
DWIDTH 12 0
BBX 10 9 1 2
BITMAP
7900000097
3EAAEEAAE3
06F9229F50
0BD0000DA0
0DA0000AD0
0AD0000DA0
05F9119F50
3E9AEEA9E3
7900000097
ENDCHAR
STARTCHAR yen
ENCODING 165
SWIDTH 600 0
DWIDTH 12 0
BBX 10 13 1 0
BITMAP
AE100001EA
2F800007F2
08E1001E80
01E8008E10
006E11E600
000D88D000
2559EE9552
4AAAEEAAA4
2555ED5552
4AAAEEAAA4
0000DC0000
0000DC0000
0000DC0000
ENDCHAR
STARTCHAR brokenbar
ENCODING 166
SWIDTH 600 0
DWIDTH 12 0
BBX 2 20 5 -5
BITMAP
BB
BB
BB
BB
BB
BB
BB
BB
99
00
00
99
BB
BB
BB
BB
BB
BB
BB
BB
ENDCHAR
STARTCHAR section
ENCODING 167
SWIDTH 600 0
DWIDTH 12 0
BBX 10 15 1 -1
BITMAP
0019EFC710
00AC215A00
00E9000000
00CE600000
01AFFC5000
0AC26DFB10
2F40006EB0
2F700006F2
0BF81005F2
01BFE94DB0
0004BFFB10
000004EC00
0000009D00
06C302D900
029DFD8100
ENDCHAR
STARTCHAR dieresis
ENCODING 168
SWIDTH 600 0
DWIDTH 12 0
BBX 6 2 3 12
BITMAP
CD11DC
CD11DC
ENDCHAR
STARTCHAR copyright
ENCODING 169
SWIDTH 600 0
DWIDTH 12 0
BBX 12 13 0 0
BITMAP
0005BEEB5000
009C4114C900
06B000000B60
0D207DEA12D0
3C07E31600C2
590E60000095
681F40000086
590E60000095
2C08D10500C2
0D219EEC23D0
05C100101C50
009C4114C800
0005BEEB5000
ENDCHAR
STARTCHAR ordfeminine
ENCODING 170
SWIDTH 600 0
DWIDTH 12 0
BBX 6 6 3 8
BITMAP
29EFC3
2721AB
05ADFE
7D526E
AA12AE
3CFB5B
ENDCHAR
STARTCHAR guillemotleft
ENCODING 171
SWIDTH 600 0
DWIDTH 12 0
BBX 9 8 1 1
BITMAP
000A3003B0
00AD103E70
0AE203EA00
5F500BD100
5F500BD100
0AE203EA00
00AC103E70
000A3003B0
ENDCHAR
STARTCHAR logicalnot
ENCODING 172
SWIDTH 600 0
DWIDTH 12 0
BBX 10 5 1 2
BITMAP
4FFFFFFFF4
00000000F4
00000000F4
00000000F4
00000000E4
ENDCHAR
STARTCHAR uni00AD
ENCODING 173
SWIDTH 600 0
DWIDTH 12 0
BBX 10 1 1 6
BITMAP
4FFFFFFFF4
ENDCHAR
STARTCHAR registered
ENCODING 174
SWIDTH 600 0
DWIDTH 12 0
BBX 8 8 2 6
BITMAP
01AEE910
1D7217C0
77633577
B27FF42B
B275932B
77543777
1D6117C0
01AEEA10
ENDCHAR
STARTCHAR macron
ENCODING 175
SWIDTH 600 0
DWIDTH 12 0
BBX 6 1 3 12
BITMAP
AFFFFA
ENDCHAR
STARTCHAR degree
ENCODING 176
SWIDTH 600 0
DWIDTH 12 0
BBX 6 5 3 9
BITMAP
07EE70
4D22D4
780087
4D22D4
07EE70
ENDCHAR
STARTCHAR plusminus
ENCODING 177
SWIDTH 600 0
DWIDTH 12 0
BBX 10 11 1 0
BITMAP
0000AA0000
0000AA0000
0000AA0000
0000AA0000
4FFFFFFFF4
0000AA0000
0000AA0000
0000AA0000
0000AA0000
0000000000
4FFFFFFFF4
ENDCHAR
STARTCHAR two.sups
ENCODING 178
SWIDTH 600 0
DWIDTH 12 0
BBX 6 8 3 7
BITMAP
3BED70
C614F5
0000C7
0001E4
000BA0
01AB10
1CB100
BFFFFE
ENDCHAR
STARTCHAR three.sups
ENCODING 179
SWIDTH 600 0
DWIDTH 12 0
BBX 6 8 3 7
BITMAP
2AEE91
8712D7
0013E5
00FF90
0013C9
00007D
D612C9
3BEE91
ENDCHAR
STARTCHAR acute
ENCODING 180
SWIDTH 600 0
DWIDTH 12 0
BBX 5 4 4 11
BITMAP
001B30
00BF40
0AE400
1C3000
ENDCHAR
STARTCHAR uni00B5
ENCODING 181
SWIDTH 600 0
DWIDTH 12 0
BBX 10 14 1 -4
BITMAP
5F50000AF0
5F50000AF0
5F50000AE0
5F50000AE0
5F50000AE0
5F50000AD0
5F50000AD0
5F80002ED0
5FE304C8E0
5F8DEB22ED
5F30000000
5F30000000
5F40000000
5F50000000
ENDCHAR
STARTCHAR paragraph
ENCODING 182
SWIDTH 600 0
DWIDTH 12 0
BBX 9 15 1 -2
BITMAP
007CEF0EB0
0AFFFF0EB0
4FFFFF0EB0
7FFFFF0EB0
8FFFFF0EB0
6FFFFF0EB0
1EFFFF0EB0
04EFFF0EB0
0015890EB0
0000000EB0
0000000EB0
0000000EB0
0000000EB0
0000000EB0
0000000EB0
ENDCHAR
STARTCHAR periodcentered
ENCODING 183
SWIDTH 600 0
DWIDTH 12 0
BBX 4 3 4 6
BITMAP
3DD3
9FF9
3DD3
ENDCHAR
STARTCHAR cedilla
ENCODING 184
SWIDTH 600 0
DWIDTH 12 0
BBX 4 5 4 -5
BITMAP
0A50
1FC2
03D8
14E5
CC60
ENDCHAR
STARTCHAR one.sups
ENCODING 185
SWIDTH 600 0
DWIDTH 12 0
BBX 7 8 3 7
BITMAP
19CF4000
001F4000
001F4000
001F4000
001F4000
001F4000
001F4000
8FFFFF80
ENDCHAR
STARTCHAR ordmasculine
ENCODING 186
SWIDTH 600 0
DWIDTH 12 0
BBX 8 6 2 8
BITMAP
019EE910
0BB22BB0
1F4004F1
1F4004F1
0BB22BB0
019EE910
ENDCHAR
STARTCHAR guillemotright
ENCODING 187
SWIDTH 600 0
DWIDTH 12 0
BBX 9 8 2 1
BITMAP
B4003B0000
7E301CB000
0AE302EA00
01DB005F50
01DB005F50
0AE302EA00
7E301CB000
B4003B0000
ENDCHAR
STARTCHAR onequarter
ENCODING 188
SWIDTH 600 0
DWIDTH 12 0
BBX 12 13 0 0
BITMAP
06CF400001B2
000F40000BC1
000F40009C10
000F4006D100
000F40051000
000F40000000
000000000000
00015000C200
001C6006B000
01C9001E3970
1CB0007A0980
2B1000DFFFF8
000000000980
ENDCHAR
STARTCHAR onehalf
ENCODING 189
SWIDTH 600 0
DWIDTH 12 0
BBX 12 13 0 0
BITMAP
06CF400001B2
000F40000BC1
000F40009C10
000F4006D100
000F40051000
000F40000000
000000000000
0001502BFD40
001C605719D0
01C9000007C0
1CB000004E30
2B100006D300
0000007FFFF4
ENDCHAR
STARTCHAR threequarters
ENCODING 190
SWIDTH 600 0
DWIDTH 12 0
BBX 12 13 0 0
BITMAP
07EEB1000077
0623F30004F6
009FA0002E60
0002D701D600
2921C8016000
08EEA1000000
000000000000
00005100C200
0006D106B000
006E201E3970
06F4007A0980
077000DFFFF8
000000000980
ENDCHAR
STARTCHAR questiondown
ENCODING 191
SWIDTH 600 0
DWIDTH 12 0
BBX 8 14 2 -4
BITMAP
000BE500
002FFA00
000BE500
00000000
00000000
0005F300
000AE100
006F7000
06F90000
3FA00000
8F300000
7F200000
2EB204D7
03AEFD81
ENDCHAR
STARTCHAR Agrave
ENCODING 192
SWIDTH 600 0
DWIDTH 12 0
BBX 12 17 0 0
BITMAP
0002C3000000
00019F600000
000004C10000
000000000000
00002FF20000
00007EE70000
0000C9AC0000
0002F56F2000
0007F12F7000
000CB00CC000
002F7008F200
007F2003F700
00CFFFFFFC00
03F700007F20
08F200003F80
0DC000000DD0
3F80000008F3
ENDCHAR
STARTCHAR Aacute
ENCODING 193
SWIDTH 600 0
DWIDTH 12 0
BBX 12 17 0 0
BITMAP
0000003C2000
000006F91000
00001C400000
000000000000
00002FF20000
00007EE70000
0000C9AC0000
0002F56F2000
0007F12F7000
000CB00CC000
002F7008F200
007F2003F700
00CFFFFFFC00
03F700007F20
08F200003F80
0DC000000DD0
3F80000008F3
ENDCHAR
STARTCHAR Acircumflex
ENCODING 194
SWIDTH 600 0
DWIDTH 12 0
BBX 12 17 0 0
BITMAP
00004FF40000
0003E66E3000
000A5005A000
000000000000
00002FF20000
00007EE70000
0000C9AC0000
0002F56F2000
0007F12F7000
000CB00CC000
002F7008F200
007F2003F700
00CFFFFFFC00
03F700007F20
08F200003F80
0DC000000DD0
3F80000008F3
ENDCHAR
STARTCHAR Atilde
ENCODING 195
SWIDTH 600 0
DWIDTH 12 0
BBX 12 16 0 0
BITMAP
001BEC51B600
006B15CEB100
000000000000
00002FF20000
00007EE70000
0000C9AC0000
0002F56F2000
0007F12F7000
000CB00CC000
002F7008F200
007F2003F700
00CFFFFFFC00
03F700007F20
08F200003F80
0DC000000DD0
3F80000008F3
ENDCHAR
STARTCHAR Adieresis
ENCODING 196
SWIDTH 600 0
DWIDTH 12 0
BBX 12 16 0 0
BITMAP
000AE11E9000
0009E11E9000
000000000000
00002FF20000
00007EE70000
0000C9AC0000
0002F56F2000
0007F12F7000
000CB00CC000
002F7008F200
007F2003F700
00CFFFFFFC00
03F700007F20
08F200003F80
0DC000000DD0
3F80000008F3
ENDCHAR
STARTCHAR Aring
ENCODING 197
SWIDTH 600 0
DWIDTH 12 0
BBX 12 18 0 0
BITMAP
00004DD40000
0000D33D0000
0000D33D0000
00005EE50000
000000000000
00002FF20000
00007EE70000
0000C9AC0000
0002F56F2000
0007F12F7000
000CB00CC000
002F7008F200
007F2003F700
00CFFFFFFC00
03F700007F20
08F200003F80
0DC000000DD0
3F80000008F3
ENDCHAR
STARTCHAR AE
ENCODING 198
SWIDTH 600 0
DWIDTH 12 0
BBX 12 13 0 0
BITMAP
00000EFFFFFA
00005FDD0000
0000BCAD0000
0002F6AD0000
0008F1AD0000
001EA0AD0000
006F40AFFFC0
00CD00AD0000
03FFFFFD0000
09E100AD0000
1EA000AD0000
6F4000AD0000
CD0000AFFFFC
ENDCHAR
STARTCHAR Ccedilla
ENCODING 199
SWIDTH 600 0
DWIDTH 12 0
BBX 10 18 1 -5
BITMAP
0006BEFD82
01BE6115D6
09F3000010
2F90000000
7F40000000
9F10000000
AF00000000
9F10000000
7F40000000
2F90000000
09F3000012
01BE6114DC
0006CEFD81
00000A5000
00001FC200
000003D800
000014E500
0000CC6000
ENDCHAR
STARTCHAR Egrave
ENCODING 200
SWIDTH 600 0
DWIDTH 12 0
BBX 9 17 2 0
BITMAP
006A100000
003DC20000
0000890000
0000000000
BFFFFFFF60
BE00000000
BE00000000
BE00000000
BE00000000
BE00000000
BFFFFFF600
BE00000000
BE00000000
BE00000000
BE00000000
BE00000000
BFFFFFFF90
ENDCHAR
STARTCHAR Eacute
ENCODING 201
SWIDTH 600 0
DWIDTH 12 0
BBX 9 17 2 0
BITMAP
0000079000
0001AE5000
0005A10000
0000000000
BFFFFFFF60
BE00000000
BE00000000
BE00000000
BE00000000
BE00000000
BFFFFFF600
BE00000000
BE00000000
BE00000000
BE00000000
BE00000000
BFFFFFFF90
ENDCHAR
STARTCHAR Ecircumflex
ENCODING 202
SWIDTH 600 0
DWIDTH 12 0
BBX 9 17 2 0
BITMAP
000AFD1000
008D3BB000
02C200A500
0000000000
BFFFFFFF60
BE00000000
BE00000000
BE00000000
BE00000000
BE00000000
BFFFFFF600
BE00000000
BE00000000
BE00000000
BE00000000
BE00000000
BFFFFFFF90
ENDCHAR
STARTCHAR Edieresis
ENCODING 203
SWIDTH 600 0
DWIDTH 12 0
BBX 9 16 2 0
BITMAP
01E906E400
01E905E400
0000000000
BFFFFFFF60
BE00000000
BE00000000
BE00000000
BE00000000
BE00000000
BFFFFFF600
BE00000000
BE00000000
BE00000000
BE00000000
BE00000000
BFFFFFFF90
ENDCHAR
STARTCHAR Igrave
ENCODING 204
SWIDTH 600 0
DWIDTH 12 0
BBX 10 17 1 0
BITMAP
002C300000
0019F60000
00004C1000
0000000000
1FFFFFFFF1
0000DD0000
0000DD0000
0000DD0000
0000DD0000
0000DD0000
0000DD0000
0000DD0000
0000DD0000
0000DD0000
0000DD0000
0000DD0000
1FFFFFFFF1
ENDCHAR
STARTCHAR Iacute
ENCODING 205
SWIDTH 600 0
DWIDTH 12 0
BBX 10 17 1 0
BITMAP
000003C200
00006F9100
0001C40000
0000000000
1FFFFFFFF1
0000DD0000
0000DD0000
0000DD0000
0000DD0000
0000DD0000
0000DD0000
0000DD0000
0000DD0000
0000DD0000
0000DD0000
0000DD0000
1FFFFFFFF1
ENDCHAR
STARTCHAR Icircumflex
ENCODING 206
SWIDTH 600 0
DWIDTH 12 0
BBX 10 17 1 0
BITMAP
0004FF4000
003E66E300
00A5005A00
0000000000
1FFFFFFFF1
0000DD0000
0000DD0000
0000DD0000
0000DD0000
0000DD0000
0000DD0000
0000DD0000
0000DD0000
0000DD0000
0000DD0000
0000DD0000
1FFFFFFFF1
ENDCHAR
STARTCHAR Idieresis
ENCODING 207
SWIDTH 600 0
DWIDTH 12 0
BBX 10 16 1 0
BITMAP
00AE11E900
009E11E900
0000000000
1FFFFFFFF1
0000DD0000
0000DD0000
0000DD0000
0000DD0000
0000DD0000
0000DD0000
0000DD0000
0000DD0000
0000DD0000
0000DD0000
0000DD0000
1FFFFFFFF1
ENDCHAR
STARTCHAR Eth
ENCODING 208
SWIDTH 600 0
DWIDTH 12 0
BBX 12 13 0 0
BITMAP
04FFFED92000
04F6014BE500
04F60000BE20
04F600003F90
04F600000DD0
04F600000BF0
BFFFFF400BF1
04F600000BF0
04F600000EC0
04F600003F80
04F60000CE20
04F6014CE400
04FFFFD92000
ENDCHAR
STARTCHAR Ntilde
ENCODING 209
SWIDTH 600 0
DWIDTH 12 0
BBX 10 16 1 0
BITMAP
009ED61880
03D24BED30
0000000000
5FB00004F5
5FF40004F5
5FCC0004F5
5F6F4004F5
5F2DC004F5
5F35F504F5
5F30CC03F5
5F405F53F5
5F400CD3F5
5F4004F6F5
5F4000CCF5
5F40004FF5
5F40000BF5
ENDCHAR
STARTCHAR Ograve
ENCODING 210
SWIDTH 600 0
DWIDTH 12 0
BBX 10 17 1 0
BITMAP
002C300000
0019F60000
00004C1000
0000000000
004BEEB400
06F7118F60
2F900009F2
9F200002F9
DD000000DD
FB000000BF
FA000000BF
FB000000BF
CD000000DC
8F200002F8
2F900009F2
06F8118F60
004BEEB400
ENDCHAR
STARTCHAR Oacute
ENCODING 211
SWIDTH 600 0
DWIDTH 12 0
BBX 10 17 1 0
BITMAP
000003C200
00006F9100
0001C40000
0000000000
004BEEB400
06F7118F60
2F900009F2
9F200002F9
DD000000DD
FB000000BF
FA000000BF
FB000000BF
CD000000DC
8F200002F8
2F900009F2
06F8118F60
004BEEB400
ENDCHAR
STARTCHAR Ocircumflex
ENCODING 212
SWIDTH 600 0
DWIDTH 12 0
BBX 10 17 1 0
BITMAP
0004FF4000
003E66E300
00A5005A00
0000000000
004BEEB400
06F7118F60
2F900009F2
9F200002F9
DD000000DD
FB000000BF
FA000000BF
FB000000BF
CD000000DC
8F200002F8
2F900009F2
06F8118F60
004BEEB400
ENDCHAR
STARTCHAR Otilde
ENCODING 213
SWIDTH 600 0
DWIDTH 12 0
BBX 10 16 1 0
BITMAP
01BEC51B60
06B15CEB10
0000000000
004BEEB400
06F7118F60
2F900009F2
9F200002F9
DD000000DD
FB000000BF
FA000000BF
FB000000BF
CD000000DC
8F200002F8
2F900009F2
06F8118F60
004BEEB400
ENDCHAR
STARTCHAR Odieresis
ENCODING 214
SWIDTH 600 0
DWIDTH 12 0
BBX 10 16 1 0
BITMAP
00AE11E900
009E11E900
0000000000
004BEEB400
06F7118F60
2F900009F2
9F200002F9
DD000000DD
FB000000BF
FA000000BF
FB000000BF
CD000000DC
8F200002F8
2F900009F2
06F8118F60
004BEEB400
ENDCHAR
STARTCHAR multiply
ENCODING 215
SWIDTH 600 0
DWIDTH 12 0
BBX 8 8 2 3
BITMAP
97000068
5F7006F5
05F66F50
005FF500
006FF600
05F66F60
5F6006F5
97000068
ENDCHAR
STARTCHAR Oslash
ENCODING 216
SWIDTH 600 0
DWIDTH 12 0
BBX 12 15 0 -1
BITMAP
000000000130
0004BEEB48E1
006F711AFF50
02F80001FF20
09F2000BEF90
0DD0006F3ED0
0FC003F70CF0
0FB00CB00BF0
0FC08E200CF0
0CE4F5000DC0
08FE90002F80
02FF10009F20
06FFA118F600
1E74BEEB4000
030000000000
ENDCHAR
STARTCHAR Ugrave
ENCODING 217
SWIDTH 600 0
DWIDTH 12 0
BBX 10 17 1 0
BITMAP
002C300000
0019F60000
00004C1000
0000000000
6F400003F6
6F400003F6
6F400003F6
6F400003F6
6F400003F6
6F400003F6
6F400003F6
6F400003F6
6F400003F6
4F600005F4
1EA00009E1
06F8117F60
005CEFC500
ENDCHAR
STARTCHAR Uacute
ENCODING 218
SWIDTH 600 0
DWIDTH 12 0
BBX 10 17 1 0
BITMAP
000003C200
00006F9100
0001C40000
0000000000
6F400003F6
6F400003F6
6F400003F6
6F400003F6
6F400003F6
6F400003F6
6F400003F6
6F400003F6
6F400003F6
4F600005F4
1EA00009E1
06F8117F60
005CEFC500
ENDCHAR
STARTCHAR Ucircumflex
ENCODING 219
SWIDTH 600 0
DWIDTH 12 0
BBX 10 17 1 0
BITMAP
0004FF4000
003E66E300
00A5005A00
0000000000
6F400003F6
6F400003F6
6F400003F6
6F400003F6
6F400003F6
6F400003F6
6F400003F6
6F400003F6
6F400003F6
4F600005F4
1EA00009E1
06F8117F60
005CEFC500
ENDCHAR
STARTCHAR Udieresis
ENCODING 220
SWIDTH 600 0
DWIDTH 12 0
BBX 10 16 1 0
BITMAP
00AE11E900
009E11E900
0000000000
6F400003F6
6F400003F6
6F400003F6
6F400003F6
6F400003F6
6F400003F6
6F400003F6
6F400003F6
6F400003F6
4F600005F4
1EA00009E1
06F8117F60
005CEFC500
ENDCHAR
STARTCHAR Yacute
ENCODING 221
SWIDTH 600 0
DWIDTH 12 0
BBX 12 17 0 0
BITMAP
0000003C2000
000006F91000
00001C400000
000000000000
1EC000000BE1
07F400003F70
00DC0000BD00
006F5003F600
000DC00BD000
0005F53F5000
0000CCBC0000
00004FF40000
00000DD00000
00000DD00000
00000DD00000
00000DD00000
00000DD00000
ENDCHAR
STARTCHAR Thorn
ENCODING 222
SWIDTH 600 0
DWIDTH 12 0
BBX 9 13 2 0
BITMAP
FB00000000
FB00000000
FFFFEDA300
FB0014BE30
FB00001EA0
FB00000CD0
FB00000DD0
FB00002F90
FB0014CE20
FFFFEC8100
FB00000000
FB00000000
FB00000000
ENDCHAR
STARTCHAR germandbls
ENCODING 223
SWIDTH 600 0
DWIDTH 12 0
BBX 11 14 1 0
BITMAP
005CFD910000
06F613EA0000
1EA0008F0000
3F7000BE0000
4F6005F80000
4F601EC00000
4F604F500000
4F602F900000
4F6005EC4000
4F600019F800
4F6000008F20
4F6000005F30
4F605612CD00
4F606CEEA200
ENDCHAR
STARTCHAR agrave
ENCODING 224
SWIDTH 600 0
DWIDTH 12 0
BBX 10 15 1 0
BITMAP
000A400000
001CE30000
0001BE2000
00000A5000
0000000000
028CEFD800
0AB4117F80
0000000AF1
00000006F3
00159BDFF4
06EC7425F4
3F900005F4
5F400007F4
2EB203ABF4
03BEEA31F4
ENDCHAR
STARTCHAR aacute
ENCODING 225
SWIDTH 600 0
DWIDTH 12 0
BBX 10 15 1 0
BITMAP
0000007800
000005FA00
00004F9000
0000880000
0000000000
028CEFD800
0AB4117F80
0000000AF1
00000006F3
00159BDFF4
06EC7425F4
3F900005F4
5F400007F4
2EB203ABF4
03BEEA31F4
ENDCHAR
STARTCHAR acircumflex
ENCODING 226
SWIDTH 600 0
DWIDTH 12 0
BBX 10 15 1 0
BITMAP
0001CFA000
001CB3D900
0069001B30
0000000000
0000000000
028CEFD800
0AB4117F80
0000000AF1
00000006F3
00159BDFF4
06EC7425F4
3F900005F4
5F400007F4
2EB203ABF4
03BEEA31F4
ENDCHAR
STARTCHAR atilde
ENCODING 227
SWIDTH 600 0
DWIDTH 12 0
BBX 10 15 1 0
BITMAP
0016500240
00ABBB28B0
00D207ED30
0000000000
0000000000
028CEFD800
0AB4117F80
0000000AF1
00000006F3
00159BDFF4
06EC7425F4
3F900005F4
5F400007F4
2EB203ABF4
03BEEA31F4
ENDCHAR
STARTCHAR adieresis
ENCODING 228
SWIDTH 600 0
DWIDTH 12 0
BBX 10 14 1 0
BITMAP
006E508E40
006E508E40
0000000000
0000000000
028CEFD800
0AB4117F80
0000000AF1
00000006F3
00159BDFF4
06EC7425F4
3F900005F4
5F400007F4
2EB203ABF4
03BEEA31F4
ENDCHAR
STARTCHAR aring
ENCODING 229
SWIDTH 600 0
DWIDTH 12 0
BBX 10 15 1 0
BITMAP
0002CEB100
000A81A800
000A81A800
0003CEB100
0000000000
028CEFD800
0AB4117F80
0000000AF1
00000006F3
00159BDFF4
06EC7425F4
3F900005F4
5F400007F4
2EB203ABF4
03BEEA31F4
ENDCHAR
STARTCHAR ae
ENCODING 230
SWIDTH 600 0
DWIDTH 12 0
BBX 12 10 0 0
BITMAP
18CED408EE70
09317E9A13E5
00000DE1009B
00000BB0007D
005ADFFFFFFE
1BE73AB00000
7F3009D00000
9E0007F30000
6F416BBC2162
09EE9119EEC4
ENDCHAR
STARTCHAR ccedilla
ENCODING 231
SWIDTH 600 0
DWIDTH 12 0
BBX 10 15 1 -5
BITMAP
0017CEFC81
02DE5115D3
0BF2000000
3F90000000
5F50000000
5F50000000
3F80000000
0CE2000000
02DE5114D8
0018DFEC71
00000B4000
00002FC100
000003E700
000014E400
0000DC6000
ENDCHAR
STARTCHAR egrave
ENCODING 232
SWIDTH 600 0
DWIDTH 12 0
BBX 10 15 1 0
BITMAP
001B300000
002DE20000
0001CD1000
00001B4000
0000000000
002AEFD810
04E9214DC1
1EA00002F7
6F300000DB
9FFFFFFFFB
9F20000000
6F50000000
1ED1000000
04EC4125B1
0029DFEC71
ENDCHAR
STARTCHAR eacute
ENCODING 233
SWIDTH 600 0
DWIDTH 12 0
BBX 10 15 1 0
BITMAP
0000008600
000007F900
00005F8000
0000960000
0000000000
002AEFD810
04E9214DC1
1EA00002F7
6F300000DB
9FFFFFFFFB
9F20000000
6F50000000
1ED1000000
04EC4125B1
0029DFEC71
ENDCHAR
STARTCHAR ecircumflex
ENCODING 234
SWIDTH 600 0
DWIDTH 12 0
BBX 10 15 1 0
BITMAP
0002DF9000
001CA3D800
0078001B20
0000000000
0000000000
002AEFD810
04E9214DC1
1EA00002F7
6F300000DB
9FFFFFFFFB
9F20000000
6F50000000
1ED1000000
04EC4125B1
0029DFEC71
ENDCHAR
STARTCHAR edieresis
ENCODING 235
SWIDTH 600 0
DWIDTH 12 0
BBX 10 14 1 0
BITMAP
007E409E30
008E409E30
0000000000
0000000000
002AEFD810
04E9214DC1
1EA00002F7
6F300000DB
9FFFFFFFFB
9F20000000
6F50000000
1ED1000000
04EC4125B1
0029DFEC71
ENDCHAR
STARTCHAR igrave
ENCODING 236
SWIDTH 600 0
DWIDTH 12 0
BBX 8 15 1 0
BITMAP
0003B100
0005FB00
00004E90
000003B1
00000000
3FFFFFE0
00000AE0
00000AE0
00000AE0
00000AE0
00000AE0
00000AE0
00000AE0
00000AE0
00000AE0
ENDCHAR
STARTCHAR iacute
ENCODING 237
SWIDTH 600 0
DWIDTH 12 0
BBX 9 15 1 0
BITMAP
0000001B20
000001CE40
00000AE300
00001C3000
0000000000
3FFFFFE000
00000AE000
00000AE000
00000AE000
00000AE000
00000AE000
00000AE000
00000AE000
00000AE000
00000AE000
ENDCHAR
STARTCHAR icircumflex
ENCODING 238
SWIDTH 600 0
DWIDTH 12 0
BBX 9 15 1 0
BITMAP
00005FF400
0004E67E30
000B3004B0
0000000000
0000000000
3FFFFFE000
00000AE000
00000AE000
00000AE000
00000AE000
00000AE000
00000AE000
00000AE000
00000AE000
00000AE000
ENDCHAR
STARTCHAR idieresis
ENCODING 239
SWIDTH 600 0
DWIDTH 12 0
BBX 9 14 1 0
BITMAP
000CC01DB0
000CD01DB0
0000000000
0000000000
3FFFFFE000
00000AE000
00000AE000
00000AE000
00000AE000
00000AE000
00000AE000
00000AE000
00000AE000
00000AE000
ENDCHAR
STARTCHAR eth
ENCODING 240
SWIDTH 600 0
DWIDTH 12 0
BBX 10 14 1 0
BITMAP
005C400380
0029FAAF91
0004CFF400
00AE82CD10
0031002E90
007DFD78F1
0BE5116BF6
6F400003F9
BD000000DA
CB000000EA
AD000001F8
4F500008F2
09E6117F70
005CEEC500
ENDCHAR
STARTCHAR ntilde
ENCODING 241
SWIDTH 600 0
DWIDTH 12 0
BBX 10 15 1 0
BITMAP
0016500240
00BBBB29A0
00D208ED20
0000000000
0000000000
2F42AEEB20
2F8C413DD0
2FC10006F4
2F800003F6
2F800003F7
2F800003F7
2F800003F7
2F800003F7
2F800003F7
2F800003F7
ENDCHAR
STARTCHAR ograve
ENCODING 242
SWIDTH 600 0
DWIDTH 12 0
BBX 10 15 1 0
BITMAP
003B100000
004FB00000
0004EA0000
00003C1000
0000000000
005BEEB500
07F8118F70
3F800008F3
9F200002F9
BF000000FB
BF000000FB
9F200002F9
3F800008F3
08F7117F80
005BEEB500
ENDCHAR
STARTCHAR oacute
ENCODING 243
SWIDTH 600 0
DWIDTH 12 0
BBX 10 15 1 0
BITMAP
000001B300
00000BF400
0000AE4000
0001C30000
0000000000
005BEEB500
07F8118F70
3F800008F3
9F200002F9
BF000000FB
BF000000FB
9F200002F9
3F800008F3
08F7117F80
005BEEB500
ENDCHAR
STARTCHAR ocircumflex
ENCODING 244
SWIDTH 600 0
DWIDTH 12 0
BBX 10 15 1 0
BITMAP
0004FF4000
004E66E400
00B4004B00
0000000000
0000000000
005BEEB500
07F8118F70
3F800008F3
9F200002F9
BF000000FB
BF000000FB
9F200002F9
3F800008F3
08F7117F80
005BEEB500
ENDCHAR
STARTCHAR otilde
ENCODING 245
SWIDTH 600 0
DWIDTH 12 0
BBX 10 15 1 0
BITMAP
0026300420
02E9D71D50
05A02BEA00
0000000000
0000000000
005BEEB500
07F8118F70
3F800008F3
9F200002F9
BF000000FB
BF000000FB
9F200002F9
3F800008F3
08F7117F80
005BEEB500
ENDCHAR
STARTCHAR odieresis
ENCODING 246
SWIDTH 600 0
DWIDTH 12 0
BBX 10 14 1 0
BITMAP
00CD11DC00
00CD11DC00
0000000000
0000000000
005BEEB500
07F8118F70
3F800008F3
9F200002F9
BF000000FB
BF000000FB
9F200002F9
3F800008F3
08F7117F80
005BEEB500
ENDCHAR
STARTCHAR divide
ENCODING 247
SWIDTH 600 0
DWIDTH 12 0
BBX 10 9 1 2
BITMAP
0000CC0000
0000CC0000
0000000000
0000000000
4FFFFFFFF4
0000000000
0000000000
0000CC0000
0000CC0000
ENDCHAR
STARTCHAR oslash
ENCODING 248
SWIDTH 600 0
DWIDTH 12 0
BBX 10 12 1 -1
BITMAP
0000000020
005BEEB5D8
07F712AFD1
3F8000AFF2
9F2008E5F9
BE006F40FB
BE04F600EB
9F5E8002F9
3FFA0008F3
1DFA217F80
8D5BEEB500
0200000000
ENDCHAR
STARTCHAR ugrave
ENCODING 249
SWIDTH 600 0
DWIDTH 12 0
BBX 10 15 1 0
BITMAP
004B000000
005FA00000
0005F80000
00004B1000
0000000000
7F300008F1
7F300008F1
7F300008F1
7F300008F1
7F300008F1
7F300008F1
6F400008F1
4F60001DF1
0DD314C8F1
02BEEA24F1
ENDCHAR
STARTCHAR uacute
ENCODING 250
SWIDTH 600 0
DWIDTH 12 0
BBX 10 15 1 0
BITMAP
000001B200
00001CE400
0000BE3000
0002C20000
0000000000
7F300008F1
7F300008F1
7F300008F1
7F300008F1
7F300008F1
7F300008F1
6F400008F1
4F60001DF1
0DD314C8F1
02BEEA24F1
ENDCHAR
STARTCHAR ucircumflex
ENCODING 251
SWIDTH 600 0
DWIDTH 12 0
BBX 10 15 1 0
BITMAP
0005FE4000
005E57E300
00B3005A00
0000000000
0000000000
7F300008F1
7F300008F1
7F300008F1
7F300008F1
7F300008F1
7F300008F1
6F400008F1
4F60001DF1
0DD314C8F1
02BEEA24F1
ENDCHAR
STARTCHAR udieresis
ENCODING 252
SWIDTH 600 0
DWIDTH 12 0
BBX 10 14 1 0
BITMAP
00DC01DB00
00DC01EB00
0000000000
0000000000
7F300008F1
7F300008F1
7F300008F1
7F300008F1
7F300008F1
7F300008F1
6F400008F1
4F60001DF1
0DD314C8F1
02BEEA24F1
ENDCHAR
STARTCHAR yacute
ENCODING 253
SWIDTH 600 0
DWIDTH 12 0
BBX 10 19 1 -4
BITMAP
000000B400
00000AF500
00009F5000
0001B40000
0000000000
CD000000BC
4F400002F6
0CB00008E1
05F3000D90
00C9004F30
005F10AC00
000C71F600
0005D7E100
0000DE9000
00009F3000
0000DB0000
0005F50000
004EA00000
7FD7000000
ENDCHAR
STARTCHAR thorn
ENCODING 254
SWIDTH 600 0
DWIDTH 12 0
BBX 10 18 1 -4
BITMAP
2F80000000
2F80000000
2F80000000
2F70000000
2F74CEE910
2FDA304EC0
2F900006F6
2F800001FA
2F800000EC
2F800000FB
2F800002F9
2F800009F3
2FE8217F80
2F76DFC600
2F70000000
2F80000000
2F80000000
2F80000000
ENDCHAR
STARTCHAR ydieresis
ENCODING 255
SWIDTH 600 0
DWIDTH 12 0
BBX 10 18 1 -4
BITMAP
00BD10CD00
00BD10CD00
0000000000
0000000000
CD000000BC
4F400002F6
0CB00008E1
05F3000D90
00C9004F30
005F10AC00
000C71F600
0005D7E100
0000DE9000
00009F3000
0000DB0000
0005F50000
004EA00000
7FD7000000
ENDCHAR
STARTCHAR Amacron
ENCODING 256
SWIDTH 600 0
DWIDTH 12 0
BBX 12 16 0 0
BITMAP
000AFFFFA000
000000000000
000000000000
00002FF20000
00007EE70000
0000C9AC0000
0002F56F2000
0007F12F7000
000CB00CC000
002F7008F200
007F2003F700
00CFFFFFFC00
03F700007F20
08F200003F80
0DC000000DD0
3F80000008F3
ENDCHAR
STARTCHAR amacron
ENCODING 257
SWIDTH 600 0
DWIDTH 12 0
BBX 10 13 1 0
BITMAP
004FFFFF10
0000000000
0000000000
028CEFD800
0AB4117F80
0000000AF1
00000006F3
00159BDFF4
06EC7425F4
3F900005F4
5F400007F4
2EB203ABF4
03BEEA31F4
ENDCHAR
STARTCHAR Abreve
ENCODING 258
SWIDTH 600 0
DWIDTH 12 0
BBX 12 17 0 0
BITMAP
000B3003B000
0007C22C7000
00009EE90000
000000000000
00002FF20000
00007EE70000
0000C9AC0000
0002F56F2000
0007F12F7000
000CB00CC000
002F7008F200
007F2003F700
00CFFFFFFC00
03F700007F20
08F200003F80
0DC000000DD0
3F80000008F3
ENDCHAR
STARTCHAR abreve
ENCODING 259
SWIDTH 600 0
DWIDTH 12 0
BBX 10 15 1 0
BITMAP
0011000100
0098000A60
004E416E20
0005DEC300
0000000000
028CEFD800
0AB4117F80
0000000AF1
00000006F3
00159BDFF4
06EC7425F4
3F900005F4
5F400007F4
2EB203ABF4
03BEEA31F4
ENDCHAR
STARTCHAR Aogonek
ENCODING 260
SWIDTH 600 0
DWIDTH 12 0
BBX 12 17 0 -4
BITMAP
00002FF20000
00007EE70000
0000C9AC0000
0002F56F2000
0007F12F7000
000CB00CC000
002F7008F200
007F2003F700
00CFFFFFFC00
03F700007F20
08F200003F80
0DC000000DD0
3F80000008F3
000000000A91
000000008B00
00000000BB13
000000004DEB
ENDCHAR
STARTCHAR aogonek
ENCODING 261
SWIDTH 600 0
DWIDTH 12 0
BBX 10 14 1 -4
BITMAP
028CEFD800
0AB4117F80
0000000AF1
00000006F3
00159BDFF4
06EC7425F4
3F900005F4
5F400007F4
2EB203AEF4
03BEEC72F4
0000001960
000000A700
000000D813
0000006EE9
ENDCHAR
STARTCHAR Cacute
ENCODING 262
SWIDTH 600 0
DWIDTH 12 0
BBX 10 17 1 0
BITMAP
0000004B10
000007F810
00002C4000
0000000000
0006BEFD82
01BE6115D6
09F3000010
2F90000000
7F40000000
9F10000000
AF00000000
9F10000000
7F40000000
2F90000000
09F3000012
01BE6114DC
0006CEFD81
ENDCHAR
STARTCHAR cacute
ENCODING 263
SWIDTH 600 0
DWIDTH 12 0
BBX 10 15 1 0
BITMAP
0000001B20
000001CE40
00000BE300
00002C2000
0000000000
0017CEFC81
02DE5115D3
0BF2000000
3F90000000
5F50000000
5F50000000
3F80000000
0CE2000000
02DE5114D8
0018DFEC71
ENDCHAR
STARTCHAR Ccircumflex
ENCODING 264
SWIDTH 600 0
DWIDTH 12 0
BBX 10 17 1 0
BITMAP
00006FF400
0004E57E20
000B400690
0000000000
0006BEFD82
01BE6115D6
09F3000010
2F90000000
7F40000000
9F10000000
AF00000000
9F10000000
7F40000000
2F90000000
09F3000012
01BE6114DC
0006CEFD81
ENDCHAR
STARTCHAR ccircumflex
ENCODING 265
SWIDTH 600 0
DWIDTH 12 0
BBX 10 15 1 0
BITMAP
00005FE400
0005E57E30
000B3005A0
0000000000
0000000000
0017CEFC81
02DE5115D3
0BF2000000
3F90000000
5F50000000
5F50000000
3F80000000
0CE2000000
02DE5114D8
0018DFEC71
ENDCHAR
STARTCHAR Cdotaccent
ENCODING 266
SWIDTH 600 0
DWIDTH 12 0
BBX 10 16 1 0
BITMAP
00002DC000
00002DC000
0000000000
0006BEFD82
01BE6115D6
09F3000010
2F90000000
7F40000000
9F10000000
AF00000000
9F10000000
7F40000000
2F90000000
09F3000012
01BE6114DC
0006CEFD81
ENDCHAR
STARTCHAR cdotaccent
ENCODING 267
SWIDTH 600 0
DWIDTH 12 0
BBX 10 15 1 0
BITMAP
00002DC000
00005FF300
00002DC000
0000000000
0000000000
0017CEFC81
02DE5115D3
0BF2000000
3F90000000
5F50000000
5F50000000
3F80000000
0CE2000000
02DE5114D8
0018DFEC71
ENDCHAR
STARTCHAR Ccaron
ENCODING 268
SWIDTH 600 0
DWIDTH 12 0
BBX 10 17 1 0
BITMAP
000B400690
0004E57E20
00006FF400
0000000000
0006BEFD82
01BE6115D6
09F3000010
2F90000000
7F40000000
9F10000000
AF00000000
9F10000000
7F40000000
2F90000000
09F3000012
01BE6114DC
0006CEFD81
ENDCHAR
STARTCHAR ccaron
ENCODING 269
SWIDTH 600 0
DWIDTH 12 0
BBX 10 15 1 0
BITMAP
000B3005A0
0005E57E30
00005FE400
0000000000
0000000000
0017CEFC81
02DE5115D3
0BF2000000
3F90000000
5F50000000
5F50000000
3F80000000
0CE2000000
02DE5114D8
0018DFEC71
ENDCHAR
STARTCHAR Dcaron
ENCODING 270
SWIDTH 600 0
DWIDTH 12 0
BBX 11 17 1 0
BITMAP
00A5005A0000
003E66E30000
0005FF400000
000000000000
4FFFED920000
4F6014BE5000
4F60000BE200
4F600002F900
4F600000DD00
4F600000BF00
4F600000AF10
4F600000BF00
4F600000DC00
4F600003F800
4F60000BE200
4F6014BE4000
4FFFFD920000
ENDCHAR
STARTCHAR dcaron
ENCODING 271
SWIDTH 600 0
DWIDTH 12 0
BBX 12 16 1 0
BITMAP
0000000001F6
0000000001F5
0000000F91F4
0000000F91F3
0000000F91F2
0000000F9000
008DFB3E9000
0BE503BF9000
6F50000F9000
BE00000F9000
DC00000F9000
DB00000F9000
CD00000F9000
7F30002F9000
1DD304CE9000
02AEEA1B9000
ENDCHAR
STARTCHAR Dcroat
ENCODING 272
SWIDTH 600 0
DWIDTH 12 0
BBX 12 13 0 0
BITMAP
04FFFED92000
04F6014BE500
04F60000BE20
04F600003F90
04F600000DD0
04F600000BF0
BFFFFF400BF1
04F600000BF0
04F600000EC0
04F600003F80
04F60000CE20
04F6014CE400
04FFFFD92000
ENDCHAR
STARTCHAR dcroat
ENCODING 273
SWIDTH 600 0
DWIDTH 12 0
BBX 11 14 1 0
BITMAP
00000008F200
00000008F200
0000FFFFFF80
00000008F200
00000007F200
007DFD67F200
0AF7116DF200
5F700008F200
AF100008F200
CE000008F200
BF100008F200
7F500009F200
1DE5129DF200
019EFC54F200
ENDCHAR
STARTCHAR Emacron
ENCODING 274
SWIDTH 600 0
DWIDTH 12 0
BBX 9 16 2 0
BITMAP
01FFFFF500
0000000000
0000000000
BFFFFFFF60
BE00000000
BE00000000
BE00000000
BE00000000
BE00000000
BFFFFFF600
BE00000000
BE00000000
BE00000000
BE00000000
BE00000000
BFFFFFFF90
ENDCHAR
STARTCHAR emacron
ENCODING 275
SWIDTH 600 0
DWIDTH 12 0
BBX 10 13 1 0
BITMAP
005FFFFF00
0000000000
0000000000
002AEFD810
04E9214DC1
1EA00002F7
6F300000DB
9FFFFFFFFB
9F20000000
6F50000000
1ED1000000
04EC4125B1
0029DFEC71
ENDCHAR
STARTCHAR Ebreve
ENCODING 276
SWIDTH 600 0
DWIDTH 12 0
BBX 9 17 2 0
BITMAP
03C0009600
00D714E200
002BED5000
0000000000
BFFFFFFF60
BE00000000
BE00000000
BE00000000
BE00000000
BE00000000
BFFFFFF600
BE00000000
BE00000000
BE00000000
BE00000000
BE00000000
BFFFFFFF90
ENDCHAR
STARTCHAR ebreve
ENCODING 277
SWIDTH 600 0
DWIDTH 12 0
BBX 10 15 1 0
BITMAP
0010000100
00B6000C50
005E417E10
0007DEB300
0000000000
002AEFD810
04E9214DC1
1EA00002F7
6F300000DB
9FFFFFFFFB
9F20000000
6F50000000
1ED1000000
04EC4125B1
0029DFEC71
ENDCHAR
STARTCHAR Edotaccent
ENCODING 278
SWIDTH 600 0
DWIDTH 12 0
BBX 9 16 2 0
BITMAP
0005E80000
0005E80000
0000000000
BFFFFFFF60
BE00000000
BE00000000
BE00000000
BE00000000
BE00000000
BFFFFFF600
BE00000000
BE00000000
BE00000000
BE00000000
BE00000000
BFFFFFFF90
ENDCHAR
STARTCHAR edotaccent
ENCODING 279
SWIDTH 600 0
DWIDTH 12 0
BBX 10 15 1 0
BITMAP
00009E4000
0000EF9000
00009E4000
0000000000
0000000000
002AEFD810
04E9214DC1
1EA00002F7
6F300000DB
9FFFFFFFFB
9F20000000
6F50000000
1ED1000000
04EC4125B1
0029DFEC71
ENDCHAR
STARTCHAR Eogonek
ENCODING 280
SWIDTH 600 0
DWIDTH 12 0
BBX 9 17 2 -4
BITMAP
BFFFFFFF60
BF00000000
BF00000000
BF00000000
BF00000000
BF00000000
BFFFFFF600
BF00000000
BF00000000
BF00000000
BF00000000
BF00000000
BFFFFFFF90
000001A710
0000099000
00000BA130
000005DEA0
ENDCHAR
STARTCHAR eogonek
ENCODING 281
SWIDTH 600 0
DWIDTH 12 0
BBX 10 14 1 -4
BITMAP
002AEFD810
04E9214DC1
1EA00002F7
6F300000DB
9FFFFFFFFB
9F20000000
6F50000000
1ED1000000
04EC4125B1
0029DFEFB1
000001B700
000007B000
000009C130
000002CEC1
ENDCHAR
STARTCHAR Ecaron
ENCODING 282
SWIDTH 600 0
DWIDTH 12 0
BBX 9 17 2 0
BITMAP
02C200A400
008D3BB000
000AFD1000
0000000000
BFFFFFFF60
BE00000000
BE00000000
BE00000000
BE00000000
BE00000000
BFFFFFF600
BE00000000
BE00000000
BE00000000
BE00000000
BE00000000
BFFFFFFF90
ENDCHAR
STARTCHAR ecaron
ENCODING 283
SWIDTH 600 0
DWIDTH 12 0
BBX 10 15 1 0
BITMAP
0078001B20
001CA3D800
0002DF9000
0000000000
0000000000
002AEFD810
04E9214DC1
1EA00002F7
6F300000DB
9FFFFFFFFB
9F20000000
6F50000000
1ED1000000
04EC4125B1
0029DFEC71
ENDCHAR
STARTCHAR Gcircumflex
ENCODING 284
SWIDTH 600 0
DWIDTH 12 0
BBX 10 17 1 0
BITMAP
0000AFC100
0008D3BB00
002B100A40
0000000000
0018CEEC70
02DD4116E3
0DD1000010
6F50000000
AF10000000
DD00000000
EC00000000
DD0008FFFA
BF000000DA
6F500000DA
0DD10000DA
03EC4126E9
0018DFEC60
ENDCHAR
STARTCHAR gcircumflex
ENCODING 285
SWIDTH 600 0
DWIDTH 12 0
BBX 11 19 1 -4
BITMAP
0003EF600000
002E85E50000
00A5003C1000
000000000000
000000000000
004BEFFFFF40
05F812CE2000
0DB0002F7000
0F90000F8000
0CD0004F4000
02EC67E90000
06D798400000
0E7000000000
0AC200000000
05FEFFFEC600
4F4000019F30
8E0000007F30
3F931138F900
03ADEECA4000
ENDCHAR
STARTCHAR Gbreve
ENCODING 286
SWIDTH 600 0
DWIDTH 12 0
BBX 10 17 1 0
BITMAP
003C000950
000D714E20
0003CEC400
0000000000
0018CEEC70
02DD4116E3
0DD1000010
6F50000000
AF10000000
DD00000000
EC00000000
DD0008FFFA
BF000000DA
6F500000DA
0DD10000DA
03EC4126E9
0018DFEC60
ENDCHAR
STARTCHAR gbreve
ENCODING 287
SWIDTH 600 0
DWIDTH 12 0
BBX 11 19 1 -4
BITMAP
001000010000
00D4000E2000
008C219C0000
0008DEA20000
000000000000
004BEFFFFF40
05F812CE2000
0DB0002F7000
0F90000F8000
0CD0004F4000
02EC67E90000
06D798400000
0E7000000000
0AC200000000
05FEFFFEC600
4F4000019F30
8E0000007F30
3F931138F900
03ADEECA4000
ENDCHAR
STARTCHAR Gdotaccent
ENCODING 288
SWIDTH 600 0
DWIDTH 12 0
BBX 10 16 1 0
BITMAP
00005E8000
00005E8000
0000000000
0018CEEC70
02DD4116E3
0DD1000010
6F50000000
AF10000000
DD00000000
EC00000000
DD0008FFFA
BF000000DA
6F500000DA
0DD10000DA
03EC4126E9
0018DFEC60
ENDCHAR
STARTCHAR gdotaccent
ENCODING 289
SWIDTH 600 0
DWIDTH 12 0
BBX 11 19 1 -4
BITMAP
0000BD200000
0002FF600000
0000BD200000
000000000000
000000000000
004BEFFFFF40
05F812CE2000
0DB0002F7000
0F90000F8000
0CD0004F4000
02EC67E90000
06D798400000
0E7000000000
0AC200000000
05FEFFFEC600
4F4000019F30
8E0000007F30
3F931138F900
03ADEECA4000
ENDCHAR
STARTCHAR uni0122
ENCODING 290
SWIDTH 600 0
DWIDTH 12 0
BBX 10 18 1 -5
BITMAP
0018CEEC70
02DD4116E3
0DD1000010
6F50000000
AF10000000
DD00000000
EC00000000
DD0008FFFA
BF000000DA
6F500000DA
0DD10000DA
03EC4126E9
0018DFEC60
0000000000
00005D6000
000006F100
000028E000
0003EB3000
ENDCHAR
STARTCHAR uni0123
ENCODING 291
SWIDTH 600 0
DWIDTH 12 0
BBX 11 19 1 -4
BITMAP
00005BD00000
0004F5100000
0005E3000000
00009E200000
000000000000
004BEFFFFF40
05F812CE2000
0DB0002F7000
0F90000F8000
0CD0004F4000
02EC67E90000
06D798400000
0E7000000000
0AC200000000
05FEFFFEC600
4F4000019F30
8E0000007F30
3F931138F900
03ADEECA4000
ENDCHAR
STARTCHAR Hcircumflex
ENCODING 292
SWIDTH 600 0
DWIDTH 12 0
BBX 10 17 1 0
BITMAP
0004FF4000
003E66E300
00A5005A00
0000000000
6F400004F6
6F400004F6
6F400004F6
6F400004F6
6F400004F6
6F400004F6
6FFFFFFFF6
6F400004F6
6F400004F6
6F400004F6
6F400004F6
6F400004F6
6F400004F6
ENDCHAR
STARTCHAR hcircumflex
ENCODING 293
SWIDTH 600 0
DWIDTH 12 0
BBX 12 18 -1 0
BITMAP
00AFD1000000
08D3BB000000
1C200A500000
000000000000
002F80000000
002F80000000
002F80000000
002F70000000
002F72AEEB20
002F9C413DD0
002FC10006F4
002F800003F6
002F800003F7
002F800003F7
002F800003F7
002F800003F7
002F800003F7
002F800003F7
ENDCHAR
STARTCHAR Hbar
ENCODING 294
SWIDTH 600 0
DWIDTH 12 0
BBX 12 13 0 0
BITMAP
06F400004F60
06F400004F60
BFFFFFFFFFFC
06F400004F60
06F400004F60
06F400004F60
06FFFFFFFF60
06F400004F60
06F400004F60
06F400004F60
06F400004F60
06F400004F60
06F400004F60
ENDCHAR
STARTCHAR hbar
ENCODING 295
SWIDTH 600 0
DWIDTH 12 0
BBX 11 14 0 0
BITMAP
02F800000000
02F800000000
8FFFFFFC0000
02F800000000
02F700000000
02F72AEEB300
02F9B413DD10
02FB10005F40
02F800003F60
02F800003F70
02F800003F70
02F800003F70
02F800003F70
02F800003F70
ENDCHAR
STARTCHAR Itilde
ENCODING 296
SWIDTH 600 0
DWIDTH 12 0
BBX 10 16 1 0
BITMAP
01BEC51B60
06B15CEB10
0000000000
1FFFFFFFF1
0000DD0000
0000DD0000
0000DD0000
0000DD0000
0000DD0000
0000DD0000
0000DD0000
0000DD0000
0000DD0000
0000DD0000
0000DD0000
1FFFFFFFF1
ENDCHAR
STARTCHAR itilde
ENCODING 297
SWIDTH 600 0
DWIDTH 12 0
BBX 10 15 1 0
BITMAP
0003630042
002E9E71E4
006A02BE90
0000000000
0000000000
3FFFFFE000
00000AE000
00000AE000
00000AE000
00000AE000
00000AE000
00000AE000
00000AE000
00000AE000
00000AE000
ENDCHAR
STARTCHAR Imacron
ENCODING 298
SWIDTH 600 0
DWIDTH 12 0
BBX 10 16 1 0
BITMAP
00AFFFFA00
0000000000
0000000000
1FFFFFFFF1
0000DD0000
0000DD0000
0000DD0000
0000DD0000
0000DD0000
0000DD0000
0000DD0000
0000DD0000
0000DD0000
0000DD0000
0000DD0000
1FFFFFFFF1
ENDCHAR
STARTCHAR imacron
ENCODING 299
SWIDTH 600 0
DWIDTH 12 0
BBX 9 13 1 0
BITMAP
000BFFFF90
0000000000
0000000000
3FFFFFE000
00000AE000
00000AE000
00000AE000
00000AE000
00000AE000
00000AE000
00000AE000
00000AE000
00000AE000
ENDCHAR
STARTCHAR Ibreve
ENCODING 300
SWIDTH 600 0
DWIDTH 12 0
BBX 10 17 1 0
BITMAP
00B3003B00
007C22C700
0009EE9000
0000000000
1FFFFFFFF1
0000DD0000
0000DD0000
0000DD0000
0000DD0000
0000DD0000
0000DD0000
0000DD0000
0000DD0000
0000DD0000
0000DD0000
0000DD0000
1FFFFFFFF1
ENDCHAR
STARTCHAR ibreve
ENCODING 301
SWIDTH 600 0
DWIDTH 12 0
BBX 9 15 1 0
BITMAP
0001000010
001F1002E0
000BA22C90
0001AEE910
0000000000
3FFFFFE000
00000AE000
00000AE000
00000AE000
00000AE000
00000AE000
00000AE000
00000AE000
00000AE000
00000AE000
ENDCHAR
STARTCHAR Iogonek
ENCODING 302
SWIDTH 600 0
DWIDTH 12 0
BBX 10 17 1 -4
BITMAP
1FFFFFFFF1
0000DD0000
0000DD0000
0000DD0000
0000DD0000
0000DD0000
0000DD0000
0000DD0000
0000DD0000
0000DD0000
0000DD0000
0000DD0000
1FFFFFFFF1
0001C50000
0009900000
000CA13000
0005DEA000
ENDCHAR
STARTCHAR iogonek
ENCODING 303
SWIDTH 600 0
DWIDTH 12 0
BBX 8 19 1 -4
BITMAP
00001DC1
00005FF3
00001DC1
00000000
00000000
3FFFFFE0
00000AE0
00000AE0
00000AE0
00000AE0
00000AE0
00000AE0
00000AE0
00000AE0
00000AE0
00002B40
0000C500
0000E713
00007EE8
ENDCHAR
STARTCHAR Idotaccent
ENCODING 304
SWIDTH 600 0
DWIDTH 12 0
BBX 10 16 1 0
BITMAP
0001DD1000
0001DD1000
0000000000
1FFFFFFFF1
0000DD0000
0000DD0000
0000DD0000
0000DD0000
0000DD0000
0000DD0000
0000DD0000
0000DD0000
0000DD0000
0000DD0000
0000DD0000
1FFFFFFFF1
ENDCHAR
STARTCHAR dotlessi
ENCODING 305
SWIDTH 600 0
DWIDTH 12 0
BBX 7 10 1 0
BITMAP
3FFFFFE0
00000AE0
00000AE0
00000AE0
00000AE0
00000AE0
00000AE0
00000AE0
00000AE0
00000AE0
ENDCHAR
STARTCHAR IJ
ENCODING 306
SWIDTH 600 0
DWIDTH 12 0
BBX 8 16 2 -3
BITMAP
CE0000EC
CE0000EC
CE0000EC
CE0000EC
CE0000EC
CE0000EC
CE0000EC
CE0000EC
CE0000EC
CE0000EC
CE0000EC
CE0000EC
CE0000EB
000000EA
000014F6
0004FE90
ENDCHAR
STARTCHAR ij
ENCODING 307
SWIDTH 600 0
DWIDTH 12 0
BBX 10 18 1 -4
BITMAP
1CD2000AE4
1DE2000AE4
0000000000
0000000000
0CD00008F1
0CD00008F1
0CD00008F1
0CD00008F1
0CD00008F1
0CD00008F1
0CD00008F1
0CD00008F1
0CD00008F1
0CD00008F1
00000008F1
00000009F0
0000011DB0
00000CEC20
ENDCHAR
STARTCHAR Jcircumflex
ENCODING 308
SWIDTH 600 0
DWIDTH 12 0
BBX 9 17 1 0
BITMAP
0000CFB000
000AC3C900
003B101B30
0000000000
04FFFFFFD0
0000000CD0
0000000CD0
0000000CD0
0000000CD0
0000000CD0
0000000CD0
0000000CD0
0000000CD0
0000000DB0
0700002F90
2EB313BE20
03AEFEA200
ENDCHAR
STARTCHAR jcircumflex
ENCODING 309
SWIDTH 600 0
DWIDTH 12 0
BBX 9 19 1 -4
BITMAP
00005FF400
0004E67E30
000B3004B0
0000000000
0000000000
3FFFFFE000
00000AE000
00000AE000
00000AE000
00000AE000
00000AE000
00000AE000
00000AE000
00000AE000
00000AE000
00000BD000
00000DB000
43118F5000
8DEEC50000
ENDCHAR
STARTCHAR uni0136
ENCODING 310
SWIDTH 600 0
DWIDTH 12 0
BBX 11 18 1 -5
BITMAP
1FA00003FA00
1FA0002EC100
1FA001DE2000
1FA00BE30000
1FA09F500000
1FA7FF400000
1FDFADD00000
1FFB05F60000
1FD100CE1000
1FA0004F9000
1FA0000AF300
1FA00002FB00
1FA000008F50
000000000000
00003D800000
000004F40000
000016F20000
0001EB500000
ENDCHAR
STARTCHAR uni0137
ENCODING 311
SWIDTH 600 0
DWIDTH 12 0
BBX 10 19 2 -5
BITMAP
DC00000000
DC00000000
DC00000000
DC00000000
DC00006F70
DC0005F900
DC005FA000
DC04FB0000
DC4EF50000
DEEBBE2000
DFA01DC000
DD0004F900
DC00007F50
DC00000BE2
0000000000
0004D70000
00004F3000
00017F2000
002EB40000
ENDCHAR
STARTCHAR kgreenlandic
ENCODING 312
SWIDTH 600 0
DWIDTH 12 0
BBX 10 10 2 0
BITMAP
DC00006F70
DC0006F700
DC007F8000
DC07F80000
DC7FF70000
DEF99F3000
DF901DD100
DC0003FA00
DC00007F60
DC00000BE2
ENDCHAR
STARTCHAR Lacute
ENCODING 313
SWIDTH 600 0
DWIDTH 12 0
BBX 9 17 2 0
BITMAP
005B100000
08F7000000
3C30000000
0000000000
5F50000000
5F50000000
5F50000000
5F50000000
5F50000000
5F50000000
5F50000000
5F50000000
5F50000000
5F50000000
5F50000000
5F50000000
5FFFFFFFC0
ENDCHAR
STARTCHAR lacute
ENCODING 314
SWIDTH 600 0
DWIDTH 12 0
BBX 10 18 1 0
BITMAP
000006A000
00009E6000
0004B20000
0000000000
8FFFF90000
0001F90000
0001F90000
0001F90000
0001F90000
0001F90000
0001F90000
0001F90000
0001F90000
0001F90000
0001F90000
0000EA0000
00009E4022
000019EFD6
ENDCHAR
STARTCHAR uni013B
ENCODING 315
SWIDTH 600 0
DWIDTH 12 0
BBX 9 18 2 -5
BITMAP
5F50000000
5F50000000
5F50000000
5F50000000
5F50000000
5F50000000
5F50000000
5F50000000
5F50000000
5F50000000
5F50000000
5F50000000
5FFFFFFFC0
0000000000
0000DA1000
00002D7000
00014E5000
000CC70000
ENDCHAR
STARTCHAR uni013C
ENCODING 316
SWIDTH 600 0
DWIDTH 12 0
BBX 10 19 1 -5
BITMAP
8FFFF90000
0001F90000
0001F90000
0001F90000
0001F90000
0001F90000
0001F90000
0001F90000
0001F90000
0001F90000
0001F90000
0000EA0000
00009E4022
000019EFD6
0000000000
000004D700
0000004F30
0000017F20
00002EB400
ENDCHAR
STARTCHAR Lcaron
ENCODING 317
SWIDTH 600 0
DWIDTH 12 0
BBX 9 15 2 0
BITMAP
000006F100
000006F100
5F5006F000
5F5006E000
5F5006C000
5F50000000
5F50000000
5F50000000
5F50000000
5F50000000
5F50000000
5F50000000
5F50000000
5F50000000
5FFFFFFFC0
ENDCHAR
STARTCHAR lcaron
ENCODING 318
SWIDTH 600 0
DWIDTH 12 0
BBX 10 16 1 0
BITMAP
0000000F80
0000000F70
8FFFF90E60
0001F90E50
0001F90E40
0001F90000
0001F90000
0001F90000
0001F90000
0001F90000
0001F90000
0001F90000
0001F90000
0000EA0000
00009E4022
000019EFD6
ENDCHAR
STARTCHAR Ldot
ENCODING 319
SWIDTH 600 0
DWIDTH 12 0
BBX 9 13 2 0
BITMAP
5F50000000
5F50000000
5F50000000
5F50000000
5F50009E40
5F5000EF90
5F50009E40
5F50000000
5F50000000
5F50000000
5F50000000
5F50000000
5FFFFFFFC0
ENDCHAR
STARTCHAR ldot
ENCODING 320
SWIDTH 600 0
DWIDTH 12 0
BBX 13 14 0 0
BITMAP
4FFFFC00000000
0000CC00000000
0000CC00000000
0000CC00000000
0000CC00000000
0000CC00008E50
0000CC0000EFA0
0000CC00008E50
0000CC00000000
0000CC00000000
0000CC00000000
0000BD00000000
00006F61230000
000007DFE90000
ENDCHAR
STARTCHAR Lslash
ENCODING 321
SWIDTH 600 0
DWIDTH 12 0
BBX 11 13 0 0
BITMAP
005F50000000
005F50000000
005F50000000
005F50000000
005F50038000
005F52AFA000
005FBFB30000
05DFC4000000
8EBF50000000
215F50000000
005F50000000
005F50000000
005FFFFFFFC0
ENDCHAR
STARTCHAR lslash
ENCODING 322
SWIDTH 600 0
DWIDTH 12 0
BBX 10 14 1 0
BITMAP
8FFFF90000
0001F90000
0001F90000
0001F90020
0001F93BD0
0002FEFA20
006EFC3000
09E7F90000
0211F90000
0001F90000
0001F90000
0000EA0000
00009E4022
000019EFD6
ENDCHAR
STARTCHAR Nacute
ENCODING 323
SWIDTH 600 0
DWIDTH 12 0
BBX 10 17 1 0
BITMAP
000002B400
00004EB200
0000B60000
0000000000
5FB00004F5
5FF40004F5
5FCC0004F5
5F6F4004F5
5F2DC004F5
5F35F504F5
5F30CC03F5
5F405F53F5
5F400CD3F5
5F4004F6F5
5F4000CCF5
5F40004FF5
5F40000BF5
ENDCHAR
STARTCHAR nacute
ENCODING 324
SWIDTH 600 0
DWIDTH 12 0
BBX 10 15 1 0
BITMAP
0000008700
000006F900
00005F8000
0000870000
0000000000
2F42AEEB20
2F8C413DD0
2FC10006F4
2F800003F6
2F800003F7
2F800003F7
2F800003F7
2F800003F7
2F800003F7
2F800003F7
ENDCHAR
STARTCHAR uni0145
ENCODING 325
SWIDTH 600 0
DWIDTH 12 0
BBX 10 18 1 -5
BITMAP
5FB00004F5
5FF40004F5
5FCC0004F5
5F6F4004F5
5F2DC004F5
5F35F504F5
5F30CC03F5
5F405F53F5
5F400CD3F5
5F4004F6F5
5F4000CCF5
5F40004FF5
5F40000BF5
0000000000
0000DA1000
00002D7000
00014E6000
000CC70000
ENDCHAR
STARTCHAR uni0146
ENCODING 326
SWIDTH 600 0
DWIDTH 12 0
BBX 10 15 1 -5
BITMAP
2F42AEEB20
2F8C413DD0
2FC10006F4
2F800003F6
2F800003F7
2F800003F7
2F800003F7
2F800003F7
2F800003F7
2F800003F7
0000000000
0000AB3000
00001AB000
00003BA000
0008D91000
ENDCHAR
STARTCHAR Ncaron
ENCODING 327
SWIDTH 600 0
DWIDTH 12 0
BBX 10 17 1 0
BITMAP
0078003B00
001D94E500
0002EF7000
0000000000
5FB00004F5
5FF40004F5
5FCC0004F5
5F6F4004F5
5F2DC004F5
5F35F504F5
5F30CC03F5
5F405F53F5
5F400CD3F5
5F4004F6F5
5F4000CCF5
5F40004FF5
5F40000BF5
ENDCHAR
STARTCHAR ncaron
ENCODING 328
SWIDTH 600 0
DWIDTH 12 0
BBX 10 15 1 0
BITMAP
0078001B30
001CA3D900
0001DFA000
0000000000
0000000000
2F42AEEB20
2F8C413DD0
2FC10006F4
2F800003F6
2F800003F7
2F800003F7
2F800003F7
2F800003F7
2F800003F7
2F800003F7
ENDCHAR
STARTCHAR napostrophe
ENCODING 329
SWIDTH 600 0
DWIDTH 12 0
BBX 13 14 -1 0
BITMAP
1CE50000000000
4FFD0000000000
1CFE0000000000
007D0000000000
00D81F52BED800
1AD11FAB317F70
3B201FC1000DC0
00001F80000BE0
00001F80000BE0
00001F80000BE0
00001F80000BE0
00001F80000BE0
00001F80000BE0
00001F80000BE0
ENDCHAR
STARTCHAR Eng
ENCODING 330
SWIDTH 600 0
DWIDTH 12 0
BBX 10 13 1 0
BITMAP
4F54BED810
4FAB315EB0
4FB10006F5
4F500001FA
4F500000DD
4F500000CE
4F500000BF
4F500000BE
4F500000CD
4F500000EB
4F500003F7
4F50011AE1
4F500BFC40
ENDCHAR
STARTCHAR eng
ENCODING 331
SWIDTH 600 0
DWIDTH 12 0
BBX 10 14 1 -4
BITMAP
2F42AEEB30
2F8C413DD0
2FC10006F4
2F800004F6
2F800003F7
2F800003F7
2F800003F7
2F800003F7
2F800003F7
2F800003F7
00000003F7
00000004F5
00000119F1
000009FD50
ENDCHAR
STARTCHAR Omacron
ENCODING 332
SWIDTH 600 0
DWIDTH 12 0
BBX 10 16 1 0
BITMAP
00AFFFFA00
0000000000
0000000000
004BEEB400
06F7118F60
2F900009F2
9F200002F9
DD000000DD
FB000000BF
FA000000BF
FB000000BF
CD000000DC
8F200002F8
2F900009F2
06F8118F60
004BEEB400
ENDCHAR
STARTCHAR omacron
ENCODING 333
SWIDTH 600 0
DWIDTH 12 0
BBX 10 13 1 0
BITMAP
00AFFFFA00
0000000000
0000000000
005BEEB500
07F8118F70
3F800008F3
9F200002F9
BF000000FB
BF000000FB
9F200002F9
3F800008F3
08F7117F80
005BEEB500
ENDCHAR
STARTCHAR Obreve
ENCODING 334
SWIDTH 600 0
DWIDTH 12 0
BBX 10 17 1 0
BITMAP
00B3003B00
007C22C700
0009EE9000
0000000000
004BEEB400
06F7118F60
2F900009F2
9F200002F9
DD000000DD
FB000000BF
FA000000BF
FB000000BF
CD000000DC
8F200002F8
2F900009F2
06F8118F60
004BEEB400
ENDCHAR
STARTCHAR obreve
ENCODING 335
SWIDTH 600 0
DWIDTH 12 0
BBX 10 15 1 0
BITMAP
0010000100
01F2002F10
00AB22BA00
0019EE9100
0000000000
005BEEB500
07F8118F70
3F800008F3
9F200002F9
BF000000FB
BF000000FB
9F200002F9
3F800008F3
08F7117F80
005BEEB500
ENDCHAR
STARTCHAR Ohungarumlaut
ENCODING 336
SWIDTH 600 0
DWIDTH 12 0
BBX 10 17 1 0
BITMAP
0000B50970
0008C14E20
001C20B300
0000000000
004BEEB400
06F7118F60
2F900009F2
9F200002F9
DD000000DD
FB000000BF
FA000000BF
FB000000BF
CD000000DC
8F200002F8
2F900009F2
06F8118F60
004BEEB400
ENDCHAR
STARTCHAR ohungarumlaut
ENCODING 337
SWIDTH 600 0
DWIDTH 12 0
BBX 10 15 1 0
BITMAP
0000870870
0001E51E50
0008B08B00
000B20B300
0000000000
005BEEB500
07F8118F70
3F800008F3
9F200002F9
BF000000FB
BF000000FB
9F200002F9
3F800008F3
08F7117F80
005BEEB500
ENDCHAR
STARTCHAR OE
ENCODING 338
SWIDTH 600 0
DWIDTH 12 0
BBX 12 13 0 0
BITMAP
0006CEFFFFF9
00BD40CB0000
07F300CB0000
0DB000CB0000
2F8000CB0000
4F6000CB0000
5F6000CFFFB0
4F6000CB0000
2F8000CB0000
0DC000CB0000
07F300CB0000
00BD40CB0000
0007CEFFFFFC
ENDCHAR
STARTCHAR oe
ENCODING 339
SWIDTH 600 0
DWIDTH 12 0
BBX 12 10 0 0
BITMAP
02BEC306DE70
0DA15D5C12E5
6F200BE4009B
9D0007F1007D
BC0005FFFFFE
BC0005F00000
9D0007F20000
6F200BE60000
1DA15D5E4152
02BFC306DEC4
ENDCHAR
STARTCHAR Racute
ENCODING 340
SWIDTH 600 0
DWIDTH 12 0
BBX 9 17 2 0
BITMAP
00003C2000
0005EA1000
001C500000
0000000000
FFFFED9100
FA0015DD10
FA00004F70
FA00001F90
FA00001F90
FA00006F60
FA0016EC00
FFFFFE8100
FA00AF2000
FA002EC000
FA0006F600
FA0000CE20
FA00003FB0
ENDCHAR
STARTCHAR racute
ENCODING 341
SWIDTH 600 0
DWIDTH 12 0
BBX 9 15 2 0
BITMAP
000001B200
00001CE400
0000BE3000
0002C20000
0000000000
1F506CEE80
1F6B820220
1FE4000000
1F90000000
1F80000000
1F80000000
1F80000000
1F80000000
1F80000000
1F80000000
ENDCHAR
STARTCHAR uni0156
ENCODING 342
SWIDTH 600 0
DWIDTH 12 0
BBX 9 18 2 -5
BITMAP
FFFFED9100
FA0015DD10
FA00004F70
FA00001F90
FA00001F90
FA00006F60
FA0016EC00
FFFFFE8100
FA00AF2000
FA002EC000
FA0006F600
FA0000CE20
FA00003FB0
0000000000
0008C40000
00018D0000
0002AC0000
006DA20000
ENDCHAR
STARTCHAR uni0157
ENCODING 343
SWIDTH 600 0
DWIDTH 12 0
BBX 9 15 2 -5
BITMAP
1F506CEE80
1F6B820220
1FE4000000
1F90000000
1F80000000
1F80000000
1F80000000
1F80000000
1F80000000
1F80000000
0000000000
1D91000000
02E7000000
14E5000000
CC60000000
ENDCHAR
STARTCHAR Rcaron
ENCODING 344
SWIDTH 600 0
DWIDTH 12 0
BBX 9 17 2 0
BITMAP
096004B000
02E75E4000
004FF60000
0000000000
FFFFED9100
FA0015DD10
FA00004F70
FA00001F90
FA00001F90
FA00006F60
FA0016EC00
FFFFFE8100
FA00AF2000
FA002EC000
FA0006F600
FA0000CE20
FA00003FB0
ENDCHAR
STARTCHAR rcaron
ENCODING 345
SWIDTH 600 0
DWIDTH 12 0
BBX 9 15 2 0
BITMAP
00B3005A00
005E57E300
0005FE4000
0000000000
0000000000
1F506CEE80
1F6B820220
1FE4000000
1F90000000
1F80000000
1F80000000
1F80000000
1F80000000
1F80000000
1F80000000
ENDCHAR
STARTCHAR Sacute
ENCODING 346
SWIDTH 600 0
DWIDTH 12 0
BBX 10 17 1 0
BITMAP
000001B500
00003DC300
0000A70000
0000000000
003ADFDA40
05F8103AE1
0DC0000010
0FC0000000
0BF8000000
02DFD71000
0016DFF910
000004BFE1
00000007F8
00000001FA
06000002F8
6FC5114CD1
04ADEFD810
ENDCHAR
STARTCHAR sacute
ENCODING 347
SWIDTH 600 0
DWIDTH 12 0
BBX 10 15 1 0
BITMAP
000001B300
00000AF500
00009E4000
0001B40000
0000000000
006CEFD940
08E5114A90
0EB0000000
0BF7100000
02BFFC8300
00026AEFB1
00000009F6
02000003F7
5FA4102BE2
049DEED920
ENDCHAR
STARTCHAR Scircumflex
ENCODING 348
SWIDTH 600 0
DWIDTH 12 0
BBX 10 17 1 0
BITMAP
0001DF9000
001CA3E700
0059002C10
0000000000
003ADFDA40
05F8103AE1
0DC0000010
0FC0000000
0BF8000000
02DFD71000
0016DFF910
000004BFE1
00000007F8
00000001FA
06000002F8
6FC5114CD1
04ADEFD810
ENDCHAR
STARTCHAR scircumflex
ENCODING 349
SWIDTH 600 0
DWIDTH 12 0
BBX 10 15 1 0
BITMAP
0004FF5000
003E75E400
00B5003B00
0000000000
0000000000
006CEFD940
08E5114A90
0EB0000000
0BF7100000
02BFFC8300
00026AEFB1
00000009F6
02000003F7
5FA4102BE2
049DEED920
ENDCHAR
STARTCHAR uni015E
ENCODING 350
SWIDTH 600 0
DWIDTH 12 0
BBX 10 18 1 -5
BITMAP
003ADFDA40
05F8103AE1
0DC0000010
0FC0000000
0BF8000000
02DFD71000
0016DFF910
000004BFE1
00000007F8
00000001FA
06000002F8
6FC5114CD1
04ADEFD810
00004B0000
0000AE6000
000019D000
00002AB000
0007D91000
ENDCHAR
STARTCHAR uni015F
ENCODING 351
SWIDTH 600 0
DWIDTH 12 0
BBX 10 15 1 -5
BITMAP
006CEFD940
08E5114A90
0EB0000000
0BF7100000
02BFFC8300
00026AEFB1
00000009F6
02000003F7
5FA4102BE2
049DEED920
00006A0000
0000CE5000
00002BC000
00003BA000
0008D91000
ENDCHAR
STARTCHAR Scaron
ENCODING 352
SWIDTH 600 0
DWIDTH 12 0
BBX 10 17 1 0
BITMAP
0059002C10
001CA3E700
0001DF9000
0000000000
003ADFDA40
05F8103AE1
0DC0000010
0FC0000000
0BF8000000
02DFD71000
0016DFF910
000004BFE1
00000007F8
00000001FA
06000002F8
6FC5114CD1
04ADEFD810
ENDCHAR
STARTCHAR scaron
ENCODING 353
SWIDTH 600 0
DWIDTH 12 0
BBX 10 15 1 0
BITMAP
00A5003B00
003E75E400
0004FF5000
0000000000
0000000000
006CEFD940
08E5114A90
0EB0000000
0BF7100000
02BFFC8300
00026AEFB1
00000009F6
02000003F7
5FA4102BE2
049DEED920
ENDCHAR
STARTCHAR uni0162
ENCODING 354
SWIDTH 600 0
DWIDTH 12 0
BBX 12 18 0 -5
BITMAP
2FFFFFFFFFF2
00000DD00000
00000DD00000
00000DD00000
00000DD00000
00000DD00000
00000DD00000
00000DD00000
00000DD00000
00000DD00000
00000DD00000
00000DD00000
00000DD00000
00000A500000
00001FC20000
000003D80000
000014E50000
0000CC600000
ENDCHAR
STARTCHAR uni0163
ENCODING 355
SWIDTH 600 0
DWIDTH 12 0
BBX 10 18 1 -5
BITMAP
0009C00000
000BC00000
000CC00000
9EFFFFFFF8
000DC00000
000DC00000
000DC00000
000DC00000
000DC00000
000CC00000
000AE00000
0003F92024
00005CFED8
000000D200
000004FB00
0000004F40
0000015F20
00001EB400
ENDCHAR
STARTCHAR Tcaron
ENCODING 356
SWIDTH 600 0
DWIDTH 12 0
BBX 12 17 0 0
BITMAP
000A5005A000
0003E66E3000
00005FF40000
000000000000
2FFFFFFFFFF2
00000DD00000
00000DD00000
00000DD00000
00000DD00000
00000DD00000
00000DD00000
00000DD00000
00000DD00000
00000DD00000
00000DD00000
00000DD00000
00000DD00000
ENDCHAR
STARTCHAR tcaron
ENCODING 357
SWIDTH 600 0
DWIDTH 12 0
BBX 10 16 1 0
BITMAP
0000001F60
0000001F60
0000001F50
0009C01F30
000BC01F20
000CC00000
9EFFFFFFF8
000DC00000
000DC00000
000DC00000
000DC00000
000DC00000
000CC00000
000AE00000
0003F92024
00005CFED8
ENDCHAR
STARTCHAR Tbar
ENCODING 358
SWIDTH 600 0
DWIDTH 12 0
BBX 12 13 0 0
BITMAP
2FFFFFFFFFF2
00000DD00000
00000DD00000
00000DD00000
00000DD00000
00000DD00000
00AFFFFFFA00
00000DD00000
00000DD00000
00000DD00000
00000DD00000
00000DD00000
00000DD00000
ENDCHAR
STARTCHAR tbar
ENCODING 359
SWIDTH 600 0
DWIDTH 12 0
BBX 10 14 1 0
BITMAP
0001100000
000AC00000
000BC00000
000CC00000
9EFFFFFFF8
000DC00000
000DC00000
000DC00000
8EFFFFFFF2
000DC00000
000CC00000
0009E10000
0003FA2024
00005CFED8
ENDCHAR
STARTCHAR Utilde
ENCODING 360
SWIDTH 600 0
DWIDTH 12 0
BBX 10 16 1 0
BITMAP
01BEC51B60
06B15CEB10
0000000000
6F400003F6
6F400003F6
6F400003F6
6F400003F6
6F400003F6
6F400003F6
6F400003F6
6F400003F6
6F400003F6
4F600005F4
1EA00009E1
06F8117F60
005CEFC500
ENDCHAR
STARTCHAR utilde
ENCODING 361
SWIDTH 600 0
DWIDTH 12 0
BBX 10 15 1 0
BITMAP
0036200420
03E9E61E30
06902BE900
0000000000
0000000000
7F300008F1
7F300008F1
7F300008F1
7F300008F1
7F300008F1
7F300008F1
6F400008F1
4F60001DF1
0DD314C8F1
02BEEA24F1
ENDCHAR
STARTCHAR Umacron
ENCODING 362
SWIDTH 600 0
DWIDTH 12 0
BBX 10 16 1 0
BITMAP
00AFFFFA00
0000000000
0000000000
6F400003F6
6F400003F6
6F400003F6
6F400003F6
6F400003F6
6F400003F6
6F400003F6
6F400003F6
6F400003F6
4F600005F4
1EA00009E1
06F8117F60
005CEFC500
ENDCHAR
STARTCHAR umacron
ENCODING 363
SWIDTH 600 0
DWIDTH 12 0
BBX 10 13 1 0
BITMAP
00BFFFF900
0000000000
0000000000
7F300008F1
7F300008F1
7F300008F1
7F300008F1
7F300008F1
7F300008F1
6F400008F1
4F60001DF1
0DD314C8F1
02BEEA24F1
ENDCHAR
STARTCHAR Ubreve
ENCODING 364
SWIDTH 600 0
DWIDTH 12 0
BBX 10 17 1 0
BITMAP
00B3003B00
007C22C700
0009EE9000
0000000000
6F400003F6
6F400003F6
6F400003F6
6F400003F6
6F400003F6
6F400003F6
6F400003F6
6F400003F6
6F400003F6
4F600005F4
1EA00009E1
06F8117F60
005CEFC500
ENDCHAR
STARTCHAR ubreve
ENCODING 365
SWIDTH 600 0
DWIDTH 12 0
BBX 10 15 1 0
BITMAP
0010000100
01F1003E00
00BA12C900
001AED9100
0000000000
7F300008F1
7F300008F1
7F300008F1
7F300008F1
7F300008F1
7F300008F1
6F400008F1
4F60001DF1
0DD314C8F1
02BEEA24F1
ENDCHAR
STARTCHAR Uring
ENCODING 366
SWIDTH 600 0
DWIDTH 12 0
BBX 10 18 1 0
BITMAP
0004DD4000
000D33D000
000D33D000
0005EE5000
0000000000
6F400003F6
6F400003F6
6F400003F6
6F400003F6
6F400003F6
6F400003F6
6F400003F6
6F400003F6
6F400003F6
4F600005F4
1EA00009E1
06F8117F60
005CEFC500
ENDCHAR
STARTCHAR uring
ENCODING 367
SWIDTH 600 0
DWIDTH 12 0
BBX 10 15 1 0
BITMAP
0008EE6000
003E23F100
003E23F100
0008EE6000
0000000000
7F300008F1
7F300008F1
7F300008F1
7F300008F1
7F300008F1
7F300008F1
6F400008F1
4F60001DF1
0DD314C8F1
02BEEA24F1
ENDCHAR
STARTCHAR Uhungarumlaut
ENCODING 368
SWIDTH 600 0
DWIDTH 12 0
BBX 10 17 1 0
BITMAP
0000B50970
0008C14E20
001C20B300
0000000000
6F400003F6
6F400003F6
6F400003F6
6F400003F6
6F400003F6
6F400003F6
6F400003F6
6F400003F6
6F400003F6
4F600005F4
1EA00009E1
06F8117F60
005CEFC500
ENDCHAR
STARTCHAR uhungarumlaut
ENCODING 369
SWIDTH 600 0
DWIDTH 12 0
BBX 10 15 1 0
BITMAP
0000960960
0002F32F40
0009A09A00
000C20C200
0000000000
7F300008F1
7F300008F1
7F300008F1
7F300008F1
7F300008F1
7F300008F1
6F400008F1
4F60001DF1
0DD314C8F1
02BEEA24F1
ENDCHAR
STARTCHAR Uogonek
ENCODING 370
SWIDTH 600 0
DWIDTH 12 0
BBX 10 17 1 -4
BITMAP
6F400003F6
6F400003F6
6F400003F6
6F400003F6
6F400003F6
6F400003F6
6F400003F6
6F400003F6
6F400003F6
4F600005F4
1EA00009E0
07F8117F60
005CFFD500
0001C70000
0008B00000
000AB13000
0003DEB100
ENDCHAR
STARTCHAR uogonek
ENCODING 371
SWIDTH 600 0
DWIDTH 12 0
BBX 10 14 1 -4
BITMAP
7F300008F1
7F300008F1
7F300008F1
7F300008F1
7F300008F1
7F300008F1
6F400008F1
4F60001DF1
0DD314C8F1
02BEEA24F1
0000002B60
000000D400
000001F512
0000008EE6
ENDCHAR
STARTCHAR Wcircumflex
ENCODING 372
SWIDTH 600 0
DWIDTH 12 0
BBX 12 17 0 0
BITMAP
00004FF40000
0003E66E3000
000A5005A000
000000000000
BF20000001FB
9F40000003F9
6F60000004F6
4F70089006F4
2F901FF308F2
0EB04EE609F0
0CD08CCA0BD0
0AE0C98E0DA0
07F2F55F3E80
05F7F11F7F60
03FCD00CBF40
01FF9009FF10
00DF5005FE00
ENDCHAR
STARTCHAR wcircumflex
ENCODING 373
SWIDTH 600 0
DWIDTH 12 0
BBX 12 15 0 0
BITMAP
00004FF40000
0004E66E4000
000B4004B000
000000000000
000000000000
BD00055000CB
8F100EF100F8
5F403EE403F5
2F706CC806F2
0DA0A99B09E0
0AD0D66E0CB0
07F3F33F3E70
04F9E00E8F40
01FEB00BEF10
00CF8007FD00
ENDCHAR
STARTCHAR Ycircumflex
ENCODING 374
SWIDTH 600 0
DWIDTH 12 0
BBX 12 17 0 0
BITMAP
00004FF40000
0003E66E3000
000A5005A000
000000000000
1EC000000BE1
07F400003F70
00DC0000BD00
006F5003F600
000DC00BD000
0005F53F5000
0000CCBC0000
00004FF40000
00000DD00000
00000DD00000
00000DD00000
00000DD00000
00000DD00000
ENDCHAR
STARTCHAR ycircumflex
ENCODING 375
SWIDTH 600 0
DWIDTH 12 0
BBX 10 19 1 -4
BITMAP
0004EF5000
003E75E500
00A5003B00
0000000000
0000000000
CD000000BC
4F400002F6
0CB00008E1
05F3000D90
00C9004F30
005F10AC00
000C71F600
0005D7E100
0000DE9000
00009F3000
0000DB0000
0005F50000
004EA00000
7FD7000000
ENDCHAR
STARTCHAR Ydieresis
ENCODING 376
SWIDTH 600 0
DWIDTH 12 0
BBX 12 16 0 0
BITMAP
000AE11E9000
0009E11E9000
000000000000
1EC000000BE1
07F400003F70
00DC0000BD00
006F5003F600
000DC00BD000
0005F53F5000
0000CCBC0000
00004FF40000
00000DD00000
00000DD00000
00000DD00000
00000DD00000
00000DD00000
ENDCHAR
STARTCHAR Zacute
ENCODING 377
SWIDTH 600 0
DWIDTH 12 0
BBX 10 17 1 0
BITMAP
000001A500
00002DC300
0000980000
0000000000
1FFFFFFFFA
0000000AE2
0000005F70
000001EC00
000009F300
00004F8000
0001DD0000
0008F40000
003F900000
00CD100000
07F5000000
2FA0000000
AFFFFFFFFC
ENDCHAR
STARTCHAR zacute
ENCODING 378
SWIDTH 600 0
DWIDTH 12 0
BBX 10 15 1 0
BITMAP
0000007800
000005FA00
00004F9000
0000780000
0000000000
0DFFFFFFF5
0000005FA0
000002ED10
00001DE200
0000AF5000
0007F80000
004FB00000
02ED100000
0CF3000000
7FFFFFFFF9
ENDCHAR
STARTCHAR Zdotaccent
ENCODING 379
SWIDTH 600 0
DWIDTH 12 0
BBX 10 16 1 0
BITMAP
00009E5000
00009E5000
0000000000
1FFFFFFFFA
0000000AE2
0000005F70
000001EC00
000009F300
00004F8000
0001DD0000
0008F40000
003F900000
00CD100000
07F5000000
2FA0000000
AFFFFFFFFC
ENDCHAR
STARTCHAR zdotaccent
ENCODING 380
SWIDTH 600 0
DWIDTH 12 0
BBX 10 15 1 0
BITMAP
00007E6000
0000DFB000
00007E6000
0000000000
0000000000
0DFFFFFFF5
0000005FA0
000002ED10
00001DE200
0000AF5000
0007F80000
004FB00000
02ED100000
0CF3000000
7FFFFFFFF9
ENDCHAR
STARTCHAR Zcaron
ENCODING 381
SWIDTH 600 0
DWIDTH 12 0
BBX 10 17 1 0
BITMAP
005A002C10
000CB3D700
0001DF9000
0000000000
1FFFFFFFFA
0000000AE2
0000005F70
000001EC00
000009F300
00004F8000
0001DD0000
0008F40000
003F900000
00CD100000
07F5000000
2FA0000000
AFFFFFFFFC
ENDCHAR
STARTCHAR zcaron
ENCODING 382
SWIDTH 600 0
DWIDTH 12 0
BBX 10 15 1 0
BITMAP
0069001A40
000BB3CA00
0001CFB000
0000000000
0000000000
0DFFFFFFF5
0000005FA0
000002ED10
00001DE200
0000AF5000
0007F80000
004FB00000
02ED100000
0CF3000000
7FFFFFFFF9
ENDCHAR
STARTCHAR longs
ENCODING 383
SWIDTH 600 0
DWIDTH 12 0
BBX 10 14 2 0
BITMAP
00018DFEC4
0009F51142
000F900000
002F700000
DEFF700000
002F700000
002F700000
002F700000
002F700000
002F700000
002F700000
002F700000
002F700000
002F700000
ENDCHAR
STARTCHAR uni0180
ENCODING 384
SWIDTH 600 0
DWIDTH 12 0
BBX 11 14 0 0
BITMAP
02F800000000
02F800000000
8FFFFFFC0000
02F800000000
02F700000000
02F75CEEA200
02FD9214DD10
02F900004F70
02F800000FB0
02F800000EC0
02F800001FA0
02F800007F50
02FE8216EA00
02F47DFD7000
ENDCHAR
STARTCHAR uni018A
ENCODING 394
SWIDTH 600 0
DWIDTH 12 0
BBX 12 13 0 0
BITMAP
017CEFEB5000
0CE5DD27EA00
5F40CD005F60
8E00CD000CD0
8E00CD0008F2
5F40CD0006F4
0CE3CD0006F5
0180CD0006F4
0000CD0008F2
0000CD000CD0
0000CD004F70
0000CD04EB00
0000CFFC7000
ENDCHAR
STARTCHAR uni018F
ENCODING 399
SWIDTH 600 0
DWIDTH 12 0
BBX 10 13 1 0
BITMAP
017CFEB400
03D5117F60
00000008F2
00000001F8
00000000CC
00000000AE
CFFFFFFFFF
BD000000BE
9F000000DC
5F400002F7
0DA00009E1
04F8118F50
003BEEB400
ENDCHAR
STARTCHAR uni0192
ENCODING 402
SWIDTH 600 0
DWIDTH 12 0
BBX 10 15 1 -2
BITMAP
000002BEE7
00000DC211
00004F4000
00008F0000
0000BD0000
00EFFFFFA0
0000E90000
0001F80000
0002F60000
0004F40000
0005F30000
0008F00000
000CB00000
216F500000
CFD6000000
ENDCHAR
STARTCHAR uni0193
ENCODING 403
SWIDTH 600 0
DWIDTH 12 0
BBX 11 16 1 0
BITMAP
00000001BF90
00000008D110
0000000AC000
0018CEEEF200
02DD4116E300
0DD100001000
6F5000000000
AF1000000000
DD0000000000
EC0000000000
DD0008FFFA00
BF000000DA00
6F500000DA00
0DD10000DA00
03EC4126E900
0018DFEC6000
ENDCHAR
STARTCHAR Ohorn
ENCODING 416
SWIDTH 600 0
DWIDTH 12 0
BBX 11 16 1 0
BITMAP
000000004C10
000000004F30
000000006E10
004BEEB8B300
06F7118FA000
2F900009F400
9F200002FA00
DD000000DD00
FB000000BF00
FA000000BF00
FB000000BE00
CD000000DC00
8F200002F800
2F900009E200
06F8118F5000
004BEEB40000
ENDCHAR
STARTCHAR ohorn
ENCODING 417
SWIDTH 600 0
DWIDTH 12 0
BBX 11 13 1 0
BITMAP
000000004C00
000000005F20
000000008D00
005BEEBBA100
07F8118FA000
3F800008F400
9F200002F900
BF000000FB00
BF000000FB00
9F200002F800
3F800008F300
08F7117F7000
005BEEB40000
ENDCHAR
STARTCHAR Uhorn
ENCODING 431
SWIDTH 600 0
DWIDTH 12 0
BBX 12 16 1 0
BITMAP
0000000000B5
0000000000E8
0000000005F6
6F400003FE80
6F400003F600
6F400003F600
6F400003F600
6F400003F600
6F400003F600
6F400003F600
6F400003F600
6F400003F600
4F600005F400
1EA00009E100
06F8117F7000
005CEFC60000
ENDCHAR
STARTCHAR uhorn
ENCODING 432
SWIDTH 600 0
DWIDTH 12 0
BBX 11 14 1 0
BITMAP
000000000690
0000000008E0
0000000009D0
000000004E90
7F300008FB10
7F300008F100
7F300008F100
7F300008F100
7F300008F100
7F300008F100
6F400008F100
4F60001DF100
0DD314C8F100
02BEEA24F100
ENDCHAR
STARTCHAR uni01C2
ENCODING 450
SWIDTH 600 0
DWIDTH 12 0
BBX 10 18 1 -4
BITMAP
0000CC0000
0000CC0000
0000CC0000
0000CC0000
0000CC0000
0000CC0000
4EFFFFFFF5
0000CC0000
0000CC0000
4EFFFFFFF5
0000CC0000
0000CC0000
0000CC0000
0000CC0000
0000CC0000
0000CC0000
0000CC0000
0000CC0000
ENDCHAR
STARTCHAR uni01CD
ENCODING 461
SWIDTH 600 0
DWIDTH 12 0
BBX 12 17 0 0
BITMAP
000A5005A000
0003E66E3000
00005FF40000
000000000000
00002FF20000
00007EE70000
0000C9AC0000
0002F56F2000
0007F12F7000
000CB00CC000
002F7008F200
007F2003F700
00CFFFFFFC00
03F700007F20
08F200003F80
0DC000000DD0
3F80000008F3
ENDCHAR
STARTCHAR uni01CE
ENCODING 462
SWIDTH 600 0
DWIDTH 12 0
BBX 10 15 1 0
BITMAP
0069001B30
001CB3D900
0001CFA000
0000000000
0000000000
028CEFD800
0AB4117F80
0000000AF1
00000006F3
00159BDFF4
06EC7425F4
3F900005F4
5F400007F4
2EB203ABF4
03BEEA31F4
ENDCHAR
STARTCHAR uni01CF
ENCODING 463
SWIDTH 600 0
DWIDTH 12 0
BBX 10 17 1 0
BITMAP
00A5005A00
003E66E300
0005FF4000
0000000000
1FFFFFFFF1
0000DD0000
0000DD0000
0000DD0000
0000DD0000
0000DD0000
0000DD0000
0000DD0000
0000DD0000
0000DD0000
0000DD0000
0000DD0000
1FFFFFFFF1
ENDCHAR
STARTCHAR uni01D0
ENCODING 464
SWIDTH 600 0
DWIDTH 12 0
BBX 9 15 1 0
BITMAP
000B3004B0
0004E67E30
00005FF400
0000000000
0000000000
3FFFFFE000
00000AE000
00000AE000
00000AE000
00000AE000
00000AE000
00000AE000
00000AE000
00000AE000
00000AE000
ENDCHAR
STARTCHAR uni01D1
ENCODING 465
SWIDTH 600 0
DWIDTH 12 0
BBX 10 17 1 0
BITMAP
00A5005A00
003E66E300
0005FF4000
0000000000
004BEEB400
06F7118F60
2F900009F2
9F200002F9
DD000000DD
FB000000BF
FA000000BF
FB000000BF
CD000000DC
8F200002F8
2F900009F2
06F8118F60
004BEEB400
ENDCHAR
STARTCHAR uni01D2
ENCODING 466
SWIDTH 600 0
DWIDTH 12 0
BBX 10 15 1 0
BITMAP
00B4004B00
004E66E400
0004FF4000
0000000000
0000000000
005BEEB500
07F8118F70
3F800008F3
9F200002F9
BF000000FB
BF000000FB
9F200002F9
3F800008F3
08F7117F80
005BEEB500
ENDCHAR
STARTCHAR uni01D3
ENCODING 467
SWIDTH 600 0
DWIDTH 12 0
BBX 10 17 1 0
BITMAP
00A5005A00
003E66E300
0005FF4000
0000000000
6F400003F6
6F400003F6
6F400003F6
6F400003F6
6F400003F6
6F400003F6
6F400003F6
6F400003F6
6F400003F6
4F600005F4
1EA00009E1
06F8117F60
005CEFC500
ENDCHAR
STARTCHAR uni01D4
ENCODING 468
SWIDTH 600 0
DWIDTH 12 0
BBX 10 15 1 0
BITMAP
00B3005A00
005E57E300
0005FE4000
0000000000
0000000000
7F300008F1
7F300008F1
7F300008F1
7F300008F1
7F300008F1
7F300008F1
6F400008F1
4F60001DF1
0DD314C8F1
02BEEA24F1
ENDCHAR
STARTCHAR uni01D5
ENCODING 469
SWIDTH 600 0
DWIDTH 12 0
BBX 10 18 1 0
BITMAP
00AFFFFA00
0000000000
00BA00AB00
00BA009B00
0000000000
6F400003F6
6F400003F6
6F400003F6
6F400003F6
6F400003F6
6F400003F6
6F400003F6
6F400003F6
6F400003F6
4F600005F4
1EA00009E1
06F8117F60
005CEFC500
ENDCHAR
STARTCHAR uni01D6
ENCODING 470
SWIDTH 600 0
DWIDTH 12 0
BBX 10 16 1 0
BITMAP
00CFFFF900
0000000000
00BA00C800
00BA00C800
0000000000
0000000000
7F300008F1
7F300008F1
7F300008F1
7F300008F1
7F300008F1
7F300008F1
6F400008F1
4F60001DF1
0DD314C8F1
02BEEA24F1
ENDCHAR
STARTCHAR uni01D7
ENCODING 471
SWIDTH 600 0
DWIDTH 12 0
BBX 10 19 1 0
BITMAP
000004B000
00002E7000
0000770000
00BA00AB00
00BA009B00
0000000000
6F400003F6
6F400003F6
6F400003F6
6F400003F6
6F400003F6
6F400003F6
6F400003F6
6F400003F6
6F400003F6
4F600005F4
1EA00009E1
06F8117F60
005CEFC500
ENDCHAR
STARTCHAR uni01D8
ENCODING 472
SWIDTH 600 0
DWIDTH 12 0
BBX 10 17 1 0
BITMAP
0000095000
00004E2000
0000A30000
00BA00C800
00BA00C800
0000000000
0000000000
7F300008F1
7F300008F1
7F300008F1
7F300008F1
7F300008F1
7F300008F1
6F400008F1
4F60001DF1
0DD314C8F1
02BEEA24F1
ENDCHAR
STARTCHAR uni01D9
ENCODING 473
SWIDTH 600 0
DWIDTH 12 0
BBX 10 19 1 0
BITMAP
005A22A500
0006EE6000
0000000000
00BA00AB00
00BA009B00
0000000000
6F400003F6
6F400003F6
6F400003F6
6F400003F6
6F400003F6
6F400003F6
6F400003F6
6F400003F6
6F400003F6
4F600005F4
1EA00009E1
06F8117F60
005CEFC500
ENDCHAR
STARTCHAR uni01DA
ENCODING 474
SWIDTH 600 0
DWIDTH 12 0
BBX 10 17 1 0
BITMAP
005A12B300
0006EE4000
0000000000
00BA00C800
00BA00C800
0000000000
0000000000
7F300008F1
7F300008F1
7F300008F1
7F300008F1
7F300008F1
7F300008F1
6F400008F1
4F60001DF1
0DD314C8F1
02BEEA24F1
ENDCHAR
STARTCHAR uni01DB
ENCODING 475
SWIDTH 600 0
DWIDTH 12 0
BBX 10 19 1 0
BITMAP
001B400000
0007E20000
0000770000
00BA00AB00
00BA009B00
0000000000
6F400003F6
6F400003F6
6F400003F6
6F400003F6
6F400003F6
6F400003F6
6F400003F6
6F400003F6
6F400003F6
4F600005F4
1EA00009E1
06F8117F60
005CEFC500
ENDCHAR
STARTCHAR uni01DC
ENCODING 476
SWIDTH 600 0
DWIDTH 12 0
BBX 10 17 1 0
BITMAP
0007700000
0004E20000
0000580000
00BA00C800
00BA00C800
0000000000
0000000000
7F300008F1
7F300008F1
7F300008F1
7F300008F1
7F300008F1
7F300008F1
6F400008F1
4F60001DF1
0DD314C8F1
02BEEA24F1
ENDCHAR
STARTCHAR uni01E2
ENCODING 482
SWIDTH 600 0
DWIDTH 12 0
BBX 12 16 0 0
BITMAP
000004FFFFF1
000000000000
000000000000
00000EFFFFFA
00005FDD0000
0000BCAD0000
0002F6AD0000
0008F1AD0000
001EA0AD0000
006F40AFFFC0
00CD00AD0000
03FFFFFD0000
09E100AD0000
1EA000AD0000
6F4000AD0000
CD0000AFFFFC
ENDCHAR
STARTCHAR uni01E3
ENCODING 483
SWIDTH 600 0
DWIDTH 12 0
BBX 12 13 0 0
BITMAP
0005FFFFF000
000000000000
000000000000
18CED408EE70
09317E9A13E5
00000DE1009B
00000BB0007D
005ADFFFFFFE
1BE73AB00000
7F3009D00000
9E0007F30000
6F416BBC2162
09EE9119EEC4
ENDCHAR
STARTCHAR Gcaron
ENCODING 486
SWIDTH 600 0
DWIDTH 12 0
BBX 10 17 1 0
BITMAP
002B100A40
0008D3BB00
0000AFC100
0000000000
0018CEEC70
02DD4116E3
0DD1000010
6F50000000
AF10000000
DD00000000
EC00000000
DD0008FFFA
BF000000DA
6F500000DA
0DD10000DA
03EC4126E9
0018DFEC60
ENDCHAR
STARTCHAR gcaron
ENCODING 487
SWIDTH 600 0
DWIDTH 12 0
BBX 11 19 1 -4
BITMAP
00A5003C1000
002E85E50000
0003EF600000
000000000000
000000000000
004BEFFFFF40
05F812CE2000
0DB0002F7000
0F90000F8000
0CD0004F4000
02EC67E90000
06D798400000
0E7000000000
0AC200000000
05FEFFFEC600
4F4000019F30
8E0000007F30
3F931138F900
03ADEECA4000
ENDCHAR
STARTCHAR uni01EA
ENCODING 490
SWIDTH 600 0
DWIDTH 12 0
BBX 10 17 1 -4
BITMAP
004BEEB400
06F7118F60
2F900009F2
9F200002F8
DD000000DD
FB000000BF
FA000000BF
FB000000BE
CD000000DC
8F200002F8
2F900009E2
06F8118F50
004BEFB300
0001B60000
0008B00000
000AB13000
0003DEB100
ENDCHAR
STARTCHAR uni01EB
ENCODING 491
SWIDTH 600 0
DWIDTH 12 0
BBX 10 14 1 -4
BITMAP
005BEEB500
07F8118F70
3F800008F3
9F200002F9
BF000000FB
BF000000FB
9F200002F9
3F800008F3
08F7117F70
005BEFC400
0000A70000
0006C00000
0007D23000
0002CEC200
ENDCHAR
STARTCHAR uni01F4
ENCODING 500
SWIDTH 600 0
DWIDTH 12 0
BBX 10 17 1 0
BITMAP
0000008900
00001AE500
00006A1000
0000000000
0018CEEC70
02DD4116E3
0DD1000010
6F50000000
AF10000000
DD00000000
EC00000000
DD0008FFFA
BF000000DA
6F500000DA
0DD10000DA
03EC4126E9
0018DFEC60
ENDCHAR
STARTCHAR uni01F5
ENCODING 501
SWIDTH 600 0
DWIDTH 12 0
BBX 11 19 1 -4
BITMAP
000000A40000
000009F60000
00008F500000
0000B4000000
000000000000
004BEFFFFF40
05F812CE2000
0DB0002F7000
0F90000F8000
0CD0004F4000
02EC67E90000
06D798400000
0E7000000000
0AC200000000
05FEFFFEC600
4F4000019F30
8E0000007F30
3F931138F900
03ADEECA4000
ENDCHAR
STARTCHAR uni01F8
ENCODING 504
SWIDTH 600 0
DWIDTH 12 0
BBX 10 17 1 0
BITMAP
001B500000
0007F80000
00003C3000
0000000000
5FB00004F5
5FF40004F5
5FCC0004F5
5F6F4004F5
5F2DC004F5
5F35F504F5
5F30CC03F5
5F405F53F5
5F400CD3F5
5F4004F6F5
5F4000CCF5
5F40004FF5
5F40000BF5
ENDCHAR
STARTCHAR uni01F9
ENCODING 505
SWIDTH 600 0
DWIDTH 12 0
BBX 10 15 1 0
BITMAP
001A400000
001CE30000
0001CD2000
00001A5000
0000000000
2F42AEEB20
2F8C413DD0
2FC10006F4
2F800003F6
2F800003F7
2F800003F7
2F800003F7
2F800003F7
2F800003F7
2F800003F7
ENDCHAR
STARTCHAR Aringacute
ENCODING 506
SWIDTH 600 0
DWIDTH 12 0
BBX 12 20 0 0
BITMAP
000000020000
0000009D0000
00002BD20000
0000B12B0000
0000D33D0000
00005EE50000
000000000000
00002FF20000
00007CD70000
0000C89C0000
0002F45F2000
0007F11F7000
000CB00CC000
002F7007F200
007F2003F700
00CFFFFFFC00
03F700007F20
08F200003F80
0DC000000DD0
3F80000008F3
ENDCHAR
STARTCHAR aringacute
ENCODING 507
SWIDTH 600 0
DWIDTH 12 0
BBX 10 17 1 0
BITMAP
0000003000
000008E300
0001BA9100
000A508700
000B81B800
0003CEB100
0000000000
028CEFD800
0AB4116F80
00000008F1
0000146AF3
006CFFFFF4
0BFC7425F4
4F900005F4
5F400007F4
1EB203ABF4
03BEEA31F4
ENDCHAR
STARTCHAR AEacute
ENCODING 508
SWIDTH 600 0
DWIDTH 12 0
BBX 12 17 0 0
BITMAP
000000001A60
00000002CD30
000000098000
000000000000
00000EFFFFFA
00005FDD0000
0000BCAD0000
0002F6AD0000
0008F1AD0000
001EA0AD0000
006F40AFFFC0
00CD00AD0000
03FFFFFD0000
09E100AD0000
1EA000AD0000
6F4000AD0000
CD0000AFFFFC
ENDCHAR
STARTCHAR aeacute
ENCODING 509
SWIDTH 600 0
DWIDTH 12 0
BBX 12 15 0 0
BITMAP
000000086000
0000007F9000
000005F80000
000009600000
000000000000
18CED408EE70
09317E9A13E5
00000DE1009B
00000BB0007D
005ADFFFFFFE
1BE73AB00000
7F3009D00000
9E0007F30000
6F416BBC2162
09EE9119EEC4
ENDCHAR
STARTCHAR Oslashacute
ENCODING 510
SWIDTH 600 0
DWIDTH 12 0
BBX 12 18 0 -1
BITMAP
0000003C2000
000006F91000
00001C400000
000000000130
0004BEEB48E1
006F711AFF50
02F80001FF20
09F2000BEF90
0DD0006F3ED0
0FC003F70CF0
0FB00CB00BF0
0FC08E200CF0
0CE4F5000DC0
08FE90002F80
02FF10009F20
06FFA118F600
1E74BEEB4000
030000000000
ENDCHAR
STARTCHAR oslashacute
ENCODING 511
SWIDTH 600 0
DWIDTH 12 0
BBX 10 16 1 -1
BITMAP
000001B300
00000BF400
0000AE4000
0001C30000
0000000020
005BEEB5D8
07F712AFD1
3F8000AFF2
9F2008E5F9
BE006F40FB
BE04F600EB
9F5E8002F9
3FFA0008F3
1DFA217F80
8D5BEEB500
0200000000
ENDCHAR
STARTCHAR uni0218
ENCODING 536
SWIDTH 600 0
DWIDTH 12 0
BBX 10 18 1 -5
BITMAP
003ADFDA40
05F8103AE1
0DC0000010
0FC0000000
0BF8000000
02DFD71000
0016DFF910
000004BFE1
00000007F8
00000001FA
06000002F8
6FC5114CD1
04ADEFD810
0000000000
0000AB3000
00001AB000
00003BA000
0008D91000
ENDCHAR
STARTCHAR uni0219
ENCODING 537
SWIDTH 600 0
DWIDTH 12 0
BBX 10 15 1 -5
BITMAP
006CEFD940
08E5114A90
0EB0000000
0BF7100000
02BFFC8300
00026AEFB1
00000009F6
02000003F7
5FA4102BE2
049DEED920
0000000000
0000BB2000
00001BA000
00003C8000
0009D81000
ENDCHAR
STARTCHAR uni021A
ENCODING 538
SWIDTH 600 0
DWIDTH 12 0
BBX 12 18 0 -5
BITMAP
2FFFFFFFFFF2
00000DD00000
00000DD00000
00000DD00000
00000DD00000
00000DD00000
00000DD00000
00000DD00000
00000DD00000
00000DD00000
00000DD00000
00000DD00000
00000DD00000
000000000000
00000DA10000
000002D70000
000014E60000
0000CC700000
ENDCHAR
STARTCHAR uni021B
ENCODING 539
SWIDTH 600 0
DWIDTH 12 0
BBX 10 18 1 -5
BITMAP
0009C00000
000BC00000
000CC00000
9EFFFFFFF8
000DC00000
000DC00000
000DC00000
000DC00000
000DC00000
000CC00000
000AE00000
0003F92024
00005CFED8
0000000000
000006D600
0000006F10
0000028E00
00004EA300
ENDCHAR
STARTCHAR uni0237
ENCODING 567
SWIDTH 600 0
DWIDTH 12 0
BBX 7 14 1 -4
BITMAP
3FFFFFE0
00000AE0
00000AE0
00000AE0
00000AE0
00000AE0
00000AE0
00000AE0
00000AE0
00000AE0
00000BD0
00000DB0
43118F50
8DEEC500
ENDCHAR
STARTCHAR uni0243
ENCODING 579
SWIDTH 600 0
DWIDTH 12 0
BBX 11 13 0 0
BITMAP
00EFFFEC8100
00EC0015EB00
00EC00007F30
00EC00005F40
00EC00008F10
00EC0026F700
00EFFFFF9200
00EC0013AE50
00EC00000CD0
7EFFFF9009F0
00EC00000DD0
00EC0013AF50
00EFFFEDA300
ENDCHAR
STARTCHAR uni0250
ENCODING 592
SWIDTH 600 0
DWIDTH 12 0
BBX 10 10 1 0
BITMAP
2F429EEC50
2FBB4119F4
2FB00001F8
2F800006F5
2F8147BF80
2FFECA6200
1F90000000
0DD0000000
06F9213AD0
006CFEC940
ENDCHAR
STARTCHAR uni0251
ENCODING 593
SWIDTH 600 0
DWIDTH 12 0
BBX 10 10 1 0
BITMAP
006CFD74F2
08F8117EF2
3F900008F2
9F200008F2
BF000008F2
CE000008F2
AF100008F2
5F700009F2
0BE5029CF2
018DFC54F2
ENDCHAR
STARTCHAR uni0252
ENCODING 594
SWIDTH 600 0
DWIDTH 12 0
BBX 10 10 1 0
BITMAP
2F45CEE910
2FC9204EC0
2F900006F6
2F800001FA
2F800000EC
2F800000FB
2F800002F9
2F800009F3
2FE8217F80
2F47DFC600
ENDCHAR
STARTCHAR uni0253
ENCODING 595
SWIDTH 600 0
DWIDTH 12 0
BBX 10 14 1 0
BITMAP
007DFD2000
08F4120000
0EA0000000
2F70000000
2F74BEE910
2FDA304EC0
2F900006F6
2F800001FA
2F800000EC
2F800000FB
2F800002F9
2F800008F3
2FE8217F80
2F47DFC600
ENDCHAR
STARTCHAR uni0254
ENCODING 596
SWIDTH 600 0
DWIDTH 12 0
BBX 10 10 1 0
BITMAP
17CEFD8100
4D6115DD20
0000002EB0
00000008F3
00000005F5
00000005F5
00000008F3
0000002EC0
8D4115ED20
18CEFD8100
ENDCHAR
STARTCHAR uni0255
ENCODING 597
SWIDTH 600 0
DWIDTH 12 0
BBX 10 12 1 -2
BITMAP
0017CEEC70
01DE5115D4
0BE2000000
2F70000000
5F40000000
5F40000000
3F7018DFC3
0CE5DB31BA
02DFD203D8
00BDCEFD80
04F4000000
05B0000000
ENDCHAR
STARTCHAR uni0256
ENCODING 598
SWIDTH 600 0
DWIDTH 12 0
BBX 11 18 1 -4
BITMAP
00000008F100
00000008F100
00000008F100
00000008F100
006CFD68F100
08F8118EF100
3F900009F100
9F200008F100
BF000008F100
CE000008F100
AF100008F100
5F70000AF100
0BE5029DF100
018DFC47F100
00000007F100
00000006F200
00000003F610
000000008EE0
ENDCHAR
STARTCHAR uni0257
ENCODING 599
SWIDTH 600 0
DWIDTH 12 0
BBX 12 14 1 0
BITMAP
000000008EE1
00000004F610
00000007F200
00000008F100
006CFD78F100
08F8118EF100
3F900009F100
9F200008F100
BF000008F100
CE000008F100
AF100008F100
5F70000AF100
0CE502ACF100
018EFC45F100
ENDCHAR
STARTCHAR uni0258
ENCODING 600
SWIDTH 600 0
DWIDTH 12 0
BBX 10 10 1 0
BITMAP
006CFEB300
0BD5129F50
6F300009E1
AD000003F6
BFFFFFFFF9
00000002F9
00000006F6
0000001DE1
1B5214CE40
17CEFD9200
ENDCHAR
STARTCHAR uni0259
ENCODING 601
SWIDTH 600 0
DWIDTH 12 0
BBX 10 10 1 0
BITMAP
05ADFEB400
0973127F70
00000007F3
00000001F8
9FFFFFFFFA
9E000000FA
7F100003F8
2F80000AF3
07F6128F70
005CEEB500
ENDCHAR
STARTCHAR uni025A
ENCODING 602
SWIDTH 600 0
DWIDTH 12 0
BBX 13 10 0 0
BITMAP
06CEEB40000000
075119F4000000
000000CD7C3000
000003CFCB9100
0016CEBF52DE30
28ED613F500000
7F40005F300000
3F30009D000000
0AC316F5000000
008EFC50000000
ENDCHAR
STARTCHAR uni025B
ENCODING 603
SWIDTH 600 0
DWIDTH 12 0
BBX 10 10 1 0
BITMAP
005BEFEB61
06F82015C2
0AF0000000
04E8200000
006FFFE000
0AE6100000
2F80000000
2F90000000
09F72015C6
006CEFEC81
ENDCHAR
STARTCHAR uni025C
ENCODING 604
SWIDTH 600 0
DWIDTH 12 0
BBX 10 10 1 0
BITMAP
16BEFEB600
3D51017F70
0000000EB0
0000027F50
001FFFF800
0000015EB0
00000007F3
00000008F3
8C52026FB0
17CDFEC600
ENDCHAR
STARTCHAR uni025E
ENCODING 606
SWIDTH 600 0
DWIDTH 12 0
BBX 10 10 1 0
BITMAP
003AEFDA20
06FA203CE1
2FA00006F3
8F20003CC0
BE001FFD30
BE00002AF4
9F100000FA
3F800001FA
07F9312AF4
004AEFDA40
ENDCHAR
STARTCHAR uni025F
ENCODING 607
SWIDTH 600 0
DWIDTH 12 0
BBX 11 14 1 -4
BITMAP
3FFFFFE00000
00000AE00000
00000AE00000
00000AE00000
00000AE00000
08EEFFFFFF40
00000AE00000
00000AE00000
00000AE00000
00000AE00000
00000BE00000
00000DB00000
43117F500000
8DEEC5000000
ENDCHAR
STARTCHAR uni0260
ENCODING 608
SWIDTH 600 0
DWIDTH 12 0
BBX 12 16 1 -4
BITMAP
000000008EE1
00000005F710
006CFD68F200
09F7117EF100
4F800009F100
9F200008F100
CE000008F100
BF000008F100
9F200008F100
3F90001CF100
08FA57CBF100
0039A718F100
00000009F100
0000000CD000
0962029F5000
06BDFDB30000
ENDCHAR
STARTCHAR uni0261
ENCODING 609
SWIDTH 600 0
DWIDTH 12 0
BBX 10 14 1 -4
BITMAP
006CFD74F2
08F7118DF2
3F900008F2
9F200008F2
BE000008F2
CE000008F2
AF100008F2
5F700009F2
0BE5129DF2
018DFC57F2
00000007F2
0000000BD0
0972029F50
06BDFEB400
ENDCHAR
STARTCHAR uni0262
ENCODING 610
SWIDTH 600 0
DWIDTH 12 0
BBX 10 10 1 0
BITMAP
0017CFEC60
02DD5116D3
0CE2000000
3F70000000
6F40000000
6F4009FFF8
3F700000E8
0CE10000E8
03ED4127F7
0019DFEB60
ENDCHAR
STARTCHAR uni0263
ENCODING 611
SWIDTH 600 0
DWIDTH 12 0
BBX 10 14 1 -4
BITMAP
BD000000DB
4F500004F5
0CC0000AD0
06F3002F60
00D9008E10
007F11E800
001E76F100
0008ED9000
0003FF4000
0008DD9000
001E76F100
004F32F500
002F65F300
0007EE7000
ENDCHAR
STARTCHAR uni0264
ENCODING 612
SWIDTH 600 0
DWIDTH 12 0
BBX 10 10 1 0
BITMAP
8EE8008EE8
114DBBD411
0006FF6000
004FCCF400
01ED11DE10
08F4004F80
0AE0000EA0
08E0000E80
02F9119F20
003BEEB300
ENDCHAR
STARTCHAR uni0265
ENCODING 613
SWIDTH 600 0
DWIDTH 12 0
BBX 10 14 1 -4
BITMAP
7F300008F2
7F300008F2
7F300008F2
7F300008F2
7F300008F2
7F300008F2
6F300008F2
4F60001CF2
0DD314B9F2
02BEEA17F2
00000007F2
00000008F2
00000008F2
00000008F2
ENDCHAR
STARTCHAR uni0266
ENCODING 614
SWIDTH 600 0
DWIDTH 12 0
BBX 10 14 1 0
BITMAP
007DFD2000
08F5120000
0EA0000000
2F70000000
2F719EEB30
2F8B413DD0
2FD10006F4
2F800003F6
2F800003F7
2F800003F7
2F800003F7
2F800003F7
2F800003F7
2F800003F7
ENDCHAR
STARTCHAR uni0267
ENCODING 615
SWIDTH 600 0
DWIDTH 12 0
BBX 10 18 1 -4
BITMAP
007DFD2000
08F5120000
0EA0000000
2F70000000
2F719EEB20
2F8B413DD0
2FD10006F4
2F800004F6
2F800003F7
2F800003F7
2F800003F7
2F800003F7
2F800003F7
2F800003F7
00000003F7
00000004F5
00000119F1
00000AFD50
ENDCHAR
STARTCHAR uni0268
ENCODING 616
SWIDTH 600 0
DWIDTH 12 0
BBX 11 15 1 0
BITMAP
00001DC10000
00005FF30000
00001DC10000
000000000000
000000000000
3FFFFFE00000
00000AE00000
00000AE00000
00000AE00000
00000AE00000
05EEFFFFFF40
00000AE00000
00000AE00000
00000AE00000
00000AE00000
ENDCHAR
STARTCHAR uni026A
ENCODING 618
SWIDTH 600 0
DWIDTH 12 0
BBX 10 10 1 0
BITMAP
4FFFFFFFF4
0000DC0000
0000DC0000
0000DC0000
0000DC0000
0000DC0000
0000DC0000
0000DC0000
0000DC0000
4FFFFFFFF4
ENDCHAR
STARTCHAR uni026B
ENCODING 619
SWIDTH 600 0
DWIDTH 12 0
BBX 10 14 1 0
BITMAP
8FFFF90000
0001F90000
0001F90000
0001F90000
0166F90320
0ACBFE1C60
0B31FFEB10
0001F90000
0001F90000
0001F90000
0001F90000
0000EA0000
00009E4022
000019EFD6
ENDCHAR
STARTCHAR uni026C
ENCODING 620
SWIDTH 600 0
DWIDTH 12 0
BBX 10 14 1 0
BITMAP
8FFFF90000
0001F90000
0001F90000
0001F90000
0001F90000
2CEAF90000
6E25F90000
19EFFFFF60
0001F90000
0001F90000
0001F90000
0000EA0000
00009E4022
000019EFD6
ENDCHAR
STARTCHAR uni026D
ENCODING 621
SWIDTH 600 0
DWIDTH 12 0
BBX 10 18 1 -4
BITMAP
8FFFF90000
0001F90000
0001F90000
0001F90000
0001F90000
0001F90000
0001F90000
0001F90000
0001F90000
0001F90000
0001F90000
0001F90000
0001F90000
0001F90000
0001F90000
0000EA0000
00009E4022
000019EED6
ENDCHAR
STARTCHAR uni026E
ENCODING 622
SWIDTH 600 0
DWIDTH 12 0
BBX 11 18 1 -4
BITMAP
6F3000000000
6F3000000000
6F3000000000
6F3000000000
6FFFFFFFFF00
6F300007F800
6F30003FB000
6F3001DE2000
6F3009F40000
6F305F800000
6F30CFFE9100
6F302116FB00
6F3000008F30
6F3000005F60
000000006F50
00100000AE10
009C4118F600
0028DEFC5000
ENDCHAR
STARTCHAR uni026F
ENCODING 623
SWIDTH 600 0
DWIDTH 12 0
BBX 11 10 0 0
BITMAP
2F700E900CD0
2F700E900CD0
2F700E900CD0
2F700E900CD0
2F700E900CD0
2F700E900CD0
2F700E900CD0
2F801F900DD0
0DC19CD17DD0
04DE52DE78D0
ENDCHAR
STARTCHAR uni0270
ENCODING 624
SWIDTH 600 0
DWIDTH 12 0
BBX 11 14 0 -4
BITMAP
2F700E900CD0
2F700E900CD0
2F700E900CD0
2F700E900CD0
2F700E900CD0
2F700E900CD0
2F700E900CD0
2F801E900DD0
0DC19CD17DD0
04DE63DE7AD0
000000000BD0
000000000BD0
000000000BD0
000000000BD0
ENDCHAR
STARTCHAR uni0271
ENCODING 625
SWIDTH 600 0
DWIDTH 12 0
BBX 11 14 1 -4
BITMAP
D87ED26ED400
DD71DC91CD00
DD009F108F10
DC009E007F20
DC009E007F20
DC009E007F20
DC009E007F20
DC009E007F20
DC009E007F20
DC009E007F20
000000007F20
000000008F10
00000011BD00
0000007FD400
ENDCHAR
STARTCHAR uni0272
ENCODING 626
SWIDTH 600 0
DWIDTH 12 0
BBX 11 14 0 -4
BITMAP
01F519EEB200
01F9C413DD00
01FD20006F40
01F900003F60
01F900003F70
01F900003F70
01F900003F70
01F900003F70
01F900003F70
01F900003F70
01F900000000
01F800000000
16F400000000
DE8000000000
ENDCHAR
STARTCHAR uni0273
ENCODING 627
SWIDTH 600 0
DWIDTH 12 0
BBX 12 14 1 -4
BITMAP
2F42AEEB2000
2F8C413DC000
2FC10007F300
2F800005F500
2F800004F600
2F800004F600
2F800004F600
2F800004F600
2F800004F600
2F800004F600
00000004F600
00000003F600
00000000EA10
000000005DF4
ENDCHAR
STARTCHAR uni0274
ENCODING 628
SWIDTH 600 0
DWIDTH 12 0
BBX 10 10 1 0
BITMAP
1FC00007F1
1FF70007F1
1FBF3007F1
1F6CC007F1
1F73F707F1
1F707F37F1
1F700CC6F1
1F7003FBF1
1F70008FF1
1F70000CF1
ENDCHAR
STARTCHAR uni0275
ENCODING 629
SWIDTH 600 0
DWIDTH 12 0
BBX 10 10 1 0
BITMAP
005CEEC500
08E6116E80
3F600006F3
9E000000E9
BFFFFFFFFB
BD000000DB
9F100001F9
4F800008F4
08F6117F80
005CEEC500
ENDCHAR
STARTCHAR uni0276
ENCODING 630
SWIDTH 600 0
DWIDTH 12 0
BBX 12 10 0 0
BITMAP
004CFFFFFFF8
04F921CB0000
0DD000CB0000
3F8000CB0000
5F6000CFFFC0
5F6000CB0000
3F8000CB0000
0DD000CB0000
04F811CB0000
004CFFFFFFFB
ENDCHAR
STARTCHAR uni0278
ENCODING 632
SWIDTH 600 0
DWIDTH 12 0
BBX 12 18 0 -4
BITMAP
00000CC00000
00000CC00000
00000CC00000
00000CC00000
0018DFFD8100
01DD4CC4DD10
09F20CC02F80
0EB00CC00BE0
1F900CC009F1
1F900CC009F1
0EB00CC00BE0
08F20CC02F80
01CD4CC4DC10
0018DFFD8100
00000CC00000
00000CC00000
00000CC00000
00000CC00000
ENDCHAR
STARTCHAR uni0279
ENCODING 633
SWIDTH 600 0
DWIDTH 12 0
BBX 9 10 1 0
BITMAP
0000008F10
0000008F10
0000008F10
0000008F10
0000008F10
0000008F10
000000AF10
000006DF10
2203996F10
8EEC605F10
ENDCHAR
STARTCHAR uni027A
ENCODING 634
SWIDTH 600 0
DWIDTH 12 0
BBX 9 14 1 0
BITMAP
0000008F10
0000008F10
0000008F10
0000008F10
0000008F10
0000008F10
0000008F10
0000008F10
0000008F10
0000008F10
000000AF10
000005DF10
22028A6F10
8EEC605F10
ENDCHAR
STARTCHAR uni027B
ENCODING 635
SWIDTH 600 0
DWIDTH 12 0
BBX 10 14 1 -4
BITMAP
00001F8000
00001F8000
00001F8000
00001F8000
00001F8000
00001F8000
00001F8000
00007F8000
21169E8000
8EE80E8000
00000E8000
00000D9000
000009D220
000001BEE3
ENDCHAR
STARTCHAR uni027D
ENCODING 637
SWIDTH 600 0
DWIDTH 12 0
BBX 9 14 2 -4
BITMAP
1F505CEE80
1F59930220
1FC6000000
1FB0000000
1F80000000
1F80000000
1F80000000
1F80000000
1F80000000
1F80000000
0F90000000
0DC0000000
06F7113300
007DFEC600
ENDCHAR
STARTCHAR uni027E
ENCODING 638
SWIDTH 600 0
DWIDTH 12 0
BBX 9 10 2 0
BITMAP
0017CEFE70
01CE620220
08F4000000
0DC0000000
1F90000000
1F80000000
1F80000000
1F80000000
1F80000000
1F80000000
ENDCHAR
STARTCHAR uni0280
ENCODING 640
SWIDTH 600 0
DWIDTH 12 0
BBX 9 10 2 0
BITMAP
FFFFFEB300
FA0002BE20
FA00004F60
FA00004F50
FA0003CE10
FFFFFFB200
FA005F6000
FA000AE200
FA0001EC00
FA00004F80
ENDCHAR
STARTCHAR uni0281
ENCODING 641
SWIDTH 600 0
DWIDTH 12 0
BBX 9 10 1 0
BITMAP
8F40000AF0
0CE1000AF0
02FA000AF0
006F500AF0
02BFFFFFF0
1EC3000AF0
6F40000AF0
6F40000AF0
2EB2000AF0
03BEFFFFF0
ENDCHAR
STARTCHAR uni0282
ENCODING 642
SWIDTH 600 0
DWIDTH 12 0
BBX 10 14 1 -4
BITMAP
006CEFD940
08E5114A90
0EB0000000
0BF7100000
02BFFC8300
00026AEFB1
00000009F6
02000003F7
6FA4102BE2
9E8CEED920
9E00000000
7F00000000
4F51000000
08EE300000
ENDCHAR
STARTCHAR uni0283
ENCODING 643
SWIDTH 600 0
DWIDTH 12 0
BBX 10 18 1 -4
BITMAP
000007DFD7
00005F7123
0000AE0000
0000CD0000
0000CD0000
0000CD0000
0000CD0000
0000CD0000
0000CD0000
0000CD0000
0000CD0000
0000CD0000
0000CD0000
0000CD0000
0000CC0000
0000DB0000
3315F60000
8DFD800000
ENDCHAR
STARTCHAR uni0284
ENCODING 644
SWIDTH 600 0
DWIDTH 12 0
BBX 10 19 1 -4
BITMAP
000007DFD7
00004F7123
00009E0000
0000BD0000
0000CD0000
0000CD0000
0000CD0000
0000CD0000
0000CD0000
4EEFFFFFF5
0000CD0000
0000CD0000
0000CD0000
0000CD0000
0000CD0000
0000CC0000
0000EA0000
3316F50000
8DFE800000
ENDCHAR
STARTCHAR uni0287
ENCODING 647
SWIDTH 600 0
DWIDTH 12 0
BBX 10 13 1 -3
BITMAP
8DEFC50000
42029F3000
00001EA000
00000CC000
00000CD000
00000CD000
00000CD000
00000CD000
00000CD000
8FFFFFFFE9
00000CC000
00000CB000
00000C9000
ENDCHAR
STARTCHAR uni0288
ENCODING 648
SWIDTH 600 0
DWIDTH 12 0
BBX 10 17 1 -4
BITMAP
0009C00000
000BC00000
000CC00000
9EFFFFFFF8
000DC00000
000DC00000
000DC00000
000DC00000
000DC00000
000DC00000
000DC00000
000DC00000
000DC00000
000CC00000
0009E00000
0003F92023
00005CFED8
ENDCHAR
STARTCHAR uni0289
ENCODING 649
SWIDTH 600 0
DWIDTH 12 0
BBX 12 10 0 0
BITMAP
01F90000EA00
01F90000EA00
01F90000EA00
01F90000EA00
DFFFFFFFFFFB
01F90000EA00
00F90000EA00
00EB0003FA00
00AF414DDA00
001AEEB2BA00
ENDCHAR
STARTCHAR uni028A
ENCODING 650
SWIDTH 600 0
DWIDTH 12 0
BBX 10 10 1 0
BITMAP
FFFD00DFFF
04F4004F40
1E800009E1
6F300003F6
AF000000FA
BE000000EB
9F100001F9
4F800008F4
08F7117F80
005CEEC500
ENDCHAR
STARTCHAR uni028B
ENCODING 651
SWIDTH 600 0
DWIDTH 12 0
BBX 10 10 1 0
BITMAP
7F3007FD50
7F30001AF4
7F300002F9
7F300000EC
7F300000EC
7F300001FA
5F400004F7
2F90000AE1
08F7118F60
006CEEB400
ENDCHAR
STARTCHAR uni028C
ENCODING 652
SWIDTH 600 0
DWIDTH 12 0
BBX 10 10 1 0
BITMAP
0002FF1000
0008DE7000
000E89D000
005F24F500
00CC00DB00
03F6007F20
09E1001F80
1E90000AE0
6F300004F5
CC000000DC
ENDCHAR
STARTCHAR uni028D
ENCODING 653
SWIDTH 600 0
DWIDTH 12 0
BBX 12 10 0 0
BITMAP
00DF7008FC00
01FEB00BEF10
04F8E00E9F40
07E3F33F3F70
0BC0E66D0DA0
0E90B99A0AD0
2F608CC607F1
5F305EE304F5
8F001FE001F8
BC00055000EB
ENDCHAR
STARTCHAR uni028E
ENCODING 654
SWIDTH 600 0
DWIDTH 12 0
BBX 10 14 1 0
BITMAP
0000006CF8
000007F511
00002F7000
00009F1000
0001EA0000
0007FB0000
000D9E3000
004F29B000
00BC02F300
02F600AB00
08E0004F40
1E80000CB0
6F200005F4
CB000000DB
ENDCHAR
STARTCHAR uni028F
ENCODING 655
SWIDTH 600 0
DWIDTH 12 0
BBX 10 10 1 0
BITMAP
8F300003F9
1DC0000BE1
05F6005F60
00BE11DB00
002F87F300
0007FE8000
0000DE1000
0000CD0000
0000CD0000
0000CD0000
ENDCHAR
STARTCHAR uni0290
ENCODING 656
SWIDTH 600 0
DWIDTH 12 0
BBX 12 14 1 -4
BITMAP
0DFFFFFFF300
0000007F8000
000004FC0000
00001DE20000
0000BF400000
0008F7000000
005FA0000000
02ED10000000
0CE300000000
7FFFFFFFF500
00000004F500
00000003F600
00000001EA10
000000005DF4
ENDCHAR
STARTCHAR uni0291
ENCODING 657
SWIDTH 600 0
DWIDTH 12 0
BBX 11 13 1 -3
BITMAP
0DFFFFFFF100
0000007FA000
000004FC1000
00002EE20000
0000BF400000
0008F6000000
005F9008ED30
02EC006C2B90
1CE101E42D60
8FFFEEFFD800
00000B800000
00000E400000
000003100000
ENDCHAR
STARTCHAR uni0292
ENCODING 658
SWIDTH 600 0
DWIDTH 12 0
BBX 10 14 1 -4
BITMAP
0FFFFFFFE1
0000007F50
000005F700
00004F9000
0002EB0000
001DD10000
00CFEFD810
0042027FB0
00000007F5
00000003F8
00000003F7
2300000AF2
8E82029F60
05BEFEB400
ENDCHAR
STARTCHAR uni0294
ENCODING 660
SWIDTH 600 0
DWIDTH 12 0
BBX 10 14 1 0
BITMAP
04ADFDA400
5F92029F40
0500000BE0
00000008F2
0000000AF2
0000003FC0
000003EE30
00019FD300
0003FB1000
0003F60000
0003F60000
0003F60000
0003F60000
0003F60000
ENDCHAR
STARTCHAR uni0295
ENCODING 661
SWIDTH 600 0
DWIDTH 12 0
BBX 10 14 1 0
BITMAP
004BDFDA40
05F9203AF4
0EB0000060
3F70000000
2F90000000
0CE2000000
03FE300000
003EF91000
0001BF3000
00007F3000
00007F3000
00007F3000
00007F3000
00007F3000
ENDCHAR
STARTCHAR uni0298
ENCODING 664
SWIDTH 600 0
DWIDTH 12 0
BBX 10 14 1 0
BITMAP
003BEEB300
04F8118F40
0DA0000BD0
5F400004F5
9F000000F9
BD004400DB
CC02FF20CC
CC01EE10CC
BD001100DB
9F000000F9
5F300003F5
1EA0000AE1
05F7118F50
004BEEB400
ENDCHAR
STARTCHAR uni0299
ENCODING 665
SWIDTH 600 0
DWIDTH 12 0
BBX 9 10 2 0
BITMAP
BFFFFEC600
BE00018F50
BE00001F80
BE00029E30
BFFFFFF600
BE00017F70
BE00000BE0
BE00000BE0
BE00016F80
BFFFFEC600
ENDCHAR
STARTCHAR uni029C
ENCODING 668
SWIDTH 600 0
DWIDTH 12 0
BBX 10 10 1 0
BITMAP
2F800008F2
2F800008F2
2F800008F2
2F800008F2
2F800008F2
2FFFFFFFF2
2F800008F2
2F800008F2
2F800008F2
2F800008F2
ENDCHAR
STARTCHAR uni029D
ENCODING 669
SWIDTH 600 0
DWIDTH 12 0
BBX 9 20 1 -5
BITMAP
00001DC100
00005FF300
00001DC100
0000000000
0000000000
3FFFFFE000
00000AE000
00000AE000
00000AE000
00000AE000
00000AE000
00000AE000
00000AE000
00000AE000
00000AE000
3CEEACE000
CA128FD000
BB119FF700
2AEEC57F20
0000000C40
ENDCHAR
STARTCHAR uni029E
ENCODING 670
SWIDTH 600 0
DWIDTH 12 0
BBX 10 14 0 -4
BITMAP
09E20000CD
01DB0000CD
004F6000CD
0009E209FD
0001EBAFED
00005FF5CD
0001BF50CD
001BE400CD
01CE3000CD
1CE30000CD
00000000CD
00000000CD
00000000CD
00000000CD
ENDCHAR
STARTCHAR uni029F
ENCODING 671
SWIDTH 600 0
DWIDTH 12 0
BBX 9 10 2 0
BITMAP
1F90000000
1F90000000
1F90000000
1F90000000
1F90000000
1F90000000
1F90000000
1F90000000
1F90000000
1FFFFFFFA0
ENDCHAR
STARTCHAR uni02A1
ENCODING 673
SWIDTH 600 0
DWIDTH 12 0
BBX 10 14 1 0
BITMAP
04ADFDB400
5FA3029F50
0500000CE0
00000008F2
0000000AF1
0000002EC0
000002DE30
00005EC200
7FFFFFFFF5
0003F60000
0003F60000
0003F60000
0003F60000
0003F60000
ENDCHAR
STARTCHAR uni02A2
ENCODING 674
SWIDTH 600 0
DWIDTH 12 0
BBX 10 14 1 0
BITMAP
004BDFDA30
05F9203AF5
0EB0000060
2F80000000
1F90000000
0CE2000000
03EC200000
003CE40000
5EFFFFFFF8
00006F3000
00006F3000
00006F3000
00006F3000
00006F3000
ENDCHAR
STARTCHAR uni02A4
ENCODING 676
SWIDTH 600 0
DWIDTH 12 0
BBX 13 18 0 -4
BITMAP
00000E80000000
00000E80000000
00000E80000000
00000E80000000
04CE7EFFFFFD00
2EA18F8001E700
8F100E8009D000
DC000E802F6000
FA000E80AD0000
FA000E83F60000
DB000E88FFB100
AE001F8112DB00
3F71AE80007F20
06DE6A80005F50
00000000005F50
00000000008F20
0000005713E900
0000004CFE8000
ENDCHAR
STARTCHAR uni02A6
ENCODING 678
SWIDTH 600 0
DWIDTH 12 0
BBX 12 13 0 0
BITMAP
00B800000000
00D900000000
00E900000000
7FFFFFFFFD91
01F900EC1270
01F900E90000
01F9005F6000
01F90004EC20
01F900001CD1
00F9000003F5
00DC000003F5
006F82013CE1
0005BEFED920
ENDCHAR
STARTCHAR uni02A7
ENCODING 679
SWIDTH 600 0
DWIDTH 12 0
BBX 12 18 0 -4
BITMAP
000000002BED
005F1000BE21
006F1000EB00
008F1000EA00
1EFFFFFFFA00
009F1000EA00
009F1000EA00
009F1000EA00
009F1000EA00
009F1000EA00
009F1000EA00
008F2000EA00
004F7120EA00
0007DFA0EA00
00000000EA00
00000000F900
00000014F500
000003EE9000
ENDCHAR
STARTCHAR h.sups
ENCODING 688
SWIDTH 600 0
DWIDTH 12 0
BBX 7 10 3 7
BITMAP
6A000000
8C000000
8C000000
8B8EE700
8F616F10
8C001F30
8C001F30
8C001F30
8C001F30
46001820
ENDCHAR
STARTCHAR j.sups
ENCODING 690
SWIDTH 600 0
DWIDTH 12 0
BBX 6 12 2 5
BITMAP
0003D6
000000
000000
0BFFF6
0000E6
0000E6
0000E6
0000E6
0000E6
0000E5
0304F2
1CFD60
ENDCHAR
STARTCHAR r.sups
ENCODING 691
SWIDTH 600 0
DWIDTH 12 0
BBX 6 7 4 7
BITMAP
2F2BFC
2FC401
2F5000
2F2000
2F2000
2F2000
171000
ENDCHAR
STARTCHAR w.sups
ENCODING 695
SWIDTH 600 0
DWIDTH 12 0
BBX 9 6 1 8
BITMAP
C701F503E0
8B06AA07B0
3E0A4D0A60
0E4D0B4E20
09AB07AD00
05F703F800
ENDCHAR
STARTCHAR y.sups
ENCODING 696
SWIDTH 600 0
DWIDTH 12 0
BBX 8 9 2 5
BITMAP
1E4003E1
08A00990
02F20E30
00A74D00
004D9700
000CE100
0008A000
003E3000
0BE60000
ENDCHAR
STARTCHAR uni02B9
ENCODING 697
SWIDTH 600 0
DWIDTH 12 0
BBX 3 5 5 9
BITMAP
7F20
8F00
AC00
B800
C500
ENDCHAR
STARTCHAR uni02BB
ENCODING 699
SWIDTH 600 0
DWIDTH 12 0
BBX 4 7 4 7
BITMAP
0195
0BC2
5E10
AA00
CFD2
AFF6
3DD2
ENDCHAR
STARTCHAR uni02BC
ENCODING 700
SWIDTH 600 0
DWIDTH 12 0
BBX 4 7 4 7
BITMAP
2DD2
7FF9
3EFB
00A9
02F4
2CA0
6900
ENDCHAR
STARTCHAR uni02BE
ENCODING 702
SWIDTH 600 0
DWIDTH 12 0
BBX 5 7 4 10
BITMAP
7E9100
03DA00
005F10
002F20
005F10
03DA00
7D9100
ENDCHAR
STARTCHAR uni02BF
ENCODING 703
SWIDTH 600 0
DWIDTH 12 0
BBX 5 7 3 10
BITMAP
019E70
0AD300
1F5000
2F2000
1F5000
0AD300
019D70
ENDCHAR
STARTCHAR uni02C1
ENCODING 705
SWIDTH 600 0
DWIDTH 12 0
BBX 6 8 3 9
BITMAP
08DFC4
8D3059
B80000
9B0000
2E9000
02CC00
005E00
004A00
ENDCHAR
STARTCHAR circumflex
ENCODING 710
SWIDTH 600 0
DWIDTH 12 0
BBX 6 3 3 12
BITMAP
04FF40
4E66E4
B4004B
ENDCHAR
STARTCHAR caron
ENCODING 711
SWIDTH 600 0
DWIDTH 12 0
BBX 6 3 3 12
BITMAP
B4004B
4E66E4
04FF40
ENDCHAR
STARTCHAR uni02C8
ENCODING 712
SWIDTH 600 0
DWIDTH 12 0
BBX 2 7 5 7
BITMAP
FF
EE
DD
CC
BA
99
33
ENDCHAR
STARTCHAR uni02C9
ENCODING 713
SWIDTH 600 0
DWIDTH 12 0
BBX 6 1 3 12
BITMAP
AFFFFA
ENDCHAR
STARTCHAR uni02CA
ENCODING 714
SWIDTH 600 0
DWIDTH 12 0
BBX 5 4 4 11
BITMAP
001B30
00BF40
0AE400
1C3000
ENDCHAR
STARTCHAR uni02CB
ENCODING 715
SWIDTH 600 0
DWIDTH 12 0
BBX 5 4 3 11
BITMAP
3B1000
4FB000
04EA00
003C10
ENDCHAR
STARTCHAR uni02CC
ENCODING 716
SWIDTH 600 0
DWIDTH 12 0
BBX 2 6 5 -5
BITMAP
99
AA
BB
CC
EE
FF
ENDCHAR
STARTCHAR uni02D0
ENCODING 720
SWIDTH 600 0
DWIDTH 12 0
BBX 4 10 4 0
BITMAP
AFFA
1EE1
0660
0000
0000
0000
0000
0660
1EE1
AFFA
ENDCHAR
STARTCHAR uni02D1
ENCODING 721
SWIDTH 600 0
DWIDTH 12 0
BBX 4 3 4 7
BITMAP
AFFA
1EE1
0660
ENDCHAR
STARTCHAR breve
ENCODING 728
SWIDTH 600 0
DWIDTH 12 0
BBX 8 4 2 11
BITMAP
01000010
1F2002F1
0AB22BA0
019EE910
ENDCHAR
STARTCHAR dotaccent
ENCODING 729
SWIDTH 600 0
DWIDTH 12 0
BBX 4 3 4 12
BITMAP
1DD1
4FF4
1DD1
ENDCHAR
STARTCHAR ring
ENCODING 730
SWIDTH 600 0
DWIDTH 12 0
BBX 6 4 3 11
BITMAP
07EE70
2E22E2
2E22E2
07EE70
ENDCHAR
STARTCHAR ogonek
ENCODING 731
SWIDTH 600 0
DWIDTH 12 0
BBX 4 4 4 -4
BITMAP
0A60
8900
B913
4DEA
ENDCHAR
STARTCHAR tilde
ENCODING 732
SWIDTH 600 0
DWIDTH 12 0
BBX 8 3 2 12
BITMAP
02630042
2E9D71D5
5A02BEA0
ENDCHAR
STARTCHAR hungarumlaut
ENCODING 733
SWIDTH 600 0
DWIDTH 12 0
BBX 6 4 4 11
BITMAP
087087
1E51E5
8B08B0
B20B30
ENDCHAR
STARTCHAR uni02DE
ENCODING 734
SWIDTH 600 0
DWIDTH 12 0
BBX 6 4 2 5
BITMAP
001300
2AFA00
696E21
0008E9
ENDCHAR
STARTCHAR uni02E0
ENCODING 736
SWIDTH 600 0
DWIDTH 12 0
BBX 6 9 3 5
BITMAP
D6005D
7B00B7
1E21E1
097690
03CC30
00DD00
05AA50
088890
03EE40
ENDCHAR
STARTCHAR l.sups
ENCODING 737
SWIDTH 600 0
DWIDTH 12 0
BBX 7 9 3 8
BITMAP
1FFC0000
007C0000
007C0000
007C0000
007C0000
007C0000
007C0000
005E2200
001BFD10
ENDCHAR
STARTCHAR s.sups
ENCODING 738
SWIDTH 600 0
DWIDTH 12 0
BBX 6 6 3 8
BITMAP
09EEC4
5E2143
1AB610
0016C8
56107E
3AEEC4
ENDCHAR
STARTCHAR x.sups
ENCODING 739
SWIDTH 600 0
DWIDTH 12 0
BBX 6 7 3 7
BITMAP
5E209B
0AA3E2
01DD60
01DF30
08A7C0
3E20C8
440026
ENDCHAR
STARTCHAR uni02E4
ENCODING 740
SWIDTH 600 0
DWIDTH 12 0
BBX 6 10 3 7
BITMAP
08DFC4
8D3059
B80000
9B0000
2E9000
02CC00
005E00
005E00
005E00
002600
ENDCHAR
STARTCHAR uni0300
ENCODING 768
SWIDTH 600 0
DWIDTH 12 0
BBX 5 4 3 11
BITMAP
3B1000
4FB000
04EA00
003C10
ENDCHAR
STARTCHAR uni0301
ENCODING 769
SWIDTH 600 0
DWIDTH 12 0
BBX 5 4 4 11
BITMAP
001B30
00BF40
0AE400
1C3000
ENDCHAR
STARTCHAR uni0302
ENCODING 770
SWIDTH 600 0
DWIDTH 12 0
BBX 6 3 3 12
BITMAP
04FF40
4E66E4
B4004B
ENDCHAR
STARTCHAR uni0303
ENCODING 771
SWIDTH 600 0
DWIDTH 12 0
BBX 8 3 2 12
BITMAP
02630042
2E9D71D5
5A02BEA0
ENDCHAR
STARTCHAR uni0304
ENCODING 772
SWIDTH 600 0
DWIDTH 12 0
BBX 6 1 3 12
BITMAP
AFFFFA
ENDCHAR
STARTCHAR uni0305
ENCODING 773
SWIDTH 600 0
DWIDTH 12 0
BBX 6 1 3 12
BITMAP
AFFFFA
ENDCHAR
STARTCHAR uni0306
ENCODING 774
SWIDTH 600 0
DWIDTH 12 0
BBX 8 4 2 11
BITMAP
01000010
1F2002F1
0AB22BA0
019EE910
ENDCHAR
STARTCHAR uni0307
ENCODING 775
SWIDTH 600 0
DWIDTH 12 0
BBX 4 3 4 12
BITMAP
1DD1
4FF4
1DD1
ENDCHAR
STARTCHAR uni0308
ENCODING 776
SWIDTH 600 0
DWIDTH 12 0
BBX 6 2 3 12
BITMAP
CD11DC
CD11DC
ENDCHAR
STARTCHAR uni0309
ENCODING 777
SWIDTH 600 0
DWIDTH 12 0
BBX 4 4 4 11
BITMAP
5E91
02D7
02D7
0A90
ENDCHAR
STARTCHAR uni030A
ENCODING 778
SWIDTH 600 0
DWIDTH 12 0
BBX 6 4 3 11
BITMAP
07EE70
2E22E2
2E22E2
07EE70
ENDCHAR
STARTCHAR uni030B
ENCODING 779
SWIDTH 600 0
DWIDTH 12 0
BBX 6 4 4 11
BITMAP
087087
1E51E5
8B08B0
B20B30
ENDCHAR
STARTCHAR uni030C
ENCODING 780
SWIDTH 600 0
DWIDTH 12 0
BBX 6 3 3 12
BITMAP
B4004B
4E66E4
04FF40
ENDCHAR
STARTCHAR uni030F
ENCODING 783
SWIDTH 600 0
DWIDTH 12 0
BBX 6 4 2 11
BITMAP
780780
5E15E1
0B80B8
03B03B
ENDCHAR
STARTCHAR uni0310
ENCODING 784
SWIDTH 600 0
DWIDTH 12 0
BBX 8 5 2 11
BITMAP
00066000
011FF110
2E0440E2
0BA22AB0
01AEEA10
ENDCHAR
STARTCHAR uni0311
ENCODING 785
SWIDTH 600 0
DWIDTH 12 0
BBX 8 4 2 10
BITMAP
019EE910
0AB22BA0
1F2002F1
01000010
ENDCHAR
STARTCHAR uni0312
ENCODING 786
SWIDTH 600 0
DWIDTH 12 0
BBX 3 4 4 11
BITMAP
03A0
0C10
1FC0
0BC0
ENDCHAR
STARTCHAR uni0313
ENCODING 787
SWIDTH 600 0
DWIDTH 12 0
BBX 3 4 5 11
BITMAP
CB00
CF10
1C00
A300
ENDCHAR
STARTCHAR uni0318
ENCODING 792
SWIDTH 600 0
DWIDTH 12 0
BBX 4 5 4 -6
BITMAP
0016
003D
8FFD
003D
0016
ENDCHAR
STARTCHAR uni0319
ENCODING 793
SWIDTH 600 0
DWIDTH 12 0
BBX 4 5 4 -6
BITMAP
6100
D300
DFF8
D300
6100
ENDCHAR
STARTCHAR uni031A
ENCODING 794
SWIDTH 600 0
DWIDTH 12 0
BBX 4 3 4 11
BITMAP
8FFB
004B
0049
ENDCHAR
STARTCHAR uni031B
ENCODING 795
SWIDTH 600 0
DWIDTH 12 0
BBX 4 4 5 9
BITMAP
007A
008E
01CA
1C81
ENDCHAR
STARTCHAR uni031C
ENCODING 796
SWIDTH 600 0
DWIDTH 12 0
BBX 4 4 4 -5
BITMAP
09E3
6D20
6D20
0AE3
ENDCHAR
STARTCHAR uni031D
ENCODING 797
SWIDTH 600 0
DWIDTH 12 0
BBX 6 3 3 -4
BITMAP
008800
008800
5FFFF5
ENDCHAR
STARTCHAR uni031E
ENCODING 798
SWIDTH 600 0
DWIDTH 12 0
BBX 6 3 3 -5
BITMAP
5FFFF5
008800
008800
ENDCHAR
STARTCHAR uni031F
ENCODING 799
SWIDTH 600 0
DWIDTH 12 0
BBX 6 5 3 -6
BITMAP
004400
008800
5FFFF5
008800
004400
ENDCHAR
STARTCHAR uni0320
ENCODING 800
SWIDTH 600 0
DWIDTH 12 0
BBX 6 1 3 -3
BITMAP
5FFFF5
ENDCHAR
STARTCHAR uni0323
ENCODING 803
SWIDTH 600 0
DWIDTH 12 0
BBX 4 3 4 -4
BITMAP
1DD1
4FF4
1DD1
ENDCHAR
STARTCHAR uni0324
ENCODING 804
SWIDTH 600 0
DWIDTH 12 0
BBX 6 2 3 -4
BITMAP
CD11DC
CD11DC
ENDCHAR
STARTCHAR uni0325
ENCODING 805
SWIDTH 600 0
DWIDTH 12 0
BBX 6 4 3 -5
BITMAP
07EE70
2E22E2
2E22E2
07EE70
ENDCHAR
STARTCHAR uni0326
ENCODING 806
SWIDTH 600 0
DWIDTH 12 0
BBX 4 4 4 -5
BITMAP
0DA1
02D7
14E6
CC70
ENDCHAR
STARTCHAR uni0327
ENCODING 807
SWIDTH 600 0
DWIDTH 12 0
BBX 4 5 4 -5
BITMAP
0A50
1FC2
03D8
14E5
CC60
ENDCHAR
STARTCHAR uni0328
ENCODING 808
SWIDTH 600 0
DWIDTH 12 0
BBX 4 4 4 -4
BITMAP
0A60
8900
B913
4DEA
ENDCHAR
STARTCHAR uni0329
ENCODING 809
SWIDTH 600 0
DWIDTH 12 0
BBX 2 4 5 -5
BITMAP
99
99
AA
AA
ENDCHAR
STARTCHAR uni032A
ENCODING 810
SWIDTH 600 0
DWIDTH 12 0
BBX 6 3 3 -5
BITMAP
7FFFF7
780087
670076
ENDCHAR
STARTCHAR uni032C
ENCODING 812
SWIDTH 600 0
DWIDTH 12 0
BBX 6 3 3 -4
BITMAP
B4004B
4E66E4
04FF40
ENDCHAR
STARTCHAR uni032E
ENCODING 814
SWIDTH 600 0
DWIDTH 12 0
BBX 8 4 2 -5
BITMAP
01000010
1F2002F1
0AB22BA0
019EE910
ENDCHAR
STARTCHAR uni032F
ENCODING 815
SWIDTH 600 0
DWIDTH 12 0
BBX 8 4 2 -6
BITMAP
019EE910
0AB22BA0
1F2002F1
01000010
ENDCHAR
STARTCHAR uni0330
ENCODING 816
SWIDTH 600 0
DWIDTH 12 0
BBX 8 3 2 -4
BITMAP
02630042
2E9D71D5
5A02BEA0
ENDCHAR
STARTCHAR uni0331
ENCODING 817
SWIDTH 600 0
DWIDTH 12 0
BBX 6 1 3 -3
BITMAP
AFFFFA
ENDCHAR
STARTCHAR uni0334
ENCODING 820
SWIDTH 600 0
DWIDTH 12 0
BBX 8 3 2 4
BITMAP
05620023
7D9E819A
8602AED3
ENDCHAR
STARTCHAR uni0339
ENCODING 825
SWIDTH 600 0
DWIDTH 12 0
BBX 4 4 4 -5
BITMAP
3E90
02D6
02D6
3EA0
ENDCHAR
STARTCHAR uni033A
ENCODING 826
SWIDTH 600 0
DWIDTH 12 0
BBX 6 3 3 -5
BITMAP
670076
780087
7FFFF7
ENDCHAR
STARTCHAR uni033B
ENCODING 827
SWIDTH 600 0
DWIDTH 12 0
BBX 6 4 3 -5
BITMAP
7FFFF7
780087
780087
7FFFF7
ENDCHAR
STARTCHAR uni033C
ENCODING 828
SWIDTH 600 0
DWIDTH 12 0
BBX 8 3 2 -5
BITMAP
1BE99EB1
5B1AA1C5
00000010
ENDCHAR
STARTCHAR uni033D
ENCODING 829
SWIDTH 600 0
DWIDTH 12 0
BBX 4 3 4 12
BITMAP
8668
1EE1
8668
ENDCHAR
STARTCHAR uni0342
ENCODING 834
SWIDTH 600 0
DWIDTH 12 0
BBX 8 3 2 12
BITMAP
02630042
2E9D71D5
5A02BEA0
ENDCHAR
STARTCHAR uni0345
ENCODING 837
SWIDTH 600 0
DWIDTH 12 0
BBX 3 3 5 -4
BITMAP
A900
9A00
3EA0
ENDCHAR
STARTCHAR uni035F
ENCODING 863
SWIDTH 600 0
DWIDTH 12 0
BBX 20 1 -4 -3
BITMAP
DFFFFFFFFFFFFFFFFFFD
ENDCHAR
STARTCHAR uni0361
ENCODING 865
SWIDTH 600 0
DWIDTH 12 0
BBX 18 3 -3 12
BITMAP
00037ADEFFEDA73000
17DC8531001358CD71
B8100000000000018B
ENDCHAR
STARTCHAR uni0374
ENCODING 884
SWIDTH 600 0
DWIDTH 12 0
BBX 3 5 5 9
BITMAP
7F20
8F00
AC00
B800
C500
ENDCHAR
STARTCHAR uni0375
ENCODING 885
SWIDTH 600 0
DWIDTH 12 0
BBX 3 5 4 0
BITMAP
05C0
08B0
0CA0
0F80
2F70
ENDCHAR
STARTCHAR uni037A
ENCODING 890
SWIDTH 600 0
DWIDTH 12 0
BBX 3 3 5 -4
BITMAP
A900
9A00
3EA0
ENDCHAR
STARTCHAR uni037E
ENCODING 894
SWIDTH 600 0
DWIDTH 12 0
BBX 4 15 4 -5
BITMAP
3DD3
9FF9
3DD3
0000
0000
0000
0000
2DE4
7FFC
2DFD
00AC
01E8
1BD1
DC20
2000
ENDCHAR
STARTCHAR tonos
ENCODING 900
SWIDTH 600 0
DWIDTH 12 0
BBX 3 5 5 11
BITMAP
0CA0
1F80
4F40
7E00
8900
ENDCHAR
STARTCHAR dieresistonos
ENCODING 901
SWIDTH 600 0
DWIDTH 12 0
BBX 8 5 2 11
BITMAP
0000D500
0003F200
1E66C6E1
1D6976D1
000A2000
ENDCHAR
STARTCHAR Alphatonos
ENCODING 902
SWIDTH 600 0
DWIDTH 12 0
BBX 12 14 0 0
BITMAP
09C000000000
0BB00DF50000
0D803FDA0000
0F508D8E0000
2F20D94F4000
3D03F50E9000
0007F10AE000
000CC006F400
002F8002F900
007FFFFFFD00
00CC00006F30
02F800002F80
07F300000DD0
0BE0000008F3
ENDCHAR
STARTCHAR anoteleia
ENCODING 903
SWIDTH 600 0
DWIDTH 12 0
BBX 4 3 4 7
BITMAP
3DD3
9FF9
3DD3
ENDCHAR
STARTCHAR Epsilontonos
ENCODING 904
SWIDTH 600 0
DWIDTH 12 0
BBX 11 14 0 0
BITMAP
0C9000000000
0F80FFFFFF60
2F50F8000000
3F20F8000000
5E00F8000000
6A00F8000000
0000F8000000
0000FFFFF600
0000F8000000
0000F8000000
0000F8000000
0000F8000000
0000F8000000
0000FFFFFF90
ENDCHAR
STARTCHAR Etatonos
ENCODING 905
SWIDTH 600 0
DWIDTH 12 0
BBX 11 14 0 0
BITMAP
0C9000000000
0F82F6000E80
2F52F6000E80
3F22F6000E80
5E02F6000E80
6A02F6000E80
0002F6000E80
0002FFFFFF80
0002F6000E80
0002F6000E80
0002F6000E80
0002F6000E80
0002F6000E80
0002F6000E80
ENDCHAR
STARTCHAR Iotatonos
ENCODING 906
SWIDTH 600 0
DWIDTH 12 0
BBX 11 14 0 0
BITMAP
0C9000000000
0F84FFFFFF10
2F5000EB0000
3F2000EB0000
5E0000EB0000
6A0000EB0000
000000EB0000
000000EB0000
000000EB0000
000000EB0000
000000EB0000
000000EB0000
000000EB0000
0004FFFFFF10
ENDCHAR
STARTCHAR Omicrontonos
ENCODING 908
SWIDTH 600 0
DWIDTH 12 0
BBX 11 14 0 0
BITMAP
0C9000000000
0F801AEE9100
2F50CB22CB00
3F26F2003F50
5E0BC0000DA0
6A0E90000AD0
001F800009F0
001F800009F0
001F800009F0
000EA0000BD0
000BC0000DA0
0005F2003F40
0000CC22CB00
000019EE9100
ENDCHAR
STARTCHAR Upsilontonos
ENCODING 910
SWIDTH 600 0
DWIDTH 12 0
BBX 12 14 0 0
BITMAP
08D000000000
0AD1F70000AD
0CA09D0001E7
0E703F4006E1
1F400C900C90
2E1006E13F30
000001E58C00
0000009BD600
0000003FE100
0000000DA000
0000000DA000
0000000DA000
0000000DA000
0000000DA000
ENDCHAR
STARTCHAR Omegatonos
ENCODING 911
SWIDTH 600 0
DWIDTH 12 0
BBX 12 14 0 0
BITMAP
0C9000000000
0F801AEE8100
2F50CB22DB00
3F26F2004F40
5E0BC0000EA0
6A0EA0000BD0
001F80000AE0
001F80000AE0
000F90000BD0
000CB0000DB0
0008E0001F70
0002F5006E10
00009C00D700
005FFF23FFF3
ENDCHAR
STARTCHAR iotadieresistonos
ENCODING 912
SWIDTH 600 0
DWIDTH 12 0
BBX 10 16 1 0
BITMAP
00005D1000
00008C0000
05E2B7BA00
05E2E2BA00
0001C00000
0000000000
6FFFF90000
0001F80000
0001F80000
0001F80000
0001F70000
0001F70000
0001F70000
0000E80000
00009E3031
00001AEED4
ENDCHAR
STARTCHAR Alpha
ENCODING 913
SWIDTH 600 0
DWIDTH 12 0
BBX 12 13 0 0
BITMAP
00002FF20000
00007EE70000
0000C9AC0000
0002F56F2000
0007F12F7000
000CB00CC000
002F7008F200
007F2003F700
00CFFFFFFC00
03F700007F20
08F200003F80
0DC000000DD0
3F80000008F3
ENDCHAR
STARTCHAR Beta
ENCODING 914
SWIDTH 600 0
DWIDTH 12 0
BBX 9 13 2 0
BITMAP
FFFFEC6000
FA0027FA00
FA00009F10
FA00007F20
FA0000AE10
FA0028F600
FFFFFF8100
FA0014BE30
FA00000DB0
FA00000BE0
FA00001EB0
FA0014BE30
FFFFED9200
ENDCHAR
STARTCHAR Gamma
ENCODING 915
SWIDTH 600 0
DWIDTH 12 0
BBX 9 13 2 0
BITMAP
4FFFFFFFB0
4F50000000
4F50000000
4F50000000
4F50000000
4F50000000
4F50000000
4F50000000
4F50000000
4F50000000
4F50000000
4F50000000
4F50000000
ENDCHAR
STARTCHAR uni0394
ENCODING 916
SWIDTH 600 0
DWIDTH 12 0
BBX 12 13 0 0
BITMAP
00002FF20000
00007EE70000
0000C9AC0000
0003F56F3000
0008F11F8000
000DB00CD000
003F6007F300
009F2002F800
00EC0000CE00
04F700008F40
09F200003F90
0ED000000DE0
2FFFFFFFFFF2
ENDCHAR
STARTCHAR Epsilon
ENCODING 917
SWIDTH 600 0
DWIDTH 12 0
BBX 9 13 2 0
BITMAP
BFFFFFFF60
BE00000000
BE00000000
BE00000000
BE00000000
BE00000000
BFFFFFF600
BE00000000
BE00000000
BE00000000
BE00000000
BE00000000
BFFFFFFF90
ENDCHAR
STARTCHAR Zeta
ENCODING 918
SWIDTH 600 0
DWIDTH 12 0
BBX 10 13 1 0
BITMAP
1FFFFFFFFA
0000000AE2
0000005F70
000001EC00
000009F300
00004F8000
0001DD0000
0008F40000
003F900000
00CD100000
07F5000000
2FA0000000
AFFFFFFFFC
ENDCHAR
STARTCHAR Eta
ENCODING 919
SWIDTH 600 0
DWIDTH 12 0
BBX 10 13 1 0
BITMAP
6F400004F6
6F400004F6
6F400004F6
6F400004F6
6F400004F6
6F400004F6
6FFFFFFFF6
6F400004F6
6F400004F6
6F400004F6
6F400004F6
6F400004F6
6F400004F6
ENDCHAR
STARTCHAR Theta
ENCODING 920
SWIDTH 600 0
DWIDTH 12 0
BBX 10 13 1 0
BITMAP
004BEEB400
06F8118F60
2F900009F2
9F200002F8
DD000000DD
FC000000CF
FB0FFFF0BF
FB000000BF
CD000000DC
8F200002F8
2E90000AE2
05F8118F50
004BEEB400
ENDCHAR
STARTCHAR Iota
ENCODING 921
SWIDTH 600 0
DWIDTH 12 0
BBX 10 13 1 0
BITMAP
1FFFFFFFF1
0000DD0000
0000DD0000
0000DD0000
0000DD0000
0000DD0000
0000DD0000
0000DD0000
0000DD0000
0000DD0000
0000DD0000
0000DD0000
1FFFFFFFF1
ENDCHAR
STARTCHAR Kappa
ENCODING 922
SWIDTH 600 0
DWIDTH 12 0
BBX 11 13 1 0
BITMAP
1FA00003FA00
1FA0002EC100
1FA001DE2000
1FA00BE30000
1FA09F500000
1FA7FF400000
1FDFADD00000
1FFB05F60000
1FD100CE1000
1FA0004F9000
1FA0000AF300
1FA00002FB00
1FA000008F50
ENDCHAR
STARTCHAR Lambda
ENCODING 923
SWIDTH 600 0
DWIDTH 12 0
BBX 10 13 1 0
BITMAP
0002FF2000
0007EF7000
000CABB000
002F67F100
006F12F600
00BC00DB00
01F7009F10
06F3004F60
0BD0000EA0
1F90000AF1
5F500006F5
AF100001FA
EB000000CE
ENDCHAR
STARTCHAR Mu
ENCODING 924
SWIDTH 600 0
DWIDTH 12 0
BBX 10 13 1 0
BITMAP
8FA0000AF8
8FE0001EF8
8DF5005FD8
8DCA00ABD8
8E7E01E6E8
8F2F45F1F8
8F0B99A1F8
8F06EE51F8
8F01EE01F8
8F006501F8
8F000001F8
8F000001F8
8F000001F8
ENDCHAR
STARTCHAR Nu
ENCODING 925
SWIDTH 600 0
DWIDTH 12 0
BBX 10 13 1 0
BITMAP
5FB00004F5
5FF40004F5
5FCC0004F5
5F6F4004F5
5F2DC004F5
5F35F504F5
5F30CC03F5
5F405F53F5
5F400CD3F5
5F4004F6F5
5F4000CCF5
5F40004FF5
5F40000BF5
ENDCHAR
STARTCHAR Xi
ENCODING 926
SWIDTH 600 0
DWIDTH 12 0
BBX 10 13 1 0
BITMAP
6FFFFFFFF6
0000000000
0000000000
0000000000
0000000000
0000000000
01FFFFFF10
0000000000
0000000000
0000000000
0000000000
0000000000
9FFFFFFFF9
ENDCHAR
STARTCHAR Omicron
ENCODING 927
SWIDTH 600 0
DWIDTH 12 0
BBX 10 13 1 0
BITMAP
004BEEB400
06F7118F60
2F900009F2
9F200002F9
DD000000DD
FB000000BF
FA000000BF
FB000000BF
CD000000DC
8F200002F8
2F900009F2
06F8118F60
004BEEB400
ENDCHAR
STARTCHAR Pi
ENCODING 928
SWIDTH 600 0
DWIDTH 12 0
BBX 10 13 1 0
BITMAP
6FFFFFFFF6
6F400004F6
6F400004F6
6F400004F6
6F400004F6
6F400004F6
6F400004F6
6F400004F6
6F400004F6
6F400004F6
6F400004F6
6F400004F6
6F400004F6
ENDCHAR
STARTCHAR Rho
ENCODING 929
SWIDTH 600 0
DWIDTH 12 0
BBX 9 13 2 0
BITMAP
EFFFED9200
EB0014CE30
EB00002FA0
EB00000DC0
EB00000EC0
EB00003F80
EB0015DD10
EFFFEC7100
EB00000000
EB00000000
EB00000000
EB00000000
EB00000000
ENDCHAR
STARTCHAR Sigma
ENCODING 931
SWIDTH 600 0
DWIDTH 12 0
BBX 10 13 1 0
BITMAP
5FFFFFFFF1
0BE2000000
01DC000000
003F900000
0007F50000
0000AE2000
00003F8000
0000CD1000
0008F30000
005F700000
02EB000000
0CE1000000
6FFFFFFFFA
ENDCHAR
STARTCHAR Tau
ENCODING 932
SWIDTH 600 0
DWIDTH 12 0
BBX 12 13 0 0
BITMAP
2FFFFFFFFFF2
00000DD00000
00000DD00000
00000DD00000
00000DD00000
00000DD00000
00000DD00000
00000DD00000
00000DD00000
00000DD00000
00000DD00000
00000DD00000
00000DD00000
ENDCHAR
STARTCHAR Upsilon
ENCODING 933
SWIDTH 600 0
DWIDTH 12 0
BBX 12 13 0 0
BITMAP
1EC000000BE1
07F400003F70
00DC0000BD00
006F5003F600
000DC00BD000
0005F53F5000
0000CCBC0000
00004FF40000
00000DD00000
00000DD00000
00000DD00000
00000DD00000
00000DD00000
ENDCHAR
STARTCHAR Phi
ENCODING 934
SWIDTH 600 0
DWIDTH 12 0
BBX 12 13 0 0
BITMAP
00000CC00000
00000CC00000
003AEFFEA300
06F93CC3AF60
1EA00CC00AE1
6F400CC004F6
7F200CC002F7
5F400CC004F5
1EB00CC00BE1
05FA3CC3AF50
002AEFFEA300
00000CC00000
00000CC00000
ENDCHAR
STARTCHAR Chi
ENCODING 935
SWIDTH 600 0
DWIDTH 12 0
BBX 10 13 1 0
BITMAP
5F700006F6
0CE1000DC0
03F8007F30
009F21EA00
001EA7E200
0007FE7000
0003FF2000
000BDEA000
004F57F400
00DC00DD00
07F3005F70
1EA0000CE1
9F200003F9
ENDCHAR
STARTCHAR Psi
ENCODING 936
SWIDTH 600 0
DWIDTH 12 0
BBX 12 13 0 0
BITMAP
2F700DD007F2
2F700DD007F2
2F700DD007F2
2F700DD008F2
1F900DD009F1
0CD00DD00DB0
03FA2DD2AF30
003AEFFEA300
00000DD00000
00000DD00000
00000DD00000
00000DD00000
00000DD00000
ENDCHAR
STARTCHAR uni03A9
ENCODING 937
SWIDTH 600 0
DWIDTH 12 0
BBX 12 13 0 0
BITMAP
0004BEEB4000
006F8118F600
02F800009F20
09F200002F80
0DD000000DD0
0FB000000BF0
0FB000000BF0
0EC000000CE0
0BE000000EB0
06F400004F60
00DB0000BD00
003F6006F300
4FFFE00EFFF4
ENDCHAR
STARTCHAR Iotadieresis
ENCODING 938
SWIDTH 600 0
DWIDTH 12 0
BBX 10 16 1 0
BITMAP
00AE11E900
009E11E900
0000000000
1FFFFFFFF1
0000DD0000
0000DD0000
0000DD0000
0000DD0000
0000DD0000
0000DD0000
0000DD0000
0000DD0000
0000DD0000
0000DD0000
0000DD0000
1FFFFFFFF1
ENDCHAR
STARTCHAR Upsilondieresis
ENCODING 939
SWIDTH 600 0
DWIDTH 12 0
BBX 12 16 0 0
BITMAP
000AE11E9000
0009E11E9000
000000000000
1EC000000BE1
07F400003F70
00DC0000BD00
006F5003F600
000DC00BD000
0005F53F5000
0000CCBC0000
00004FF40000
00000DD00000
00000DD00000
00000DD00000
00000DD00000
00000DD00000
ENDCHAR
STARTCHAR alphatonos
ENCODING 940
SWIDTH 600 0
DWIDTH 12 0
BBX 11 16 1 0
BITMAP
000006D30000
000009F10000
00000CB00000
00000E600000
00002E100000
000000000000
007DFC50DB00
09F713B4F800
4F70001DF500
AF10000AF300
CE00000BF000
DD00000BD000
BF00000EB000
7F50005FA000
1DD415CAC100
02AEEA23DF50
ENDCHAR
STARTCHAR epsilontonos
ENCODING 941
SWIDTH 600 0
DWIDTH 12 0
BBX 10 16 1 0
BITMAP
000002D600
000005F400
000008E000
00000BA000
00000C5000
0000000000
005BEFDB61
06F82026C1
0AF0000000
04F8200000
007FFFF000
09E6100000
2F80000000
2F90000000
0AF72025C6
006CEFEC81
ENDCHAR
STARTCHAR etatonos
ENCODING 942
SWIDTH 600 0
DWIDTH 12 0
BBX 10 20 1 -4
BITMAP
000005D400
000008F100
00000BB000
00000E6000
00001E2000
0000000000
2F618DEB20
1F8B512DC0
0FE30006F2
0FA00004F4
0FA00004F4
0FA00004F4
0FA00004F4
0FA00004F4
0FA00004F4
0FA00005F4
00000005F4
00000005F4
00000005F4
00000006F4
ENDCHAR
STARTCHAR iotatonos
ENCODING 943
SWIDTH 600 0
DWIDTH 12 0
BBX 10 16 1 0
BITMAP
00003D5000
00006F3000
00009D0000
0000C90000
0000D40000
0000000000
6FFFF90000
0001F80000
0001F80000
0001F80000
0001F70000
0001F70000
0001F70000
0000E80000
00009E3031
00001AEED4
ENDCHAR
STARTCHAR upsilondieresistonos
ENCODING 944
SWIDTH 600 0
DWIDTH 12 0
BBX 10 16 1 0
BITMAP
00001D4000
00003F1000
02E57B7D10
02E6A67D10
0000B20000
0000000000
6F400009B0
5F400009F1
4F500006F5
4F400004F6
5F400003F8
5F300003F7
4F400005F5
1F70000AE1
09E5129F50
007CFEB400
ENDCHAR
STARTCHAR alpha
ENCODING 945
SWIDTH 600 0
DWIDTH 12 0
BBX 11 10 1 0
BITMAP
007DFC50DB00
09F713B4F800
4F70001DF500
AF10000AF300
CE00000BF000
DD00000BD000
BF00000EB000
7F50005FA000
1DD415CAC100
02AEEA23DF50
ENDCHAR
STARTCHAR beta
ENCODING 946
SWIDTH 600 0
DWIDTH 12 0
BBX 10 18 1 -4
BITMAP
004BEEB300
03F912AE30
0BD0001F90
0F90000FA0
2F70006F50
2F7028E700
2F70BFE810
2F60113CD1
2F600002F9
2F600000DC
2F600000DC
2F800002F9
2FD8203DD1
2F66CEEA20
2F70000000
2F70000000
2F70000000
2F80000000
ENDCHAR
STARTCHAR gamma
ENCODING 947
SWIDTH 600 0
DWIDTH 12 0
BBX 10 15 1 -4
BITMAP
2400000000
BF300000EA
2EC00003F6
07F40006F1
01EA000BA0
009F102F40
002F608C00
000DB1E400
0008E79000
0004FD1000
0001F90000
0000DA0000
0000CB0000
0000CB0000
0000DC0000
ENDCHAR
STARTCHAR delta
ENCODING 948
SWIDTH 600 0
DWIDTH 12 0
BBX 10 14 1 0
BITMAP
008DFEDB82
07F40136B3
08F2000000
02ED300000
003DF91000
0005FFD400
01BE85DF60
0DD2001CF2
7F400004F8
AF000000FA
9F000001F9
5F600005F4
09E6115EA0
005CEEC600
ENDCHAR
STARTCHAR epsilon
ENCODING 949
SWIDTH 600 0
DWIDTH 12 0
BBX 10 10 1 0
BITMAP
005BEFDB61
06F82026C1
0AF0000000
04F8200000
007FFFF000
09E6100000
2F80000000
2F90000000
0AF72025C6
006CEFEC81
ENDCHAR
STARTCHAR zeta
ENCODING 950
SWIDTH 600 0
DWIDTH 12 0
BBX 9 18 2 -4
BITMAP
1FFFFFFF70
011103DA10
00007F7000
0007F60000
006F700000
03F9000000
0CE1000000
4F70000000
9F30000000
AF10000000
9F20000000
4F80000000
0AF9300000
005BFEB400
000014AF40
0000001F60
0000006F20
0000008900
ENDCHAR
STARTCHAR eta
ENCODING 951
SWIDTH 600 0
DWIDTH 12 0
BBX 10 14 1 -4
BITMAP
2F618DEB20
1F8B512DC0
0FE30006F2
0FA00004F4
0FA00004F4
0FA00004F4
0FA00004F4
0FA00004F4
0FA00004F4
0FA00005F4
00000005F4
00000005F4
00000005F4
00000006F4
ENDCHAR
STARTCHAR theta
ENCODING 952
SWIDTH 600 0
DWIDTH 12 0
BBX 10 14 1 0
BITMAP
002BEEB200
02E9119E20
0BC0000CB0
2F600006F2
5F300003F5
7F100001F7
8FFFFFFFF8
8F100001F8
7F200002F7
5F400004F5
2F800008F2
0BD0000DB0
03E911AE30
003BEEB300
ENDCHAR
STARTCHAR iota
ENCODING 953
SWIDTH 600 0
DWIDTH 12 0
BBX 10 10 1 0
BITMAP
6FFFF90000
0001F80000
0001F80000
0001F80000
0001F70000
0001F70000
0001F70000
0000E80000
00009E3031
00001AEED4
ENDCHAR
STARTCHAR kappa
ENCODING 954
SWIDTH 600 0
DWIDTH 12 0
BBX 10 11 2 -1
BITMAP
EB000029A0
DC0006E920
CC009E4000
CC0AF30000
CC6EF70000
CEE4BE2000
CF802EB000
CF1006F700
CD0000AF40
CB00001CE3
0000000110
ENDCHAR
STARTCHAR lambda
ENCODING 955
SWIDTH 600 0
DWIDTH 12 0
BBX 10 15 1 -1
BITMAP
8EEA200000
112CD10000
0002F70000
0000BD0000
00008F5000
0000DFA000
0006FAF200
000DB2F700
005F50CD00
00CD006F40
04F7001FA0
0BE1000AF1
3F900004F7
AF300000DD
0200000000
ENDCHAR
STARTCHAR uni03BC
ENCODING 956
SWIDTH 600 0
DWIDTH 12 0
BBX 10 14 1 -4
BITMAP
5F50000AF0
5F50000AF0
5F50000AE0
5F50000AE0
5F50000AE0
5F50000AD0
5F50000AD0
5F80002ED0
5FE304C8E0
5F8DEB22ED
5F30000000
5F30000000
5F40000000
5F50000000
ENDCHAR
STARTCHAR nu
ENCODING 957
SWIDTH 600 0
DWIDTH 12 0
BBX 10 11 1 0
BITMAP
2400000000
BF300000EA
2FB00002F7
08F30005F3
01EA000AD0
009F101F80
003F707F20
000CB0DA00
0007F6F200
0004FF9000
0000EE1000
ENDCHAR
STARTCHAR xi
ENCODING 958
SWIDTH 600 0
DWIDTH 12 0
BBX 10 18 1 -4
BITMAP
2FFFFFFFF7
012CC40000
009F200000
00BE000000
008F200000
001CD41000
0003DFFF30
007F930100
04F7000000
0AF0000000
0BF0000000
08F6000000
01CF930000
0006BFEB50
0000014AF5
00000000F7
00000005F3
00000008A0
ENDCHAR
STARTCHAR omicron
ENCODING 959
SWIDTH 600 0
DWIDTH 12 0
BBX 10 10 1 0
BITMAP
004BEEB400
07F8118F70
2F900009F2
8F300003F8
AF100001FA
AF100001FA
8F300003F8
2F900009F2
07F8118F70
005BEEB500
ENDCHAR
STARTCHAR pi
ENCODING 960
SWIDTH 600 0
DWIDTH 12 0
BBX 12 11 0 -1
BITMAP
6FFFFFFFFFF7
007F1000E900
007F1000F800
007F1000F800
008F0000F800
008F0001F700
009F0001F700
00AE0001F700
00BD0000EA10
00CC00005EE1
000100000000
ENDCHAR
STARTCHAR rho
ENCODING 961
SWIDTH 600 0
DWIDTH 12 0
BBX 10 14 1 -4
BITMAP
0019EFD810
01DC315EC0
09E10006F6
0E900001FA
1F700000EC
2F700000FB
2F700002F9
2F800008F3
2FE7116F90
2F78DFD700
2F70000000
2F70000000
2F70000000
2F80000000
ENDCHAR
STARTCHAR uni03C2
ENCODING 962
SWIDTH 600 0
DWIDTH 12 0
BBX 10 14 1 -4
BITMAP
0007CEEC71
01BE6115C2
08F4000000
0EB0000000
2F80000000
2F80000000
1FB0000000
09F5000000
01BF830000
0006BFE920
0000015DC0
00000008E0
0000001DA0
0000004D20
ENDCHAR
STARTCHAR sigma
ENCODING 963
SWIDTH 600 0
DWIDTH 12 0
BBX 11 10 1 0
BITMAP
006CFFFEEF70
09F612BC2000
4F60001EA000
9F100009F100
BE000006F300
BF000006F400
9F200008F100
4F80000EB000
09F612BE2000
006CFEA20000
ENDCHAR
STARTCHAR tau
ENCODING 964
SWIDTH 600 0
DWIDTH 12 0
BBX 10 10 1 0
BITMAP
AFFFFFFFFA
0000CC0000
0000CC0000
0000CB0000
0000CB0000
0000CB0000
0000CB0000
0000CB0000
00009E1100
00002CFE30
ENDCHAR
STARTCHAR upsilon
ENCODING 965
SWIDTH 600 0
DWIDTH 12 0
BBX 10 10 1 0
BITMAP
6F400009B0
5F400009F1
4F500006F5
4F400004F6
5F400003F8
5F300003F7
4F400005F5
1F70000AE1
09E5129F50
007CFEB400
ENDCHAR
STARTCHAR phi
ENCODING 966
SWIDTH 600 0
DWIDTH 12 0
BBX 12 17 0 -4
BITMAP
00000CC00000
00000CC00000
00000CC00000
0018DFFD8100
01DD4CC4DD10
09F20CC02F80
0EB00CC00BE0
1F900CC009F1
1F900CC009F1
0EB00CC00BE0
08F20CC02F80
01CD4CC4DC10
0018DFFD8100
00000CC00000
00000CC00000
00000CC00000
00000CC00000
ENDCHAR
STARTCHAR chi
ENCODING 967
SWIDTH 600 0
DWIDTH 12 0
BBX 10 16 1 -5
BITMAP
1200000000
8F400007F5
1DD1001EB0
05F8009F30
00BF32FA00
002FCBF200
0008FF8000
0001EF1000
0003FF5000
000BFED100
005F86F800
00DE10BF20
07F6002FB0
1EC00007F5
9F300000DD
1200000012
ENDCHAR
STARTCHAR psi
ENCODING 968
SWIDTH 600 0
DWIDTH 12 0
BBX 11 17 1 -4
BITMAP
0000CD000000
0000CD000000
0000CD000000
EA00CD02C500
DB00CD00E900
CC00CD00BD00
CC00CD009E00
CB00CD008F10
CB00CD009F00
AC00CD00AD00
6F10CD01F800
0DB2CD3CD100
019EFFD91000
0000CD000000
0000CD000000
0000CD000000
0000CD000000
ENDCHAR
STARTCHAR omega
ENCODING 969
SWIDTH 600 0
DWIDTH 12 0
BBX 12 10 0 0
BITMAP
00B700007C00
05F600006F60
0CE000000ED0
1F90000009F2
4F600DC006F4
4F500BB006F4
3F500BA006F3
1F800CC009F1
09E24DD33E90
019ED33DEA10
ENDCHAR
STARTCHAR iotadieresis
ENCODING 970
SWIDTH 600 0
DWIDTH 12 0
BBX 10 14 1 0
BITMAP
03E904E700
03E904E700
0000000000
0000000000
6FFFF90000
0001F80000
0001F80000
0001F80000
0001F70000
0001F70000
0001F70000
0000E80000
00009E3031
00001AEED4
ENDCHAR
STARTCHAR upsilondieresis
ENCODING 971
SWIDTH 600 0
DWIDTH 12 0
BBX 10 14 1 0
BITMAP
00CC01DB00
00DC01DB00
0000000000
0000000000
6F400009B0
5F400009F1
4F500006F5
4F400004F6
5F400003F8
5F300003F7
4F400005F5
1F70000AE1
09E5129F50
007CFEB400
ENDCHAR
STARTCHAR omicrontonos
ENCODING 972
SWIDTH 600 0
DWIDTH 12 0
BBX 10 16 1 0
BITMAP
00000CA000
00001F8000
00004F4000
00007E0000
0000890000
0000000000
004BEEB400
07F8118F70
2F900009F2
8F300003F8
AF100001FA
AF100001FA
8F300003F8
2F900009F2
07F8118F70
005BEEB500
ENDCHAR
STARTCHAR upsilontonos
ENCODING 973
SWIDTH 600 0
DWIDTH 12 0
BBX 10 16 1 0
BITMAP
00000D9000
00002F7000
00005F3000
00008D0000
0000980000
0000000000
6F400009B0
5F400009F1
4F500006F5
4F400004F6
5F400003F8
5F300003F7
4F400005F5
1F70000AE1
09E5129F50
007CFEB400
ENDCHAR
STARTCHAR omegatonos
ENCODING 974
SWIDTH 600 0
DWIDTH 12 0
BBX 12 16 0 0
BITMAP
000000CA0000
000001F80000
000004F40000
000007E00000
000008900000
000000000000
00B700007C00
05F600006F60
0CE000000ED0
1F90000009F2
4F600DC006F4
4F500BB006F4
3F500BA006F3
1F800CC009F1
09E24DD33E90
019ED33DEA10
ENDCHAR
STARTCHAR uni03D0
ENCODING 976
SWIDTH 600 0
DWIDTH 12 0
BBX 10 14 1 0
BITMAP
004CEEB300
04F812AE30
0CC0001F90
0F80001FA0
2F70007F40
2F703AE500
2FDEFFD810
2FB5214CE1
2F600002F9
2F700000DC
1F900000DC
0BE10002F9
02EC313CD1
0029DFE910
ENDCHAR
STARTCHAR uni03D1
ENCODING 977
SWIDTH 600 0
DWIDTH 12 0
BBX 10 14 1 0
BITMAP
017DFD9200
0BD412AE20
4F50000DB0
6F300007F2
3F700004F5
08F71002F7
005BFEDEF8
00000222F8
1F700002F7
0F800004F5
0E900007F2
0CC0000CC0
05F8119E30
004CEEB300
ENDCHAR
STARTCHAR uni03D5
ENCODING 981
SWIDTH 600 0
DWIDTH 12 0
BBX 12 17 0 -4
BITMAP
00000CC00000
00000CC00000
00000CC00000
0018DFFD8100
01DD4CC4DD10
09F20CC02F80
0EB00CC00BE0
1F900CC009F1
1F900CC009F1
0EB00CC00BE0
08F20CC02F80
01CD4CC4DC10
0018DFFD8100
00000CC00000
00000CC00000
00000CC00000
00000CC00000
ENDCHAR
STARTCHAR uni03D7
ENCODING 983
SWIDTH 600 0
DWIDTH 12 0
BBX 10 14 2 -4
BITMAP
EB000029A0
DC0006E920
CC009E4000
CC0AF30000
CC6EF70000
CEE4BE2000
CF802EC000
CF1006F800
CD00009F50
CB00000BF4
0000000AF3
0000005F80
000002ED10
00000AE300
ENDCHAR
STARTCHAR uni03D9
ENCODING 985
SWIDTH 600 0
DWIDTH 12 0
BBX 10 14 1 -4
BITMAP
005BEEB500
07F7117F70
3F800008F3
8F200002F8
BF000000FB
BF000000FB
9F200002F9
3F800008F3
08F6116F80
005BFFC500
0000BC0000
0000BD0000
0000BD0000
0000BE0000
ENDCHAR
STARTCHAR uni03DB
ENCODING 987
SWIDTH 600 0
DWIDTH 12 0
BBX 10 14 1 -4
BITMAP
0007CEFFF4
01CE610000
09F3000000
0EB0000000
2F80000000
2F80000000
1EB0000000
08F5000000
00BF930000
0005BFE920
0000015EC0
00000008E0
0000000DA0
0000004D20
ENDCHAR
STARTCHAR uni03DD
ENCODING 989
SWIDTH 600 0
DWIDTH 12 0
BBX 9 14 2 -4
BITMAP
1FFFFFFF70
1F70000000
1F70000000
1F70000000
1F70000000
1F70000000
1FEDDDDA00
1FA5555400
1F80000000
1F80000000
1F80000000
1F80000000
1F80000000
1F90000000
ENDCHAR
STARTCHAR uni03E1
ENCODING 993
SWIDTH 600 0
DWIDTH 12 0
BBX 10 17 1 -3
BITMAP
03C3000000
05EF500000
001CF50000
0001CF4000
00001DD100
000005F800
00039FFE10
04BFE75F70
6FD6000DC0
1500004DF1
00006CFEF4
007EFB43F6
00AB3002F7
00000002F7
00000002F7
00000004F5
00000005E3
ENDCHAR
STARTCHAR uni0400
ENCODING 1024
SWIDTH 600 0
DWIDTH 12 0
BBX 9 17 2 0
BITMAP
006A100000
003DC20000
0000890000
0000000000
BFFFFFFF60
BE00000000
BE00000000
BE00000000
BE00000000
BE00000000
BFFFFFF600
BE00000000
BE00000000
BE00000000
BE00000000
BE00000000
BFFFFFFF90
ENDCHAR
STARTCHAR uni0401
ENCODING 1025
SWIDTH 600 0
DWIDTH 12 0
BBX 9 16 2 0
BITMAP
01E906E400
01E905E400
0000000000
BFFFFFFF60
BE00000000
BE00000000
BE00000000
BE00000000
BE00000000
BFFFFFF600
BE00000000
BE00000000
BE00000000
BE00000000
BE00000000
BFFFFFFF90
ENDCHAR
STARTCHAR uni0402
ENCODING 1026
SWIDTH 600 0
DWIDTH 12 0
BBX 12 13 0 0
BITMAP
EFFFFFFFF500
0008F2000000
0008F2000000
0008F2000000
0008F2000000
0008FDEEC710
0008F4016EB0
0008F20006F4
0008F20003F7
0008F20002F7
0008F20005F5
0008F2012CE1
0008F20DEB20
ENDCHAR
STARTCHAR uni0403
ENCODING 1027
SWIDTH 600 0
DWIDTH 12 0
BBX 9 17 2 0
BITMAP
00003C2000
0006F91000
001C400000
0000000000
4FFFFFFFB0
4F50000000
4F50000000
4F50000000
4F50000000
4F50000000
4F50000000
4F50000000
4F50000000
4F50000000
4F50000000
4F50000000
4F50000000
ENDCHAR
STARTCHAR uni0404
ENCODING 1028
SWIDTH 600 0
DWIDTH 12 0
BBX 10 13 1 0
BITMAP
0006CEFD81
01CE6115E7
0AF3000010
2F90000000
7F40000000
9F10000000
AFFFFFF800
9F10000000
7F30000000
3F70000000
0AE1000012
01CD5114DC
0007CEFD81
ENDCHAR
STARTCHAR uni0405
ENCODING 1029
SWIDTH 600 0
DWIDTH 12 0
BBX 10 13 1 0
BITMAP
003ADFDA40
05F8103AE1
0DC0000010
0FC0000000
0BF8000000
02DFD71000
0016DFF910
000004BFE1
00000007F8
00000001FA
06000002F8
6FC5114CD1
04ADEFD810
ENDCHAR
STARTCHAR uni0406
ENCODING 1030
SWIDTH 600 0
DWIDTH 12 0
BBX 10 13 1 0
BITMAP
1FFFFFFFF1
0000DD0000
0000DD0000
0000DD0000
0000DD0000
0000DD0000
0000DD0000
0000DD0000
0000DD0000
0000DD0000
0000DD0000
0000DD0000
1FFFFFFFF1
ENDCHAR
STARTCHAR uni0407
ENCODING 1031
SWIDTH 600 0
DWIDTH 12 0
BBX 10 16 1 0
BITMAP
00AE11E900
009E11E900
0000000000
1FFFFFFFF1
0000DD0000
0000DD0000
0000DD0000
0000DD0000
0000DD0000
0000DD0000
0000DD0000
0000DD0000
0000DD0000
0000DD0000
0000DD0000
1FFFFFFFF1
ENDCHAR
STARTCHAR uni0408
ENCODING 1032
SWIDTH 600 0
DWIDTH 12 0
BBX 9 13 1 0
BITMAP
04FFFFFFD0
0000000CD0
0000000CD0
0000000CD0
0000000CD0
0000000CD0
0000000CD0
0000000CD0
0000000CD0
0000000DB0
0700002F90
2EB313BE20
03AEFEA200
ENDCHAR
STARTCHAR uni0409
ENCODING 1033
SWIDTH 600 0
DWIDTH 12 0
BBX 13 13 -1 0
BITMAP
000AFFFF200000
000BB06F200000
000BA06F200000
000C906F200000
000D806F200000
000E706F200000
001F606FFDA200
002F406F23BD10
003F306F202F60
005F106F201F70
008D006F203F50
01D8006F23CD10
1EC1006FFD9100
ENDCHAR
STARTCHAR uni040A
ENCODING 1034
SWIDTH 600 0
DWIDTH 12 0
BBX 12 13 0 0
BITMAP
3F400AD00000
3F400AD00000
3F400AD00000
3F400AD00000
3F400AD00000
3F400AD00000
3FFFFFFFDA20
3F400AD03BE1
3F400AD002F5
3F400AD001F6
3F400AD003F5
3F400AD03CC0
3F400AFFD910
ENDCHAR
STARTCHAR uni040B
ENCODING 1035
SWIDTH 600 0
DWIDTH 12 0
BBX 12 13 0 0
BITMAP
EFFFFFFFF500
0008F2000000
0008F2000000
0008F2000000
0008F2000000
0008FDEEC710
0008F4015EB0
0008F20007F3
0008F20005F5
0008F20004F5
0008F20004F5
0008F20004F5
0008F20004F5
ENDCHAR
STARTCHAR uni040C
ENCODING 1036
SWIDTH 600 0
DWIDTH 12 0
BBX 10 17 2 0
BITMAP
00001A5000
0002DC3000
0009800000
0000000000
EB00002BF2
EB0000CA10
EB0006E100
EB000D8000
EB006F1000
EB00D90000
EFFFF50000
EB00CD1000
EB003F9000
EB0008F400
EB0000DD10
EB00003F90
EB000008F4
ENDCHAR
STARTCHAR uni040D
ENCODING 1037
SWIDTH 600 0
DWIDTH 12 0
BBX 10 17 1 0
BITMAP
001B400000
0018F70000
00004C2000
0000000000
7F20000AF7
7F20003FF7
7F2000BDF7
7F2004F6F7
7F200CD2F7
7F205F62F7
7F20DD02F7
7F26F502F7
7F1DC002F7
7F6F4002F7
7FDB0002F7
7FF30002F7
7FA00002F7
ENDCHAR
STARTCHAR uni040E
ENCODING 1038
SWIDTH 600 0
DWIDTH 12 0
BBX 10 17 1 0
BITMAP
00D9007F00
008E32DA00
0019EEA100
0000000000
CE000000CE
6F500003F8
0DC00008F2
07F3000EA0
01EA005F40
008F10BD00
002F72F700
0009D8E100
0002FF9000
0000BF3000
0000CC0000
0106F40000
08FD500000
ENDCHAR
STARTCHAR uni040F
ENCODING 1039
SWIDTH 600 0
DWIDTH 12 0
BBX 10 17 1 -4
BITMAP
8F300003F8
8F300003F8
8F300003F8
8F300003F8
8F300003F8
8F300003F8
8F300003F8
8F300003F8
8F300003F8
8F300003F8
8F300003F8
8F300003F8
8FFFFFFFF8
0000AD0000
0000AC0000
0000AB0000
0000AB0000
ENDCHAR
STARTCHAR uni0410
ENCODING 1040
SWIDTH 600 0
DWIDTH 12 0
BBX 12 13 0 0
BITMAP
00002FF20000
00007EE70000
0000C9AC0000
0002F56F2000
0007F12F7000
000CB00CC000
002F7008F200
007F2003F700
00CFFFFFFC00
03F700007F20
08F200003F80
0DC000000DD0
3F80000008F3
ENDCHAR
STARTCHAR uni0411
ENCODING 1041
SWIDTH 600 0
DWIDTH 12 0
BBX 9 13 2 0
BITMAP
FFFFFFFF10
FA00000000
FA00000000
FA00000000
FA00000000
FA00000000
FFFFEDA300
FA0013AF50
FA00000DC0
FA00000BE0
FA00000EB0
FA0013AF40
FFFFFDA300
ENDCHAR
STARTCHAR uni0412
ENCODING 1042
SWIDTH 600 0
DWIDTH 12 0
BBX 9 13 2 0
BITMAP
FFFFEC6000
FA0027FA00
FA00009F10
FA00007F20
FA0000AE10
FA0028F600
FFFFFF8100
FA0014BE30
FA00000DB0
FA00000BE0
FA00001EB0
FA0014BE30
FFFFED9200
ENDCHAR
STARTCHAR uni0413
ENCODING 1043
SWIDTH 600 0
DWIDTH 12 0
BBX 9 13 2 0
BITMAP
4FFFFFFFB0
4F50000000
4F50000000
4F50000000
4F50000000
4F50000000
4F50000000
4F50000000
4F50000000
4F50000000
4F50000000
4F50000000
4F50000000
ENDCHAR
STARTCHAR uni0414
ENCODING 1044
SWIDTH 600 0
DWIDTH 12 0
BBX 12 17 0 -4
BITMAP
0003FFFFFF10
0006F1008F10
0008E0008F10
000AB0008F10
000D90008F10
000F70008F10
003F50008F10
005F20008F10
008F00008F10
00CB00008F10
01F700008F10
08F200008F10
8FFFFFFFFFF8
8F10000001F8
7F10000001F7
7F10000001F7
6F10000001F6
ENDCHAR
STARTCHAR uni0415
ENCODING 1045
SWIDTH 600 0
DWIDTH 12 0
BBX 9 13 2 0
BITMAP
BFFFFFFF60
BE00000000
BE00000000
BE00000000
BE00000000
BE00000000
BFFFFFF600
BE00000000
BE00000000
BE00000000
BE00000000
BE00000000
BFFFFFFF90
ENDCHAR
STARTCHAR uni0416
ENCODING 1046
SWIDTH 600 0
DWIDTH 12 0
BBX 12 13 0 0
BITMAP
DD300CC004DD
09D00CC00D90
02F30CC03F20
00D80CC08D00
00AC0CC0CA00
006F1CC1F600
004FFFFFF400
00AD0CC0DA00
01F70CC07F10
07F20CC02F70
0DB00CC00BD0
5F600CC006F5
BF100CC001FB
ENDCHAR
STARTCHAR uni0417
ENCODING 1047
SWIDTH 600 0
DWIDTH 12 0
BBX 10 13 1 0
BITMAP
04ADFEB500
0DB3118F60
0100000BE0
00000008F1
0000000BE0
0000129F60
000EFFF910
0000015CE2
00000001F9
00000000EB
15000002F9
7F93115DD1
05ADFEC710
ENDCHAR
STARTCHAR uni0418
ENCODING 1048
SWIDTH 600 0
DWIDTH 12 0
BBX 10 13 1 0
BITMAP
7F20000AF7
7F20003FF7
7F2000BDF7
7F2004F6F7
7F200CD2F7
7F205F62F7
7F20DD02F7
7F26F502F7
7F1DC002F7
7F6F4002F7
7FDB0002F7
7FF30002F7
7FA00002F7
ENDCHAR
STARTCHAR uni0419
ENCODING 1049
SWIDTH 600 0
DWIDTH 12 0
BBX 10 17 1 0
BITMAP
00D9007F00
008E32DA00
0019EEA100
0000000000
7F20000AF7
7F20003FF7
7F2000BDF7
7F2004F6F7
7F200CD2F7
7F205F62F7
7F20DD02F7
7F26F502F7
7F1DC002F7
7F6F4002F7
7FDB0002F7
7FF30002F7
7FA00002F7
ENDCHAR
STARTCHAR uni041A
ENCODING 1050
SWIDTH 600 0
DWIDTH 12 0
BBX 10 13 2 0
BITMAP
EB00002BF2
EB0000CA10
EB0006E100
EB000D8000
EB006F1000
EB00D90000
EFFFF50000
EB00CD1000
EB003F9000
EB0008F400
EB0000DD10
EB00003F90
EB000008F4
ENDCHAR
STARTCHAR uni041B
ENCODING 1051
SWIDTH 600 0
DWIDTH 12 0
BBX 11 13 0 0
BITMAP
0000EFFFFF60
0002F5004F60
0004F3004F60
0007F0004F60
000AD0004F60
000CA0004F60
000F80004F60
003F50004F60
005F20004F60
009E00004F60
00D900004F60
15F400004F60
CE8000004F60
ENDCHAR
STARTCHAR uni041C
ENCODING 1052
SWIDTH 600 0
DWIDTH 12 0
BBX 10 13 1 0
BITMAP
8FA0000AF8
8FE0001EF8
8DF5005FD8
8DCA00ABD8
8E7E01E6E8
8F2F45F1F8
8F0B99A1F8
8F06EE51F8
8F01EE01F8
8F006501F8
8F000001F8
8F000001F8
8F000001F8
ENDCHAR
STARTCHAR uni041D
ENCODING 1053
SWIDTH 600 0
DWIDTH 12 0
BBX 10 13 1 0
BITMAP
6F400004F6
6F400004F6
6F400004F6
6F400004F6
6F400004F6
6F400004F6
6FFFFFFFF6
6F400004F6
6F400004F6
6F400004F6
6F400004F6
6F400004F6
6F400004F6
ENDCHAR
STARTCHAR uni041E
ENCODING 1054
SWIDTH 600 0
DWIDTH 12 0
BBX 10 13 1 0
BITMAP
004BEEB400
06F7118F60
2F900009F2
9F200002F9
DD000000DD
FB000000BF
FA000000BF
FB000000BF
CD000000DC
8F200002F8
2F900009F2
06F8118F60
004BEEB400
ENDCHAR
STARTCHAR uni041F
ENCODING 1055
SWIDTH 600 0
DWIDTH 12 0
BBX 10 13 1 0
BITMAP
6FFFFFFFF6
6F400004F6
6F400004F6
6F400004F6
6F400004F6
6F400004F6
6F400004F6
6F400004F6
6F400004F6
6F400004F6
6F400004F6
6F400004F6
6F400004F6
ENDCHAR
STARTCHAR uni0420
ENCODING 1056
SWIDTH 600 0
DWIDTH 12 0
BBX 9 13 2 0
BITMAP
EFFFED9200
EB0014CE30
EB00002FA0
EB00000DC0
EB00000EC0
EB00003F80
EB0015DD10
EFFFEC7100
EB00000000
EB00000000
EB00000000
EB00000000
EB00000000
ENDCHAR
STARTCHAR uni0421
ENCODING 1057
SWIDTH 600 0
DWIDTH 12 0
BBX 10 13 1 0
BITMAP
0006BEFD82
01BE6115D6
09F3000010
2F90000000
7F40000000
9F10000000
AF00000000
9F10000000
7F40000000
2F90000000
09F3000012
01BE6114DC
0006CEFD81
ENDCHAR
STARTCHAR uni0422
ENCODING 1058
SWIDTH 600 0
DWIDTH 12 0
BBX 12 13 0 0
BITMAP
2FFFFFFFFFF2
00000DD00000
00000DD00000
00000DD00000
00000DD00000
00000DD00000
00000DD00000
00000DD00000
00000DD00000
00000DD00000
00000DD00000
00000DD00000
00000DD00000
ENDCHAR
STARTCHAR uni0423
ENCODING 1059
SWIDTH 600 0
DWIDTH 12 0
BBX 10 13 1 0
BITMAP
CE000000CE
6F500003F8
0DC00008F2
07F3000EA0
01EA005F40
008F10BD00
002F72F700
0009D8E100
0002FF9000
0000BF3000
0000CC0000
0106F40000
08FD500000
ENDCHAR
STARTCHAR uni0424
ENCODING 1060
SWIDTH 600 0
DWIDTH 12 0
BBX 12 13 0 0
BITMAP
00000CC00000
00000CC00000
004AEFFEA400
07F92CC29F70
2F900CC009F2
6F400CC004F6
7F200CC002F7
6F400CC004F6
1FA00CC00AF1
06F93CC39F60
003AEFFEA300
00000CC00000
00000CC00000
ENDCHAR
STARTCHAR uni0425
ENCODING 1061
SWIDTH 600 0
DWIDTH 12 0
BBX 10 13 1 0
BITMAP
5F700006F6
0CE1000DC0
03F8007F30
009F21EA00
001EA7E200
0007FE7000
0003FF2000
000BDEA000
004F57F400
00DC00DD00
07F3005F70
1EA0000CE1
9F200003F9
ENDCHAR
STARTCHAR uni0426
ENCODING 1062
SWIDTH 600 0
DWIDTH 12 0
BBX 11 17 1 -4
BITMAP
6F400004F500
6F400004F500
6F400004F500
6F400004F500
6F400004F500
6F400004F500
6F400004F500
6F400004F500
6F400004F500
6F400004F500
6F400004F500
6F400004F500
6FFFFFFFFFC0
000000000CB0
000000000CB0
000000000CA0
000000000C90
ENDCHAR
STARTCHAR uni0427
ENCODING 1063
SWIDTH 600 0
DWIDTH 12 0
BBX 10 13 1 0
BITMAP
BE000005F5
BE000005F5
BE000005F5
AF000005F5
7F400005F5
1DD51017F5
029DEFEEF5
00000005F5
00000005F5
00000005F5
00000005F5
00000005F5
00000005F5
ENDCHAR
STARTCHAR uni0428
ENCODING 1064
SWIDTH 600 0
DWIDTH 12 0
BBX 12 13 0 0
BITMAP
3F500CC005F3
3F500CC005F3
3F500CC005F3
3F500CC005F3
3F500CC005F3
3F500CC005F3
3F500CC005F3
3F500CC005F3
3F500CC005F3
3F500CC005F3
3F500CC005F3
3F500CC005F3
3FFFFFFFFFF3
ENDCHAR
STARTCHAR uni0429
ENCODING 1065
SWIDTH 600 0
DWIDTH 12 0
BBX 12 17 0 -4
BITMAP
4F401F600E80
4F401F600E80
4F401F600E80
4F401F600E80
4F401F600E80
4F401F600E80
4F401F600E80
4F401F600E80
4F401F600E80
4F401F600E80
4F401F600E80
4F401F600E80
4FFFFFFFFFFD
0000000000AC
0000000000AC
0000000000AB
0000000000AA
ENDCHAR
STARTCHAR uni042A
ENCODING 1066
SWIDTH 600 0
DWIDTH 12 0
BBX 12 13 0 0
BITMAP
9FFFFB000000
0000FB000000
0000FB000000
0000FB000000
0000FB000000
0000FB000000
0000FFFEC710
0000FB015EC0
0000FB0005F5
0000FB0003F6
0000FB0006F4
0000FB015EC0
0000FFFEC710
ENDCHAR
STARTCHAR uni042B
ENCODING 1067
SWIDTH 600 0
DWIDTH 12 0
BBX 10 13 1 0
BITMAP
E90000009E
E90000009E
E90000009E
E90000009E
E90000009E
E90000009E
EFFDA3009E
E913AF309E
E9000E909E
E9000CA09E
E9000E809E
E902AE209E
EFED92009E
ENDCHAR
STARTCHAR uni042C
ENCODING 1068
SWIDTH 600 0
DWIDTH 12 0
BBX 10 13 1 0
BITMAP
1FA0000000
1FA0000000
1FA0000000
1FA0000000
1FA0000000
1FA0000000
1FFFFED930
1FA0013BF5
1FA00000EC
1FA00000CD
1FA00001EB
1FA0014BE3
1FFFFEDA30
ENDCHAR
STARTCHAR uni042D
ENCODING 1069
SWIDTH 600 0
DWIDTH 12 0
BBX 10 13 1 0
BITMAP
17CEFD8100
7E6115DD10
0100002EB0
00000008F3
00000004F7
00000001F9
008FFFFFFA
00000001F9
00000003F7
00000007F3
3100001DA0
CD5114CC10
18CEFC7100
ENDCHAR
STARTCHAR uni042E
ENCODING 1070
SWIDTH 600 0
DWIDTH 12 0
BBX 12 13 0 0
BITMAP
2F8002BFD500
2F800DA17F30
2F805F200DB0
2F809D000AF0
2F80CB0008F2
2F80EA0007F4
2FFFFA0007F4
2F80EA0007F4
2F80DB0008F2
2F80AD000AE0
2F806F200DA0
2F801DA17F30
2F8002BFD400
ENDCHAR
STARTCHAR uni042F
ENCODING 1071
SWIDTH 600 0
DWIDTH 12 0
BBX 10 13 0 0
BITMAP
0029DEFFFF
01DD5100AF
07F40000AF
0AF10000AF
09F10000AF
06F50000AF
00CE5100AF
0018EFFFFF
0003F900AF
001DD100AF
009F3000AF
05F80000AF
2EC00000AF
ENDCHAR
STARTCHAR uni0430
ENCODING 1072
SWIDTH 600 0
DWIDTH 12 0
BBX 10 10 1 0
BITMAP
028CEFD800
0AB4117F80
0000000AF1
00000006F3
00159BDFF4
06EC7425F4
3F900005F4
5F400007F4
2EB203ABF4
03BEEA31F4
ENDCHAR
STARTCHAR uni0431
ENCODING 1073
SWIDTH 600 0
DWIDTH 12 0
BBX 10 14 1 0
BITMAP
00001479C1
0019FEB840
01DC300000
09E1000000
1F80000000
4F57DFD810
6FC6116EA0
7F300007F4
7F200003F8
6F300002F9
3F600003F7
0CC00009F2
03E9216F80
003AEFC600
ENDCHAR
STARTCHAR uni0432
ENCODING 1074
SWIDTH 600 0
DWIDTH 12 0
BBX 9 10 2 0
BITMAP
EFFFFEB400
EB0002AF20
EB00004F50
EB0002BD10
EFFFFFE400
EB00029F40
EB00000EA0
EB00000EB0
EB00029F50
EFFFFEB500
ENDCHAR
STARTCHAR uni0433
ENCODING 1075
SWIDTH 600 0
DWIDTH 12 0
BBX 9 10 2 0
BITMAP
1FFFFFFF70
1F80000000
1F80000000
1F80000000
1F80000000
1F80000000
1F80000000
1F80000000
1F80000000
1F80000000
ENDCHAR
STARTCHAR uni0434
ENCODING 1076
SWIDTH 600 0
DWIDTH 12 0
BBX 12 14 0 -4
BITMAP
000DFFFFFB00
000E7000EB00
001F5000EB00
003F4000EB00
005F2000EB00
006F0000EB00
009D0000EB00
00CA0000EB00
04F40000EB00
2FFFFFFFFFF2
2F60000007F2
1F60000007F1
1F60000007F0
0F60000007F0
ENDCHAR
STARTCHAR uni0435
ENCODING 1077
SWIDTH 600 0
DWIDTH 12 0
BBX 10 10 1 0
BITMAP
002AEFD810
04E9214DC1
1EA00002F7
6F300000DB
9FFFFFFFFB
9F20000000
6F50000000
1ED1000000
04EC4125B1
0029DFEC71
ENDCHAR
STARTCHAR uni0436
ENCODING 1078
SWIDTH 600 0
DWIDTH 12 0
BBX 12 10 0 0
BITMAP
AD300CC003D9
07D00CC00D70
01E40CC04E10
00B90CC09B00
007E0CC0E700
006FFFFFF600
00DA0CC0AD00
07F20CC02F70
1E900CC009E1
9F200CC002F9
ENDCHAR
STARTCHAR uni0437
ENCODING 1079
SWIDTH 600 0
DWIDTH 12 0
BBX 10 10 1 0
BITMAP
16BEFEB600
3D51017F70
0000000EB0
0000027F50
001FFFF800
0000015EB0
00000007F3
00000008F3
8C52026FB0
17CDFEC600
ENDCHAR
STARTCHAR uni0438
ENCODING 1080
SWIDTH 600 0
DWIDTH 12 0
BBX 8 10 2 0
BITMAP
F90000CF
F90007FF
F9002FBF
F900CA8F
F906E28F
F82E609F
F8AB009F
FBF2009F
FF70009F
FC00009F
ENDCHAR
STARTCHAR uni0439
ENCODING 1081
SWIDTH 600 0
DWIDTH 12 0
BBX 8 15 2 0
BITMAP
00000010
0D8001F4
08D319D1
008EFC30
00000000
F90000CF
F90007FF
F9002FBF
F900CA8F
F906E28F
F82E609F
F8AB009F
FBF2009F
FF70009F
FC00009F
ENDCHAR
STARTCHAR uni043A
ENCODING 1082
SWIDTH 600 0
DWIDTH 12 0
BBX 9 10 2 0
BITMAP
CD00003DA0
CD0001D600
CD0007C000
CD000D6000
CD005E1000
CFFFFD0000
CD004F8000
CD0007F500
CD0000BE20
CD00001EC0
ENDCHAR
STARTCHAR uni043B
ENCODING 1083
SWIDTH 600 0
DWIDTH 12 0
BBX 10 10 0 0
BITMAP
000AFFFFFE
000C9000BE
000D8000BE
000F6000BE
002F4000BE
003F3000BE
005F1000BE
008D0000BE
01D80000BE
4FA10000BE
ENDCHAR
STARTCHAR uni043C
ENCODING 1084
SWIDTH 600 0
DWIDTH 12 0
BBX 10 10 1 0
BITMAP
BF700007FB
BFD0000DFB
BCF4004FCB
BBCA009BBB
BC6F11E6CB
BD1E65E1DB
BD09CB90DB
BD03FF40DB
BD00CD00DB
BD000000DB
ENDCHAR
STARTCHAR uni043D
ENCODING 1085
SWIDTH 600 0
DWIDTH 12 0
BBX 10 10 1 0
BITMAP
2F800008F2
2F800008F2
2F800008F2
2F800008F2
2F800008F2
2FFFFFFFF2
2F800008F2
2F800008F2
2F800008F2
2F800008F2
ENDCHAR
STARTCHAR uni043E
ENCODING 1086
SWIDTH 600 0
DWIDTH 12 0
BBX 10 10 1 0
BITMAP
005BEEB500
07F8118F70
3F800008F3
9F200002F9
BF000000FB
BF000000FB
9F200002F9
3F800008F3
08F7117F80
005BEEB500
ENDCHAR
STARTCHAR uni043F
ENCODING 1087
SWIDTH 600 0
DWIDTH 12 0
BBX 10 10 1 0
BITMAP
2FFFFFFFF2
2F800008F2
2F800008F2
2F800008F2
2F800008F2
2F800008F2
2F800008F2
2F800008F2
2F800008F2
2F800008F2
ENDCHAR
STARTCHAR uni0440
ENCODING 1088
SWIDTH 600 0
DWIDTH 12 0
BBX 10 14 1 -4
BITMAP
2F44BEE910
2FCA304EC0
2F900006F6
2F800001FA
2F800000EC
2F800000FB
2F800002F9
2F800008F3
2FE8216F80
2F77DFC600
2F70000000
2F80000000
2F80000000
2F80000000
ENDCHAR
STARTCHAR uni0441
ENCODING 1089
SWIDTH 600 0
DWIDTH 12 0
BBX 10 10 1 0
BITMAP
0017CEFC81
02DE5115D3
0BF2000000
3F90000000
5F50000000
5F50000000
3F80000000
0CE2000000
02DE5114D8
0018DFEC71
ENDCHAR
STARTCHAR uni0442
ENCODING 1090
SWIDTH 600 0
DWIDTH 12 0
BBX 10 10 1 0
BITMAP
AFFFFFFFFA
0000CC0000
0000CC0000
0000CC0000
0000CC0000
0000CC0000
0000CC0000
0000CC0000
0000CC0000
0000CC0000
ENDCHAR
STARTCHAR uni0443
ENCODING 1091
SWIDTH 600 0
DWIDTH 12 0
BBX 10 14 1 -4
BITMAP
CD000000BC
4F400002F6
0CB00008E1
05F3000D90
00C9004F30
005F10AC00
000C71F600
0005D7E100
0000DE9000
00009F3000
0000DB0000
0005F50000
004EA00000
7FD7000000
ENDCHAR
STARTCHAR uni0444
ENCODING 1092
SWIDTH 600 0
DWIDTH 12 0
BBX 12 18 0 -4
BITMAP
00000CC00000
00000CC00000
00000CC00000
00000CC00000
009EACC9EB10
08E34EE42EA0
0E900CC008F1
3F600CC005F3
4F500CC004F5
5F500CC005F5
4F600CC006F3
1F900CC009E0
0AE22DD23E80
01AFCEDCE900
00000CC00000
00000CC00000
00000CC00000
00000CC00000
ENDCHAR
STARTCHAR uni0445
ENCODING 1093
SWIDTH 600 0
DWIDTH 12 0
BBX 10 10 1 0
BITMAP
2EB0000AE2
06F6005F60
00AE21EA00
001DC9E100
0004FF5000
0008FF6000
004F6AE200
01DB01DC00
0AE2003F90
5F600007F5
ENDCHAR
STARTCHAR uni0446
ENCODING 1094
SWIDTH 600 0
DWIDTH 12 0
BBX 11 14 1 -4
BITMAP
2F80000BE000
2F80000BE000
2F80000BE000
2F80000BE000
2F80000BE000
2F80000BE000
2F80000BE000
2F80000BE000
2F80000BE000
2FFFFFFFFF50
000000003F50
000000003F50
000000003F40
000000003F30
ENDCHAR
STARTCHAR uni0447
ENCODING 1095
SWIDTH 600 0
DWIDTH 12 0
BBX 9 10 1 0
BITMAP
4F60000DC0
4F60000DC0
3F60000DC0
2F90000DC0
0AE5102DC0
018DEFDFC0
0000000DC0
0000000DC0
0000000DC0
0000000DC0
ENDCHAR
STARTCHAR uni0448
ENCODING 1096
SWIDTH 600 0
DWIDTH 12 0
BBX 10 10 1 0
BITMAP
DC00CC00CD
DC00CC00CD
DC00CC00CD
DC00CC00CD
DC00CC00CD
DC00CC00CD
DC00CC00CD
DC00CC00CD
DC00CC00CD
DFFFFFFFFD
ENDCHAR
STARTCHAR uni0449
ENCODING 1097
SWIDTH 600 0
DWIDTH 12 0
BBX 11 14 1 -4
BITMAP
DC00DA00EA00
DC00DA00EA00
DC00DA00EA00
DC00DA00EA00
DC00DA00EA00
DC00DA00EA00
DC00DA00EA00
DC00DA00EA00
DC00DA00EA00
DFFFFFFFFFD0
0000000009D0
0000000009C0
0000000009C0
0000000009B0
ENDCHAR
STARTCHAR uni044A
ENCODING 1098
SWIDTH 600 0
DWIDTH 12 0
BBX 11 10 0 0
BITMAP
4FFFFA000000
0000FA000000
0000FA000000
0000FA000000
0000FFFEC700
0000FA015F90
0000FA000AE0
0000FA000AE0
0000FA016F90
0000FFFEC700
ENDCHAR
STARTCHAR uni044B
ENCODING 1099
SWIDTH 600 0
DWIDTH 12 0
BBX 10 10 1 0
BITMAP
9E000000E9
9E000000E9
9E000000E9
9E000000E9
9FFFD700E9
9E015F70E9
9E000BB0E9
9E000BB0E9
9E015F70E9
9FFFD700E9
ENDCHAR
STARTCHAR uni044C
ENCODING 1100
SWIDTH 600 0
DWIDTH 12 0
BBX 9 10 2 0
BITMAP
8F20000000
8F20000000
8F20000000
8F20000000
8FFFFD9200
8F2003DD10
8F20005F50
8F20005F40
8F2003DD10
8FFFFD9200
ENDCHAR
STARTCHAR uni044D
ENCODING 1101
SWIDTH 600 0
DWIDTH 12 0
BBX 10 10 1 0
BITMAP
17CEFD8100
4D5114BE30
0000000CC0
00000006F3
003FFFFFF5
00000004F5
00000007F3
0000001DC0
8C4115DE30
18CEFD9200
ENDCHAR
STARTCHAR uni044E
ENCODING 1102
SWIDTH 600 0
DWIDTH 12 0
BBX 12 10 0 0
BITMAP
2F8002BFD600
2F800C916F60
2F805E000BD0
2F809A0008F2
2F80C90006F4
2FFFF90006F4
2F80CA0008F2
2F809E000BD0
2F802E916F60
2F8003BED700
ENDCHAR
STARTCHAR uni044F
ENCODING 1103
SWIDTH 600 0
DWIDTH 12 0
BBX 9 10 1 0
BITMAP
03BEFFFFF0
2EB2000AF0
6F40000AF0
6F40000AF0
1EC3000AF0
02BFFFFFF0
006F600AF0
02EA000AF0
0CE1000AF0
8F50000AF0
ENDCHAR
STARTCHAR uni0450
ENCODING 1104
SWIDTH 600 0
DWIDTH 12 0
BBX 10 15 1 0
BITMAP
001B300000
002DE20000
0001CD1000
00001B4000
0000000000
002AEFD810
04E9214DC1
1EA00002F7
6F300000DB
9FFFFFFFFB
9F20000000
6F50000000
1ED1000000
04EC4125B1
0029DFEC71
ENDCHAR
STARTCHAR uni0451
ENCODING 1105
SWIDTH 600 0
DWIDTH 12 0
BBX 10 14 1 0
BITMAP
007E409E30
008E409E30
0000000000
0000000000
002AEFD810
04E9214DC1
1EA00002F7
6F300000DB
9FFFFFFFFB
9F20000000
6F50000000
1ED1000000
04EC4125B1
0029DFEC71
ENDCHAR
STARTCHAR uni0452
ENCODING 1106
SWIDTH 600 0
DWIDTH 12 0
BBX 11 18 0 -4
BITMAP
02F800000000
02F800000000
8FFFFFFC0000
02F800000000
02F700000000
02F72AEE9100
02FAB305EB00
02FB00007F40
02F800002F80
02F800000FA0
02F800000EB0
02F800000EB0
02F800000FA0
02F800001F90
000000004F60
000000008F20
00000004F900
000006FE8000
ENDCHAR
STARTCHAR uni0453
ENCODING 1107
SWIDTH 600 0
DWIDTH 12 0
BBX 9 15 2 0
BITMAP
000001B300
00000BE400
0000AE4000
0001C30000
0000000000
1FFFFFFF70
1F80000000
1F80000000
1F80000000
1F80000000
1F80000000
1F80000000
1F80000000
1F80000000
1F80000000
ENDCHAR
STARTCHAR uni0454
ENCODING 1108
SWIDTH 600 0
DWIDTH 12 0
BBX 10 10 1 0
BITMAP
0018CEFD71
02DC4115D4
0CC1000000
3F60000000
5FFFFFF800
5F40000000
3F80000000
0CE1000000
03ED5114C8
0028DFEC81
ENDCHAR
STARTCHAR uni0455
ENCODING 1109
SWIDTH 600 0
DWIDTH 12 0
BBX 10 10 1 0
BITMAP
006CEFD940
08E5114A90
0EB0000000
0BF7100000
02BFFC8300
00026AEFB1
00000009F6
02000003F7
5FA4102BE2
049DEED920
ENDCHAR
STARTCHAR uni0456
ENCODING 1110
SWIDTH 600 0
DWIDTH 12 0
BBX 8 15 1 0
BITMAP
00001DC1
00005FF3
00001DC1
00000000
00000000
3FFFFFE0
00000AE0
00000AE0
00000AE0
00000AE0
00000AE0
00000AE0
00000AE0
00000AE0
00000AE0
ENDCHAR
STARTCHAR uni0457
ENCODING 1111
SWIDTH 600 0
DWIDTH 12 0
BBX 9 14 1 0
BITMAP
000CC01DB0
000CD01DB0
0000000000
0000000000
3FFFFFE000
00000AE000
00000AE000
00000AE000
00000AE000
00000AE000
00000AE000
00000AE000
00000AE000
00000AE000
ENDCHAR
STARTCHAR uni0458
ENCODING 1112
SWIDTH 600 0
DWIDTH 12 0
BBX 8 19 1 -4
BITMAP
00001DC1
00005FF3
00001DC1
00000000
00000000
3FFFFFE0
00000AE0
00000AE0
00000AE0
00000AE0
00000AE0
00000AE0
00000AE0
00000AE0
00000AE0
00000BD0
00000DB0
43118F50
8DEEC500
ENDCHAR
STARTCHAR uni0459
ENCODING 1113
SWIDTH 600 0
DWIDTH 12 0
BBX 13 10 -1 0
BITMAP
000BFFFF300000
000CA06F300000
000D906F300000
000E806F300000
000F706FFD9100
002F506F33DB00
003F406F307F10
006F106F307F10
01CB006F33DB00
1EC2006FFD9100
ENDCHAR
STARTCHAR uni045A
ENCODING 1114
SWIDTH 600 0
DWIDTH 12 0
BBX 10 10 1 0
BITMAP
DC00AE0000
DC00AE0000
DC00AE0000
DC00AE0000
DEAADFFD81
DD88DE04EA
DC00AE008E
DC00AE008E
DC00AE04EA
DC00AFFD81
ENDCHAR
STARTCHAR uni045B
ENCODING 1115
SWIDTH 600 0
DWIDTH 12 0
BBX 11 14 0 0
BITMAP
02F800000000
02F800000000
8FFFFFFC0000
02F800000000
02F700000000
02F72AEEB300
02F9B413DD10
02FB10005F40
02F800003F60
02F800003F70
02F800003F70
02F800003F70
02F800003F70
02F800003F70
ENDCHAR
STARTCHAR uni045C
ENCODING 1116
SWIDTH 600 0
DWIDTH 12 0
BBX 9 15 2 0
BITMAP
0000078000
00005FA000
0004F90000
0008800000
0000000000
CD00003DA0
CD0001D600
CD0007C000
CD000D6000
CD005E1000
CFFFFD0000
CD004F8000
CD0007F500
CD0000BE20
CD00001EC0
ENDCHAR
STARTCHAR uni045D
ENCODING 1117
SWIDTH 600 0
DWIDTH 12 0
BBX 8 15 2 0
BITMAP
01B20000
02DD1000
002DC100
0001B300
00000000
F90000CF
F90007FF
F9002FBF
F900CA8F
F906E28F
F82E609F
F8AB009F
FBF2009F
FF70009F
FC00009F
ENDCHAR
STARTCHAR uni045E
ENCODING 1118
SWIDTH 600 0
DWIDTH 12 0
BBX 10 19 1 -4
BITMAP
0000000100
00F6003F20
00AC21BC00
0019EEB200
0000000000
CD000000BC
4F400002F6
0CB00008E1
05F3000D90
00C9004F30
005F10AC00
000C71F600
0005D7E100
0000DE9000
00009F3000
0000DB0000
0005F50000
004EA00000
7FD7000000
ENDCHAR
STARTCHAR uni045F
ENCODING 1119
SWIDTH 600 0
DWIDTH 12 0
BBX 8 14 2 -4
BITMAP
EB0000BE
EB0000BE
EB0000BE
EB0000BE
EB0000BE
EB0000BE
EB0000BE
EB0000BE
EB0000BE
EFFFFFFE
000CD555
000BC000
000BB000
000BB000
ENDCHAR
STARTCHAR uni0462
ENCODING 1122
SWIDTH 600 0
DWIDTH 12 0
BBX 11 14 0 0
BITMAP
000CD0000000
000CD0000000
000CD0000000
8FFFFFFFF400
000CD0000000
000CD0000000
000CD0000000
000CFFFDB500
000CD0139F70
000CD0000CE0
000CD0000AF0
000CD0000DC0
000CD013AF50
000CFFFDB400
ENDCHAR
STARTCHAR uni0463
ENCODING 1123
SWIDTH 600 0
DWIDTH 12 0
BBX 11 12 0 0
BITMAP
0002F8000000
0002F8000000
3FFFFFFFF300
0002F8000000
0002F8000000
0002F8000000
0002FFFEC600
0002F8017F70
0002F8000CD0
0002F8000CD0
0002F8017F70
0002FFFEC600
ENDCHAR
STARTCHAR uni0472
ENCODING 1138
SWIDTH 600 0
DWIDTH 12 0
BBX 10 13 1 0
BITMAP
005BEEB500
07F8118F70
3F900009F3
9F200002F9
DD000000DD
FB000000BF
FFFFFFFFFF
FA000000AF
CC000000CC
8F100001F8
2F700008F2
06F7117F60
004BEEB400
ENDCHAR
STARTCHAR uni0473
ENCODING 1139
SWIDTH 600 0
DWIDTH 12 0
BBX 10 10 1 0
BITMAP
005CEEC500
08E6116E80
3F600006F3
9E000000E9
BFFFFFFFFB
BD000000DB
9F100001F9
4F800008F4
08F6117F80
005CEEC500
ENDCHAR
STARTCHAR uni0474
ENCODING 1140
SWIDTH 600 0
DWIDTH 12 0
BBX 12 13 0 0
BITMAP
1FA0000006EC
0BE000002F60
06F400008E00
02F90000CA00
00CD0002F600
007F3006F200
002F700AC000
000CC00E8000
0007F13F4000
0003F58E0000
0000DACB0000
00008EF60000
00003FF20000
ENDCHAR
STARTCHAR uni0475
ENCODING 1141
SWIDTH 600 0
DWIDTH 12 0
BBX 11 10 1 0
BITMAP
6F400002CE10
1F90000BA100
0BE0002F4000
05F4006E0000
01E900BA0000
009E01F50000
004F46F10000
000E9AB00000
0008DE700000
0003FF200000
ENDCHAR
STARTCHAR uni0490
ENCODING 1168
SWIDTH 600 0
DWIDTH 12 0
BBX 9 16 2 0
BITMAP
0000000CA0
0000000D90
0000000F90
4FFFFFFF80
4F50000000
4F50000000
4F50000000
4F50000000
4F50000000
4F50000000
4F50000000
4F50000000
4F50000000
4F50000000
4F50000000
4F50000000
ENDCHAR
STARTCHAR uni0491
ENCODING 1169
SWIDTH 600 0
DWIDTH 12 0
BBX 8 13 3 0
BITMAP
000005F1
000006F0
000008F0
CFFFFFE0
CD000000
CD000000
CD000000
CD000000
CD000000
CD000000
CD000000
CD000000
CD000000
ENDCHAR
STARTCHAR uni0492
ENCODING 1170
SWIDTH 600 0
DWIDTH 12 0
BBX 10 13 1 0
BITMAP
03FFFFFFF8
03F7000000
03F7000000
03F7000000
03F7000000
03F7000000
BFFFFFD000
03F7000000
03F7000000
03F7000000
03F7000000
03F7000000
03F7000000
ENDCHAR
STARTCHAR uni0493
ENCODING 1171
SWIDTH 600 0
DWIDTH 12 0
BBX 10 10 1 0
BITMAP
01FFFFFFF7
01F8000000
01F8000000
01F8000000
8FFFFFF000
01F8000000
01F8000000
01F8000000
01F8000000
01F8000000
ENDCHAR
STARTCHAR uni0496
ENCODING 1174
SWIDTH 600 0
DWIDTH 12 0
BBX 13 17 0 -4
BITMAP
DD300CC004DD00
09D00CC00D9000
02F30CC03F2000
00D80CC08D0000
00AC0CC0CA0000
006F1CC1F60000
004FFFFFF40000
00AD0CC0D90000
01F70CC07E1000
07F20CC02F6000
0DB00CC00BC000
5F600CC006F300
BF100CC001FF40
00000000001F40
00000000001F30
00000000001F30
00000000001F20
ENDCHAR
STARTCHAR uni0497
ENCODING 1175
SWIDTH 600 0
DWIDTH 12 0
BBX 13 14 0 -4
BITMAP
AD300CC003D900
07D00CC00D7000
01E40CC04E1000
00B90CC09B0000
007E0CC0E70000
006FFFFFF50000
00DA0CC0AD0000
07F20CC02F6000
1E900CC009D100
9F200CC002FF20
00000000003F20
00000000003F10
00000000003F10
00000000003F00
ENDCHAR
STARTCHAR uni0498
ENCODING 1176
SWIDTH 600 0
DWIDTH 12 0
BBX 10 17 1 -4
BITMAP
04ADFEB500
0DB3118F60
0100000BE0
00000008F1
0000000BE0
0000129F60
000EFFF910
0000015CD2
00000001F9
00000000EB
15000002F9
7F93115DD1
05ADFFD810
0000BD0000
0000BD0000
0000BC0000
0000BB0000
ENDCHAR
STARTCHAR uni0499
ENCODING 1177
SWIDTH 600 0
DWIDTH 12 0
BBX 10 14 1 -4
BITMAP
16BEFEB600
3D51017F70
0000000EB0
0000027F50
001FFFF800
0000015EB0
00000007F3
00000008F2
8C52026FB0
18CEFFC700
0001F80000
0001F70000
0000F70000
0000F60000
ENDCHAR
STARTCHAR uni049A
ENCODING 1178
SWIDTH 600 0
DWIDTH 12 0
BBX 10 17 2 -4
BITMAP
EB00002BF2
EB0000CA10
EB0006E100
EB000D8000
EB006F1000
EB00D90000
EFFFF50000
EB00CD0000
EB003F8000
EB0008F200
EB0000DB00
EB00003F60
EB000008FB
00000000BB
00000000BA
00000000BA
00000000B9
ENDCHAR
STARTCHAR uni049B
ENCODING 1179
SWIDTH 600 0
DWIDTH 12 0
BBX 10 14 2 -4
BITMAP
CD00004DA0
CD0001E500
CD0008C000
CD001E5000
CE66AD0000
CE99CD1000
CD001E9000
CD0005F400
CD0000AD10
CD00001DF7
00000000E7
00000000E6
00000000E5
00000000E5
ENDCHAR
STARTCHAR uni04A0
ENCODING 1184
SWIDTH 600 0
DWIDTH 12 0
BBX 12 13 0 0
BITMAP
9FFFF90004D9
0000E9001E50
0000E9008B00
0000E901E500
0000E906D000
0000E90D7000
0000EFFF4000
0000E90CC000
0000E903F600
0000E900AE10
0000E9002E80
0000E90007F2
0000E90001DB
ENDCHAR
STARTCHAR uni04A1
ENCODING 1185
SWIDTH 600 0
DWIDTH 12 0
BBX 12 10 0 0
BITMAP
5FFFF80009E2
0000E8005D10
0000E800B700
0000E801F300
0000E806D000
0000EFFFB000
0000E804F400
0000E8009D10
0000E8001D90
0000E80004F5
ENDCHAR
STARTCHAR uni04A2
ENCODING 1186
SWIDTH 600 0
DWIDTH 12 0
BBX 11 17 1 -4
BITMAP
6F400004F500
6F400004F500
6F400004F500
6F400004F500
6F400004F500
6F400004F500
6FFFFFFFF500
6F400004F500
6F400004F500
6F400004F500
6F400004F500
6F400004F500
6F400004FFC0
000000000AB0
000000000AB0
000000000AA0
000000000A90
ENDCHAR
STARTCHAR uni04A3
ENCODING 1187
SWIDTH 600 0
DWIDTH 12 0
BBX 11 14 1 -4
BITMAP
2F80000BE000
2F80000BE000
2F80000BE000
2F80000BE000
2F80000BE000
2FFFFFFFE000
2F80000BE000
2F80000BE000
2F80000BE000
2F80000BFF50
000000003F50
000000003F50
000000003F40
000000003F30
ENDCHAR
STARTCHAR uni04AA
ENCODING 1194
SWIDTH 600 0
DWIDTH 12 0
BBX 10 17 1 -4
BITMAP
0006BEFD82
01BE6115D6
09F3000010
2F90000000
7F40000000
9F10000000
AF00000000
AF10000000
7F40000000
2F90000000
0AF3000012
01CE6114DC
0007CFFD92
00000BD000
00000BC000
00000BC000
00000BB000
ENDCHAR
STARTCHAR uni04AB
ENCODING 1195
SWIDTH 600 0
DWIDTH 12 0
BBX 10 14 1 -4
BITMAP
0017CEFC81
02DE5115D3
0BF2000000
3F90000000
5F50000000
6F50000000
3F80000000
0BE2000000
02DE5114D8
0019DFFC81
00000F9000
00000F8000
00000E8000
00000E7000
ENDCHAR
STARTCHAR uni04AE
ENCODING 1198
SWIDTH 600 0
DWIDTH 12 0
BBX 12 13 0 0
BITMAP
1EC000000BE1
07F400003F70
00DC0000BD00
006F5003F600
000DC00BD000
0005F53F5000
0000CCBC0000
00004FF40000
00000DD00000
00000DD00000
00000DD00000
00000DD00000
00000DD00000
ENDCHAR
STARTCHAR uni04AF
ENCODING 1199
SWIDTH 600 0
DWIDTH 12 0
BBX 10 14 1 -4
BITMAP
CD000000CC
5F500003F5
0EB00009E0
08F2001E80
02F8006F20
00AE00CB00
004F53F500
000CA9D000
0006FE7000
0001EF1000
0000CD0000
0000CD0000
0000CD0000
0000CD0000
ENDCHAR
STARTCHAR uni04B0
ENCODING 1200
SWIDTH 600 0
DWIDTH 12 0
BBX 12 13 0 0
BITMAP
1EC000000BE1
08F400003F80
01EC0000BE10
008F5003F800
001EC00BE100
0008F53F8000
0002FCBF2000
00009FF90000
00DFFFFFFD00
00000DD00000
00000DD00000
00000DD00000
00000DD00000
ENDCHAR
STARTCHAR uni04B1
ENCODING 1201
SWIDTH 600 0
DWIDTH 12 0
BBX 10 14 1 -4
BITMAP
CD000000CC
6F500003F6
0EB00009E1
08F2001E90
02F8006F30
00BE00CC00
005F53F600
000DA9E100
0008FE9000
0EFFFFFFF0
0000CD0000
0000CD0000
0000CD0000
0000CD0000
ENDCHAR
STARTCHAR uni04B2
ENCODING 1202
SWIDTH 600 0
DWIDTH 12 0
BBX 11 17 1 -4
BITMAP
5F700006F600
0CE1000DC000
03F8007F3000
009F21EA0000
001EA7E20000
0007FE700000
0003FF200000
000BDE900000
005F57F30000
00DC00DB0000
07F3005F4000
1EA0000CC000
9F200003FF40
000000003F40
000000003F30
000000003F30
000000003F20
ENDCHAR
STARTCHAR uni04B3
ENCODING 1203
SWIDTH 600 0
DWIDTH 12 0
BBX 11 14 1 -4
BITMAP
2EB0000AE200
06F6005F6000
00AE21EA0000
001DC9E10000
0004FF500000
0008FF500000
004F6AE10000
01DB01DA0000
0AE2003F5000
5F600007FF30
000000006F30
000000006F20
000000006F20
000000006F10
ENDCHAR
STARTCHAR uni04B6
ENCODING 1206
SWIDTH 600 0
DWIDTH 12 0
BBX 11 17 1 -4
BITMAP
BE000007F300
BE000007F300
BE000007F300
AF000007F300
7F300007F300
1DD51018F300
029DEFEEF300
00000007F300
00000007F300
00000007F300
00000007F300
00000007F300
00000007FFA0
000000000E90
000000000E90
000000000E80
000000000E70
ENDCHAR
STARTCHAR uni04B7
ENCODING 1207
SWIDTH 600 0
DWIDTH 12 0
BBX 11 14 1 -4
BITMAP
4F60000EA000
4F60000EA000
3F60000EA000
2F80000EA000
0BE5102EA000
018DEFDFA000
0000000EA000
0000000EA000
0000000EA000
0000000EFF10
000000007F10
000000007F10
000000007F00
000000007E00
ENDCHAR
STARTCHAR uni04BA
ENCODING 1210
SWIDTH 600 0
DWIDTH 12 0
BBX 10 13 1 0
BITMAP
3F70000000
3F70000000
3F70000000
3F70000000
3F70000000
3FEEFEC810
3F91015DC0
3F700005F6
3F700001F9
3F700000FA
3F700000FA
3F700000FA
3F700000FA
ENDCHAR
STARTCHAR uni04BB
ENCODING 1211
SWIDTH 600 0
DWIDTH 12 0
BBX 10 14 1 0
BITMAP
2F80000000
2F80000000
2F80000000
2F70000000
2F72AEEB20
2F9C413DD0
2FC10006F4
2F800003F6
2F800003F7
2F800003F7
2F800003F7
2F800003F7
2F800003F7
2F800003F7
ENDCHAR
STARTCHAR uni04C0
ENCODING 1216
SWIDTH 600 0
DWIDTH 12 0
BBX 10 13 1 0
BITMAP
1FFFFFFFF1
0000DD0000
0000DD0000
0000DD0000
0000DD0000
0000DD0000
0000DD0000
0000DD0000
0000DD0000
0000DD0000
0000DD0000
0000DD0000
1FFFFFFFF1
ENDCHAR
STARTCHAR uni04C1
ENCODING 1217
SWIDTH 600 0
DWIDTH 12 0
BBX 12 17 0 0
BITMAP
000E8008E000
0009D22D9000
0001AEEA1000
000000000000
DD300CC004DD
09D00CC00D90
02F30CC03F20
00D80CC08D00
00AC0CC0CA00
006F1CC1F600
004FFFFFF400
00AD0CC0DA00
01F70CC07F10
07F20CC02F70
0DB00CC00BD0
5F600CC006F5
BF100CC001FB
ENDCHAR
STARTCHAR uni04C2
ENCODING 1218
SWIDTH 600 0
DWIDTH 12 0
BBX 12 15 0 0
BITMAP
000100001000
001F5005F100
000BB22CB000
0001AEEA1000
000000000000
AD300CC003D9
07D00CC00D70
01E40CC04E10
00B90CC09B00
007E0CC0E700
006FFFFFF600
00DA0CC0AD00
07F20CC02F70
1E900CC009E1
9F200CC002F9
ENDCHAR
STARTCHAR uni04CF
ENCODING 1231
SWIDTH 600 0
DWIDTH 12 0
BBX 10 14 1 0
BITMAP
8FFFF90000
0001F90000
0001F90000
0001F90000
0001F90000
0001F90000
0001F90000
0001F90000
0001F90000
0001F90000
0001F90000
0000EA0000
00009E4022
000019EFD6
ENDCHAR
STARTCHAR uni04D0
ENCODING 1232
SWIDTH 600 0
DWIDTH 12 0
BBX 12 17 0 0
BITMAP
000E8008E000
0009D22D9000
0001AEEA1000
000000000000
00002FF20000
00007EE70000
0000C9AC0000
0002F56F2000
0007F12F7000
000CB00CC000
002F7008F200
007F2003F700
00CFFFFFFC00
03F700007F20
08F200003F80
0DC000000DD0
3F80000008F3
ENDCHAR
STARTCHAR uni04D1
ENCODING 1233
SWIDTH 600 0
DWIDTH 12 0
BBX 10 15 1 0
BITMAP
0001000100
00AB000E70
005F417F20
0006DFD400
0000000000
028CEFD800
0AB4117F80
0000000AF1
00000006F3
00159BDFF4
06EC7425F4
3F900005F4
5F400007F4
2EB203ABF4
03BEEA31F4
ENDCHAR
STARTCHAR uni04D4
ENCODING 1236
SWIDTH 600 0
DWIDTH 12 0
BBX 12 13 0 0
BITMAP
00000EFFFFFA
00005FDD0000
0000BCAD0000
0002F6AD0000
0008F1AD0000
001EA0AD0000
006F40AFFFC0
00CD00AD0000
03FFFFFD0000
09E100AD0000
1EA000AD0000
6F4000AD0000
CD0000AFFFFC
ENDCHAR
STARTCHAR uni04D5
ENCODING 1237
SWIDTH 600 0
DWIDTH 12 0
BBX 12 10 0 0
BITMAP
18CED408EE70
09317E9A13E5
00000DE1009B
00000BB0007D
005ADFFFFFFE
1BE73AB00000
7F3009D00000
9E0007F30000
6F416BBC2162
09EE9119EEC4
ENDCHAR
STARTCHAR uni04D6
ENCODING 1238
SWIDTH 600 0
DWIDTH 12 0
BBX 9 18 2 0
BITMAP
0010001000
05F200D800
01E916F300
003CFD6000
0000000000
BFFFFFFF60
BE00000000
BE00000000
BE00000000
BE00000000
BE00000000
BFFFFFF600
BE00000000
BE00000000
BE00000000
BE00000000
BE00000000
BFFFFFFF90
ENDCHAR
STARTCHAR uni04D7
ENCODING 1239
SWIDTH 600 0
DWIDTH 12 0
BBX 10 15 1 0
BITMAP
0000000100
00B9000F50
006E418E10
0007EFC300
0000000000
002AEFD810
04E9214DC1
1EA00002F7
6F300000DB
9FFFFFFFFB
9F20000000
6F50000000
1ED1000000
04EC4125B1
0029DFEC71
ENDCHAR
STARTCHAR uni04D8
ENCODING 1240
SWIDTH 600 0
DWIDTH 12 0
BBX 10 13 1 0
BITMAP
017CFEB400
03D5117F60
00000008F2
00000001F8
00000000CC
00000000AE
CFFFFFFFFF
BD000000BE
9F000000DC
5F400002F7
0DA00009E1
04F8118F50
003BEEB400
ENDCHAR
STARTCHAR uni04D9
ENCODING 1241
SWIDTH 600 0
DWIDTH 12 0
BBX 10 10 1 0
BITMAP
05ADFEB400
0973127F70
00000007F3
00000001F8
9FFFFFFFFA
9E000000FA
7F100003F8
2F80000AF3
07F6128F70
005CEEB500
ENDCHAR
STARTCHAR uni04E2
ENCODING 1250
SWIDTH 600 0
DWIDTH 12 0
BBX 10 16 1 0
BITMAP
009FFFFC00
0000000000
0000000000
7F20000AF7
7F20003FF7
7F2000BDF7
7F2004F6F7
7F200CD2F7
7F205F62F7
7F20DD02F7
7F26F502F7
7F1DC002F7
7F6F4002F7
7FDB0002F7
7FF30002F7
7FA00002F7
ENDCHAR
STARTCHAR uni04E3
ENCODING 1251
SWIDTH 600 0
DWIDTH 12 0
BBX 8 13 2 0
BITMAP
07FFFFD0
00000000
00000000
F90000CF
F90007FF
F9002FBF
F900CA8F
F906E28F
F82E609F
F8AB009F
FBF2009F
FF70009F
FC00009F
ENDCHAR
STARTCHAR uni04E6
ENCODING 1254
SWIDTH 600 0
DWIDTH 12 0
BBX 10 16 1 0
BITMAP
00AE11E900
009E11E900
0000000000
004BEEB400
06F7118F60
2F900009F2
9F200002F9
DD000000DD
FB000000BF
FA000000BF
FB000000BF
CD000000DC
8F200002F8
2F900009F2
06F8118F60
004BEEB400
ENDCHAR
STARTCHAR uni04E7
ENCODING 1255
SWIDTH 600 0
DWIDTH 12 0
BBX 10 14 1 0
BITMAP
00CD11DC00
00CD11DC00
0000000000
0000000000
005BEEB500
07F8118F70
3F800008F3
9F200002F9
BF000000FB
BF000000FB
9F200002F9
3F800008F3
08F7117F80
005BEEB500
ENDCHAR
STARTCHAR uni04E8
ENCODING 1256
SWIDTH 600 0
DWIDTH 12 0
BBX 10 13 1 0
BITMAP
005BEEB500
07F8118F70
3F900009F3
9F200002F9
DD000000DD
FB000000BF
FFFFFFFFFF
FA000000AF
CC000000CC
8F100001F8
2F700008F2
06F7117F60
004BEEB400
ENDCHAR
STARTCHAR uni04E9
ENCODING 1257
SWIDTH 600 0
DWIDTH 12 0
BBX 10 10 1 0
BITMAP
005CEEC500
08E6116E80
3F600006F3
9E000000E9
BFFFFFFFFB
BD000000DB
9F100001F9
4F800008F4
08F6117F80
005CEEC500
ENDCHAR
STARTCHAR uni04EE
ENCODING 1262
SWIDTH 600 0
DWIDTH 12 0
BBX 10 16 1 0
BITMAP
009FFFFC00
0000000000
0000000000
CE000000CE
6F500003F8
0DC00008F2
07F3000EA0
01EA005F40
008F10BD00
002F72F700
0009D8E100
0002FF9000
0000BF3000
0000CC0000
0106F40000
08FD500000
ENDCHAR
STARTCHAR uni04EF
ENCODING 1263
SWIDTH 600 0
DWIDTH 12 0
BBX 10 17 1 -4
BITMAP
009FFFFB00
0000000000
0000000000
CD000000BC
4F400002F6
0CB00008E1
05F3000D90
00C9004F30
005F10AC00
000C71F600
0005D7E100
0000DE9000
00009F3000
0000DB0000
0005F50000
004EA00000
7FD7000000
ENDCHAR
STARTCHAR uni04F2
ENCODING 1266
SWIDTH 600 0
DWIDTH 12 0
BBX 10 17 1 0
BITMAP
0000A60880
0006D13E30
001C20B400
0000000000
CE000000CE
6F500003F8
0DC00008F2
07F3000EA0
01EA005F40
008F10BD00
002F72F700
0009D8E100
0002FF9000
0000BF3000
0000CC0000
0106F40000
08FD500000
ENDCHAR
STARTCHAR uni04F3
ENCODING 1267
SWIDTH 600 0
DWIDTH 12 0
BBX 10 19 1 -4
BITMAP
0000780780
0001E61E60
0007C07C00
000B30A400
0000000000
CD000000BC
4F400002F6
0CB00008E1
05F3000D90
00C9004F30
005F10AC00
000C71F600
0005D7E100
0000DE9000
00009F3000
0000DB0000
0005F50000
004EA00000
7FD7000000
ENDCHAR
STARTCHAR a.sups
ENCODING 7491
SWIDTH 600 0
DWIDTH 12 0
BBX 6 6 3 8
BITMAP
29EFC3
2721AB
05ADFE
7D526E
AA12AE
3CFB5B
ENDCHAR
STARTCHAR b.sups
ENCODING 7495
SWIDTH 600 0
DWIDTH 12 0
BBX 7 9 3 8
BITMAP
79000000
8B000000
8B000000
8CAED500
8D416F20
8B000E60
8B000E50
8D218E10
89BEC300
ENDCHAR
STARTCHAR d.sups
ENCODING 7496
SWIDTH 600 0
DWIDTH 12 0
BBX 7 9 2 8
BITMAP
000007A0
000008C0
000008C0
02BECBC0
0DA12BC0
3F2008C0
3F2008C0
0D912CC0
03CEB8A0
ENDCHAR
STARTCHAR e.sups
ENCODING 7497
SWIDTH 600 0
DWIDTH 12 0
BBX 8 6 2 8
BITMAP
018DEA10
09D319B0
1F4001F1
1FFFFFF2
0A820240
018DFD60
ENDCHAR
STARTCHAR g.sups
ENCODING 7501
SWIDTH 600 0
DWIDTH 12 0
BBX 7 9 3 5
BITMAP
1AEFFF90
8C12D400
8C22D500
2EEE9000
89000000
4FFFFC30
C4001B90
E7114E50
4CEEC500
ENDCHAR
STARTCHAR k.sups
ENCODING 7503
SWIDTH 600 0
DWIDTH 12 0
BBX 7 10 3 7
BITMAP
3F100000
3F100000
3F100000
3F104E40
3F14E400
3F5E7000
3FEAD100
3F50BA00
3F102E50
16000350
ENDCHAR
STARTCHAR m.sups
ENCODING 7504
SWIDTH 600 0
DWIDTH 12 0
BBX 10 7 1 7
BITMAP
99BEC2AEB1
9E41DD41D6
9A00A900A8
9A009900A9
9A009900A9
9A009900A9
5500550054
ENDCHAR
STARTCHAR o.sups
ENCODING 7506
SWIDTH 600 0
DWIDTH 12 0
BBX 8 6 2 8
BITMAP
019EE910
0BB22BB0
1F4004F1
1F4004F1
0BB22BB0
019EE910
ENDCHAR
STARTCHAR p.sups
ENCODING 7510
SWIDTH 600 0
DWIDTH 12 0
BBX 7 9 3 5
BITMAP
8AAED500
8D416F20
8B000E60
8B000E50
8D218E10
8CBEC300
8B000000
8B000000
56000000
ENDCHAR
STARTCHAR t.sups
ENCODING 7511
SWIDTH 600 0
DWIDTH 12 0
BBX 7 8 3 8
BITMAP
00F10000
01F10000
BFFFFF00
03F10000
03F10000
03F20000
01F70200
006DFD20
ENDCHAR
STARTCHAR u.sups
ENCODING 7512
SWIDTH 600 0
DWIDTH 12 0
BBX 6 6 3 8
BITMAP
C7006D
C7006D
C7006D
C7006D
AB13CD
3DFB5B
ENDCHAR
STARTCHAR v.sups
ENCODING 7515
SWIDTH 600 0
DWIDTH 12 0
BBX 7 6 2 8
BITMAP
1E4005D0
09A00B70
03F12F20
00C67A00
006CC400
001ED000
ENDCHAR
STARTCHAR c.sups
ENCODING 7580
SWIDTH 600 0
DWIDTH 12 0
BBX 7 6 3 8
BITMAP
02AEE900
1DA21400
5F100000
4F000000
1D911600
02BEE910
ENDCHAR
STARTCHAR f.sups
ENCODING 7584
SWIDTH 600 0
DWIDTH 12 0
BBX 7 10 3 7
BITMAP
0007EFC0
004F3120
007C0000
1FFFFF50
007C0000
007C0000
007C0000
007C0000
007C0000
00350000
ENDCHAR
STARTCHAR z.sups
ENCODING 7611
SWIDTH 600 0
DWIDTH 12 0
BBX 8 6 2 8
BITMAP
09FFFFE0
00005E30
0004E300
004E3000
04E40000
1EFFFFF2
ENDCHAR
STARTCHAR uni1E06
ENCODING 7686
SWIDTH 600 0
DWIDTH 12 0
BBX 9 16 2 -3
BITMAP
FFFFEC6000
FA0027FA00
FA00009F10
FA00007F20
FA0000AE10
FA0028F600
FFFFFF8100
FA0014BE30
FA00000DB0
FA00000BE0
FA00001EB0
FA0014BE30
FFFFED9200
0000000000
0000000000
08FFFFC000
ENDCHAR
STARTCHAR uni1E07
ENCODING 7687
SWIDTH 600 0
DWIDTH 12 0
BBX 10 17 1 -3
BITMAP
2F80000000
2F80000000
2F80000000
2F70000000
2F75CEE910
2FDA304EC0
2F900006F6
2F800001FA
2F800000EC
2F800000FB
2F800002F9
2F800009F3
2FE8217F80
2F47DFC600
0000000000
0000000000
007FFFFD00
ENDCHAR
STARTCHAR uni1E0C
ENCODING 7692
SWIDTH 600 0
DWIDTH 12 0
BBX 11 17 1 -4
BITMAP
4FFFED920000
4F6014BE5000
4F60000BE200
4F600002F900
4F600000DD00
4F600000BF00
4F600000AF10
4F600000BF00
4F600000DC00
4F600003F800
4F60000BE200
4F6014BE4000
4FFFFD920000
000000000000
0002DC000000
0006FF300000
0002DC000000
ENDCHAR
STARTCHAR uni1E0D
ENCODING 7693
SWIDTH 600 0
DWIDTH 12 0
BBX 10 18 1 -4
BITMAP
00000008F2
00000008F2
00000008F2
00000007F2
006CFD77F2
08F8117EF2
3F900008F2
9F200008F2
BF000008F2
CE000008F2
AF100008F2
5F700009F2
0BE5029CF2
018DFC44F2
0000000000
0000CD2000
0003FF5000
0000CD2000
ENDCHAR
STARTCHAR uni1E0E
ENCODING 7694
SWIDTH 600 0
DWIDTH 12 0
BBX 11 16 1 -3
BITMAP
4FFFED920000
4F6014BE5000
4F60000BE200
4F600002F900
4F600000DD00
4F600000BF00
4F600000AF10
4F600000BF00
4F600000DC00
4F600003F800
4F60000BE200
4F6014BE4000
4FFFFD920000
000000000000
000000000000
00BFFFF80000
ENDCHAR
STARTCHAR uni1E0F
ENCODING 7695
SWIDTH 600 0
DWIDTH 12 0
BBX 10 17 1 -3
BITMAP
00000008F2
00000008F2
00000008F2
00000007F2
006CFD77F2
08F8117EF2
3F900008F2
9F200008F2
BF000008F2
CE000008F2
AF100008F2
5F700009F2
0BE5029CF2
018DFC44F2
0000000000
0000000000
009FFFFB00
ENDCHAR
STARTCHAR uni1E10
ENCODING 7696
SWIDTH 600 0
DWIDTH 12 0
BBX 11 18 1 -5
BITMAP
4FFFED920000
4F6014BE5000
4F60000BE200
4F600002F900
4F600000DD00
4F600000BF00
4F600000AF10
4F600000BF00
4F600000DC00
4F600003F800
4F60000BE200
4F6014BE4000
4FFFFD920000
0000D2000000
0005FA000000
00005F400000
00016F200000
001EB4000000
ENDCHAR
STARTCHAR uni1E11
ENCODING 7697
SWIDTH 600 0
DWIDTH 12 0
BBX 10 19 1 -5
BITMAP
00000008F2
00000008F2
00000008F2
00000007F2
006CFD77F2
08F8117EF2
3F900008F2
9F200008F2
BF000008F2
CE000008F2
AF100008F2
5F700009F2
0BE5029CF2
018DFC44F2
0000B40000
0002FC1000
00003E7000
00014E4000
000DC60000
ENDCHAR
STARTCHAR uni1E16
ENCODING 7702
SWIDTH 600 0
DWIDTH 12 0
BBX 9 20 2 0
BITMAP
0000077000
00009E4000
0002B20000
0000000000
01FFFFF500
0000000000
0000000000
BFFFFFFF60
BE00000000
BE00000000
BE00000000
BE00000000
BE00000000
BFFFFFF600
BE00000000
BE00000000
BE00000000
BE00000000
BE00000000
BFFFFFFF90
ENDCHAR
STARTCHAR uni1E17
ENCODING 7703
SWIDTH 600 0
DWIDTH 12 0
BBX 10 17 1 0
BITMAP
000002B200
00004EB100
0000A60000
0000000000
005FFFFF00
0000000000
0000000000
002AEFD810
04E9214DC1
1EA00002F7
6F300000DB
9FFFFFFFFB
9F20000000
6F50000000
1ED1000000
04EC4125B1
0029DFEC71
ENDCHAR
STARTCHAR uni1E20
ENCODING 7712
SWIDTH 600 0
DWIDTH 12 0
BBX 10 16 1 0
BITMAP
001FFFFF40
0000000000
0000000000
0018CEEC70
02DD4116E3
0DD1000010
6F50000000
AF10000000
DD00000000
EC00000000
DD0008FFFA
BF000000DA
6F500000DA
0DD10000DA
03EC4126E9
0018DFEC60
ENDCHAR
STARTCHAR uni1E21
ENCODING 7713
SWIDTH 600 0
DWIDTH 12 0
BBX 11 17 1 -4
BITMAP
008FFFFC0000
000000000000
000000000000
004BEFFFFF40
05F812CE2000
0DB0002F7000
0F90000F8000
0CD0004F4000
02EC67E90000
06D798400000
0E7000000000
0AC200000000
05FEFFFEC600
4F4000019F30
8E0000007F30
3F931138F900
03ADEECA4000
ENDCHAR
STARTCHAR uni1E24
ENCODING 7716
SWIDTH 600 0
DWIDTH 12 0
BBX 10 17 1 -4
BITMAP
6F400004F6
6F400004F6
6F400004F6
6F400004F6
6F400004F6
6F400004F6
6FFFFFFFF6
6F400004F6
6F400004F6
6F400004F6
6F400004F6
6F400004F6
6F400004F6
0000000000
0001DD1000
0004FF4000
0001DD1000
ENDCHAR
STARTCHAR uni1E25
ENCODING 7717
SWIDTH 600 0
DWIDTH 12 0
BBX 10 18 1 -4
BITMAP
2F80000000
2F80000000
2F80000000
2F70000000
2F72AEEB20
2F9C413DD0
2FC10006F4
2F800003F6
2F800003F7
2F800003F7
2F800003F7
2F800003F7
2F800003F7
2F800003F7
0000000000
00009E4000
0000FF8000
00009E4000
ENDCHAR
STARTCHAR uni1E26
ENCODING 7718
SWIDTH 600 0
DWIDTH 12 0
BBX 10 16 1 0
BITMAP
00AE11E900
009E11E900
0000000000
6F400004F6
6F400004F6
6F400004F6
6F400004F6
6F400004F6
6F400004F6
6FFFFFFFF6
6F400004F6
6F400004F6
6F400004F6
6F400004F6
6F400004F6
6F400004F6
ENDCHAR
STARTCHAR uni1E27
ENCODING 7719
SWIDTH 600 0
DWIDTH 12 0
BBX 12 17 -1 0
BITMAP
1E905E400000
1E905E400000
000000000000
002F80000000
002F80000000
002F80000000
002F70000000
002F72AEEB20
002F9C413DD0
002FC10006F4
002F800003F6
002F800003F7
002F800003F7
002F800003F7
002F800003F7
002F800003F7
002F800003F7
ENDCHAR
STARTCHAR uni1E28
ENCODING 7720
SWIDTH 600 0
DWIDTH 12 0
BBX 11 18 0 -5
BITMAP
06F400004F60
06F400004F60
06F400004F60
06F400004F60
06F400004F60
06F400004F60
06FFFFFFFF60
06F400004F60
06F400004F60
06F400004F60
06F400004F60
06F400004F60
06F400004F60
03C000000000
09E700000000
019E00000000
029C00000000
5DA200000000
ENDCHAR
STARTCHAR uni1E29
ENCODING 7721
SWIDTH 600 0
DWIDTH 12 0
BBX 11 19 0 -5
BITMAP
02F800000000
02F800000000
02F800000000
02F700000000
02F72AEEB200
02F9C413DD00
02FC10006F40
02F800003F60
02F800003F70
02F800003F70
02F800003F70
02F800003F70
02F800003F70
02F800003F70
00D200000000
05FA00000000
005F30000000
016F10000000
2EB400000000
ENDCHAR
STARTCHAR uni1E2A
ENCODING 7722
SWIDTH 600 0
DWIDTH 12 0
BBX 10 18 1 -5
BITMAP
6F400004F6
6F400004F6
6F400004F6
6F400004F6
6F400004F6
6F400004F6
6FFFFFFFF6
6F400004F6
6F400004F6
6F400004F6
6F400004F6
6F400004F6
6F400004F6
0000000000
0010000100
01F2002F10
00AB22BA00
0019EE9100
ENDCHAR
STARTCHAR uni1E2B
ENCODING 7723
SWIDTH 600 0
DWIDTH 12 0
BBX 10 19 1 -5
BITMAP
2F80000000
2F80000000
2F80000000
2F70000000
2F72AEEB20
2F9C413DD0
2FC10006F4
2F800003F6
2F800003F7
2F800003F7
2F800003F7
2F800003F7
2F800003F7
2F800003F7
0000000000
0010000100
00B6000C40
006D318D10
0007DEB200
ENDCHAR
STARTCHAR uni1E32
ENCODING 7730
SWIDTH 600 0
DWIDTH 12 0
BBX 11 17 1 -4
BITMAP
1FA00003FA00
1FA0002EC100
1FA001DE2000
1FA00BE30000
1FA09F500000
1FA7FF400000
1FDFADD00000
1FFB05F60000
1FD100CE1000
1FA0004F9000
1FA0000AF300
1FA00002FB00
1FA000008F50
000000000000
00003EA00000
00008FF10000
00003EA00000
ENDCHAR
STARTCHAR uni1E33
ENCODING 7731
SWIDTH 600 0
DWIDTH 12 0
BBX 10 18 2 -4
BITMAP
DC00000000
DC00000000
DC00000000
DC00000000
DC00006F70
DC0005F900
DC005FA000
DC04FB0000
DC4EF50000
DEEBBE2000
DFA01DC000
DD0004F900
DC00007F50
DC00000BE2
0000000000
0004E90000
0009FF0000
0004E90000
ENDCHAR
STARTCHAR uni1E34
ENCODING 7732
SWIDTH 600 0
DWIDTH 12 0
BBX 11 16 1 -3
BITMAP
1FA00003FA00
1FA0002EC100
1FA001DE2000
1FA00BE30000
1FA09F500000
1FA7FF400000
1FDFADD00000
1FFB05F60000
1FD100CE1000
1FA0004F9000
1FA0000AF300
1FA00002FB00
1FA000008F50
000000000000
000000000000
000DFFFF6000
ENDCHAR
STARTCHAR uni1E35
ENCODING 7733
SWIDTH 600 0
DWIDTH 12 0
BBX 10 17 2 -3
BITMAP
DC00000000
DC00000000
DC00000000
DC00000000
DC00006F70
DC0005F900
DC005FA000
DC04FB0000
DC4EF50000
DEEBBE2000
DFA01DC000
DD0004F900
DC00007F50
DC00000BE2
0000000000
0000000000
00EFFFF500
ENDCHAR
STARTCHAR uni1E36
ENCODING 7734
SWIDTH 600 0
DWIDTH 12 0
BBX 9 17 2 -4
BITMAP
5F50000000
5F50000000
5F50000000
5F50000000
5F50000000
5F50000000
5F50000000
5F50000000
5F50000000
5F50000000
5F50000000
5F50000000
5FFFFFFFC0
0000000000
0001DC1000
0004FF4000
0001DC1000
ENDCHAR
STARTCHAR uni1E37
ENCODING 7735
SWIDTH 600 0
DWIDTH 12 0
BBX 10 18 1 -4
BITMAP
8FFFF90000
0001F90000
0001F90000
0001F90000
0001F90000
0001F90000
0001F90000
0001F90000
0001F90000
0001F90000
0001F90000
0000EA0000
00009E4022
000019EFD6
0000000000
000004E900
000009FF00
000004E900
ENDCHAR
STARTCHAR uni1E38
ENCODING 7736
SWIDTH 600 0
DWIDTH 12 0
BBX 10 20 1 -4
BITMAP
DFFFF70000
0000000000
0000000000
05F5000000
05F5000000
05F5000000
05F5000000
05F5000000
05F5000000
05F5000000
05F5000000
05F5000000
05F5000000
05F5000000
05F5000000
05FFFFFFFC
0000000000
00001DC100
00004FF400
00001DC100
ENDCHAR
STARTCHAR uni1E39
ENCODING 7737
SWIDTH 600 0
DWIDTH 12 0
BBX 10 21 1 -4
BITMAP
00FFFFF600
0000000000
0000000000
8FFFF90000
0001F90000
0001F90000
0001F90000
0001F90000
0001F90000
0001F90000
0001F90000
0001F90000
0001F90000
0001F90000
0000EA0000
00009E4022
000019EFD6
0000000000
000004E900
000009FF00
000004E900
ENDCHAR
STARTCHAR uni1E3A
ENCODING 7738
SWIDTH 600 0
DWIDTH 12 0
BBX 9 16 2 -3
BITMAP
5F50000000
5F50000000
5F50000000
5F50000000
5F50000000
5F50000000
5F50000000
5F50000000
5F50000000
5F50000000
5F50000000
5F50000000
5FFFFFFFC0
0000000000
0000000000
00AFFFFA00
ENDCHAR
STARTCHAR uni1E3B
ENCODING 7739
SWIDTH 600 0
DWIDTH 12 0
BBX 10 17 1 -3
BITMAP
8FFFF90000
0001F90000
0001F90000
0001F90000
0001F90000
0001F90000
0001F90000
0001F90000
0001F90000
0001F90000
0001F90000
0000EA0000
00009E4022
000019EFD6
0000000000
0000000000
0000EFFFF5
ENDCHAR
STARTCHAR uni1E3E
ENCODING 7742
SWIDTH 600 0
DWIDTH 12 0
BBX 10 17 1 0
BITMAP
000003C200
00006F9100
0001C40000
0000000000
8FA0000AF8
8FE0001EF8
8DF5005FD8
8DCA00ABD8
8E7E01E6E8
8F2F45F1F8
8F0B99A1F8
8F06EE51F8
8F01EE01F8
8F006501F8
8F000001F8
8F000001F8
8F000001F8
ENDCHAR
STARTCHAR uni1E3F
ENCODING 7743
SWIDTH 600 0
DWIDTH 12 0
BBX 11 15 1 0
BITMAP
000000960000
000007F80000
00005F700000
000096000000
000000000000
D87ED26ED400
DD71DC91CD00
DD009F108F10
DC009E007F20
DC009E007F20
DC009E007F20
DC009E007F20
DC009E007F20
DC009E007F20
DC009E007F20
ENDCHAR
STARTCHAR uni1E40
ENCODING 7744
SWIDTH 600 0
DWIDTH 12 0
BBX 10 16 1 0
BITMAP
0001DD1000
0001DD1000
0000000000
8FA0000AF8
8FE0001EF8
8DF5005FD8
8DCA00ABD8
8E7E01E6E8
8F2F45F1F8
8F0B99A1F8
8F06EE51F8
8F01EE01F8
8F006501F8
8F000001F8
8F000001F8
8F000001F8
ENDCHAR
STARTCHAR uni1E41
ENCODING 7745
SWIDTH 600 0
DWIDTH 12 0
BBX 11 15 1 0
BITMAP
00009E400000
0000FF900000
00009E400000
000000000000
000000000000
D87ED26ED400
DD71DC91CD00
DD009F108F10
DC009E007F20
DC009E007F20
DC009E007F20
DC009E007F20
DC009E007F20
DC009E007F20
DC009E007F20
ENDCHAR
STARTCHAR uni1E42
ENCODING 7746
SWIDTH 600 0
DWIDTH 12 0
BBX 10 17 1 -4
BITMAP
8FA0000AF8
8FE0001EF8
8DF5005FD8
8DCA00ABD8
8E7E01E6E8
8F2F45F1F8
8F0B99A1F8
8F06EE51F8
8F01EE01F8
8F006501F8
8F000001F8
8F000001F8
8F000001F8
0000000000
0001DD1000
0004FF4000
0001DD1000
ENDCHAR
STARTCHAR uni1E43
ENCODING 7747
SWIDTH 600 0
DWIDTH 12 0
BBX 11 14 1 -4
BITMAP
D87ED26ED400
DD71DC91CD00
DD009F108F10
DC009E007F20
DC009E007F20
DC009E007F20
DC009E007F20
DC009E007F20
DC009E007F20
DC009E007F20
000000000000
0000BE200000
0002FF600000
0000BE200000
ENDCHAR
STARTCHAR uni1E44
ENCODING 7748
SWIDTH 600 0
DWIDTH 12 0
BBX 10 16 1 0
BITMAP
0000BE3000
0000BE3000
0000000000
5FB00004F5
5FF40004F5
5FCC0004F5
5F6F4004F5
5F2DC004F5
5F35F504F5
5F30CC03F5
5F405F53F5
5F400CD3F5
5F4004F6F5
5F4000CCF5
5F40004FF5
5F40000BF5
ENDCHAR
STARTCHAR uni1E45
ENCODING 7749
SWIDTH 600 0
DWIDTH 12 0
BBX 10 15 1 0
BITMAP
00008E5000
0000EFA000
00008E5000
0000000000
0000000000
2F42AEEB20
2F8C413DD0
2FC10006F4
2F800003F6
2F800003F7
2F800003F7
2F800003F7
2F800003F7
2F800003F7
2F800003F7
ENDCHAR
STARTCHAR uni1E46
ENCODING 7750
SWIDTH 600 0
DWIDTH 12 0
BBX 10 17 1 -4
BITMAP
5FB00004F5
5FF40004F5
5FCC0004F5
5F6F4004F5
5F2DC004F5
5F35F504F5
5F30CC03F5
5F405F53F5
5F400CD3F5
5F4004F6F5
5F4000CCF5
5F40004FF5
5F40000BF5
0000000000
0001DD1000
0004FF4000
0001DD1000
ENDCHAR
STARTCHAR uni1E47
ENCODING 7751
SWIDTH 600 0
DWIDTH 12 0
BBX 10 14 1 -4
BITMAP
2F42AEEB20
2F8C413DD0
2FC10006F4
2F800003F6
2F800003F7
2F800003F7
2F800003F7
2F800003F7
2F800003F7
2F800003F7
0000000000
0000AE4000
0000FF8000
0000AE4000
ENDCHAR
STARTCHAR uni1E48
ENCODING 7752
SWIDTH 600 0
DWIDTH 12 0
BBX 10 16 1 -3
BITMAP
5FB00004F5
5FF40004F5
5FCC0004F5
5F6F4004F5
5F2DC004F5
5F35F504F5
5F30CC03F5
5F405F53F5
5F400CD3F5
5F4004F6F5
5F4000CCF5
5F40004FF5
5F40000BF5
0000000000
0000000000
00AFFFFA00
ENDCHAR
STARTCHAR uni1E49
ENCODING 7753
SWIDTH 600 0
DWIDTH 12 0
BBX 10 13 1 -3
BITMAP
2F42AEEB20
2F8C413DD0
2FC10006F4
2F800003F6
2F800003F7
2F800003F7
2F800003F7
2F800003F7
2F800003F7
2F800003F7
0000000000
0000000000
006FFFFE00
ENDCHAR
STARTCHAR uni1E52
ENCODING 7762
SWIDTH 600 0
DWIDTH 12 0
BBX 10 20 1 0
BITMAP
000003B000
00004E9000
0000A50000
0000000000
00AFFFFA00
0000000000
0000000000
004BEEB400
06F7118F60
2F900009F2
9F200002F9
DD000000DD
FB000000BF
FA000000BF
FB000000BF
CD000000DC
8F200002F8
2F900009F2
06F8118F60
004BEEB400
ENDCHAR
STARTCHAR uni1E53
ENCODING 7763
SWIDTH 600 0
DWIDTH 12 0
BBX 10 17 1 0
BITMAP
000005A000
00007F8000
0001C30000
0000000000
00AFFFFA00
0000000000
0000000000
005BEEB500
07F8118F70
3F800008F3
9F200002F9
BF000000FB
BF000000FB
9F200002F9
3F800008F3
08F7117F80
005BEEB500
ENDCHAR
STARTCHAR uni1E58
ENCODING 7768
SWIDTH 600 0
DWIDTH 12 0
BBX 9 16 2 0
BITMAP
000CD20000
000CD20000
0000000000
FFFFED9100
FA0015DD10
FA00004F70
FA00001F90
FA00001F90
FA00006F60
FA0016EC00
FFFFFE8100
FA00AF2000
FA002EC000
FA0006F600
FA0000CE20
FA00003FB0
ENDCHAR
STARTCHAR uni1E59
ENCODING 7769
SWIDTH 600 0
DWIDTH 12 0
BBX 9 15 2 0
BITMAP
0002DC0000
0005FF3000
0002DC0000
0000000000
0000000000
1F506CEE80
1F6B820220
1FE4000000
1F90000000
1F80000000
1F80000000
1F80000000
1F80000000
1F80000000
1F80000000
ENDCHAR
STARTCHAR uni1E5A
ENCODING 7770
SWIDTH 600 0
DWIDTH 12 0
BBX 9 17 2 -4
BITMAP
FFFFED9100
FA0015DD10
FA00004F70
FA00001F90
FA00001F90
FA00006F60
FA0016EC00
FFFFFE8100
FA00AF2000
FA002EC000
FA0006F600
FA0000CE20
FA00003FB0
0000000000
0008E50000
000DFA0000
0008E50000
ENDCHAR
STARTCHAR uni1E5B
ENCODING 7771
SWIDTH 600 0
DWIDTH 12 0
BBX 9 14 2 -4
BITMAP
1F506CEE80
1F6B820220
1FE4000000
1F90000000
1F80000000
1F80000000
1F80000000
1F80000000
1F80000000
1F80000000
0000000000
1DC1000000
5FF3000000
1DC1000000
ENDCHAR
STARTCHAR uni1E5C
ENCODING 7772
SWIDTH 600 0
DWIDTH 12 0
BBX 9 20 2 -4
BITMAP
09FFFFC000
0000000000
0000000000
FFFFED9100
FA0015DD10
FA00004F70
FA00001F90
FA00001F90
FA00006F60
FA0016EC00
FFFFFE8100
FA00AF2000
FA002EC000
FA0006F600
FA0000CE20
FA00003FB0
0000000000
0008E50000
000DFA0000
0008E50000
ENDCHAR
STARTCHAR uni1E5D
ENCODING 7773
SWIDTH 600 0
DWIDTH 12 0
BBX 9 17 2 -4
BITMAP
00BFFFF900
0000000000
0000000000
1F506CEE80
1F6B820220
1FE4000000
1F90000000
1F80000000
1F80000000
1F80000000
1F80000000
1F80000000
1F80000000
0000000000
1DC1000000
5FF3000000
1DC1000000
ENDCHAR
STARTCHAR uni1E5E
ENCODING 7774
SWIDTH 600 0
DWIDTH 12 0
BBX 9 16 2 -3
BITMAP
FFFFED9100
FA0015DD10
FA00004F70
FA00001F90
FA00001F90
FA00006F60
FA0016EC00
FFFFFE8100
FA00AF2000
FA002EC000
FA0006F600
FA0000CE20
FA00003FB0
0000000000
0000000000
04FFFFF100
ENDCHAR
STARTCHAR uni1E5F
ENCODING 7775
SWIDTH 600 0
DWIDTH 12 0
BBX 10 13 1 -3
BITMAP
01F506CEE8
01F6B82022
01FE400000
01F9000000
01F8000000
01F8000000
01F8000000
01F8000000
01F8000000
01F8000000
0000000000
0000000000
BFFFF90000
ENDCHAR
STARTCHAR uni1E60
ENCODING 7776
SWIDTH 600 0
DWIDTH 12 0
BBX 10 16 1 0
BITMAP
00009E4000
00009E4000
0000000000
003ADFDA40
05F8103AE1
0DC0000010
0FC0000000
0BF8000000
02DFD71000
0016DFF910
000004BFE1
00000007F8
00000001FA
06000002F8
6FC5114CD1
04ADEFD810
ENDCHAR
STARTCHAR uni1E61
ENCODING 7777
SWIDTH 600 0
DWIDTH 12 0
BBX 10 15 1 0
BITMAP
0001CD1000
0003FF5000
0001CD1000
0000000000
0000000000
006CEFD940
08E5114A90
0EB0000000
0BF7100000
02BFFC8300
00026AEFB1
00000009F6
02000003F7
5FA4102BE2
049DEED920
ENDCHAR
STARTCHAR uni1E62
ENCODING 7778
SWIDTH 600 0
DWIDTH 12 0
BBX 10 17 1 -4
BITMAP
003ADFDA40
05F8103AE1
0DC0000010
0FC0000000
0BF8000000
02DFD71000
0016DFF910
000004BFE1
00000007F8
00000001FA
06000002F8
6FC5114CD1
04ADEFD810
0000000000
0000AE4000
0000FF8000
0000AE4000
ENDCHAR
STARTCHAR uni1E63
ENCODING 7779
SWIDTH 600 0
DWIDTH 12 0
BBX 10 14 1 -4
BITMAP
006CEFD940
08E5114A90
0EB0000000
0BF7100000
02BFFC8300
00026AEFB1
00000009F6
02000003F7
5FA4102BE2
049DEED920
0000000000
0000BE3000
0001FF7000
0000BE3000
ENDCHAR
STARTCHAR uni1E6C
ENCODING 7788
SWIDTH 600 0
DWIDTH 12 0
BBX 12 17 0 -4
BITMAP
2FFFFFFFFFF2
00000DD00000
00000DD00000
00000DD00000
00000DD00000
00000DD00000
00000DD00000
00000DD00000
00000DD00000
00000DD00000
00000DD00000
00000DD00000
00000DD00000
000000000000
00001DD10000
00004FF40000
00001DD10000
ENDCHAR
STARTCHAR uni1E6D
ENCODING 7789
SWIDTH 600 0
DWIDTH 12 0
BBX 10 17 1 -4
BITMAP
0009C00000
000BC00000
000CC00000
9EFFFFFFF8
000DC00000
000DC00000
000DC00000
000DC00000
000DC00000
000CC00000
000AE00000
0003F92024
00005CFED8
0000000000
000005E800
00000AFD00
000005E700
ENDCHAR
STARTCHAR uni1E6E
ENCODING 7790
SWIDTH 600 0
DWIDTH 12 0
BBX 12 16 0 -3
BITMAP
2FFFFFFFFFF2
00000DD00000
00000DD00000
00000DD00000
00000DD00000
00000DD00000
00000DD00000
00000DD00000
00000DD00000
00000DD00000
00000DD00000
00000DD00000
00000DD00000
000000000000
000000000000
000AFFFFA000
ENDCHAR
STARTCHAR uni1E6F
ENCODING 7791
SWIDTH 600 0
DWIDTH 12 0
BBX 10 16 1 -3
BITMAP
0009C00000
000BC00000
000CC00000
9EFFFFFFF8
000DC00000
000DC00000
000DC00000
000DC00000
000DC00000
000CC00000
000AE00000
0003F92024
00005CFED8
0000000000
0000000000
0001FFFFF4
ENDCHAR
STARTCHAR uni1E7E
ENCODING 7806
SWIDTH 600 0
DWIDTH 12 0
BBX 10 17 1 -4
BITMAP
EC000000BE
AF100001FA
5F600005F5
1FB0000AF1
0AF1000EB0
06F5004F60
01FA008F10
00BE00DB00
006F32F600
001F87F200
000BDBC000
0007FF7000
0002FF2000
0000000000
0001CD1000
0003FF5000
0001CD1000
ENDCHAR
STARTCHAR uni1E7F
ENCODING 7807
SWIDTH 600 0
DWIDTH 12 0
BBX 10 14 1 -4
BITMAP
CD000000CC
6F400003F6
0EA00009E1
08F1001E90
02F7006F30
00BD00CC00
005F32F500
000D98E000
0007ED8000
0001FF2000
0000000000
0001DD1000
0004FF4000
0001DD1000
ENDCHAR
STARTCHAR Wgrave
ENCODING 7808
SWIDTH 600 0
DWIDTH 12 0
BBX 12 17 0 0
BITMAP
0002C3000000
00019F600000
000004C10000
000000000000
BF20000001FB
9F40000003F9
6F60000004F6
4F70089006F4
2F901FF308F2
0EB04EE609F0
0CD08CCA0BD0
0AE0C98E0DA0
07F2F55F3E80
05F7F11F7F60
03FCD00CBF40
01FF9009FF10
00DF5005FE00
ENDCHAR
STARTCHAR wgrave
ENCODING 7809
SWIDTH 600 0
DWIDTH 12 0
BBX 12 15 0 0
BITMAP
0003B1000000
0004FB000000
00004EA00000
000003C10000
000000000000
BD00055000CB
8F100EF100F8
5F403EE403F5
2F706CC806F2
0DA0A99B09E0
0AD0D66E0CB0
07F3F33F3E70
04F9E00E8F40
01FEB00BEF10
00CF8007FD00
ENDCHAR
STARTCHAR Wacute
ENCODING 7810
SWIDTH 600 0
DWIDTH 12 0
BBX 12 17 0 0
BITMAP
0000003C2000
000006F91000
00001C400000
000000000000
BF20000001FB
9F40000003F9
6F60000004F6
4F70089006F4
2F901FF308F2
0EB04EE609F0
0CD08CCA0BD0
0AE0C98E0DA0
07F2F55F3E80
05F7F11F7F60
03FCD00CBF40
01FF9009FF10
00DF5005FE00
ENDCHAR
STARTCHAR wacute
ENCODING 7811
SWIDTH 600 0
DWIDTH 12 0
BBX 12 15 0 0
BITMAP
0000001B3000
000000BF4000
00000AE40000
00001C300000
000000000000
BD00055000CB
8F100EF100F8
5F403EE403F5
2F706CC806F2
0DA0A99B09E0
0AD0D66E0CB0
07F3F33F3E70
04F9E00E8F40
01FEB00BEF10
00CF8007FD00
ENDCHAR
STARTCHAR Wdieresis
ENCODING 7812
SWIDTH 600 0
DWIDTH 12 0
BBX 12 16 0 0
BITMAP
000AE11E9000
0009E11E9000
000000000000
BF20000001FB
9F40000003F9
6F60000004F6
4F70089006F4
2F901FF308F2
0EB04EE609F0
0CD08CCA0BD0
0AE0C98E0DA0
07F2F55F3E80
05F7F11F7F60
03FCD00CBF40
01FF9009FF10
00DF5005FE00
ENDCHAR
STARTCHAR wdieresis
ENCODING 7813
SWIDTH 600 0
DWIDTH 12 0
BBX 12 14 0 0
BITMAP
000CD11DC000
000CD11DC000
000000000000
000000000000
BD00055000CB
8F100EF100F8
5F403EE403F5
2F706CC806F2
0DA0A99B09E0
0AD0D66E0CB0
07F3F33F3E70
04F9E00E8F40
01FEB00BEF10
00CF8007FD00
ENDCHAR
STARTCHAR uni1E8E
ENCODING 7822
SWIDTH 600 0
DWIDTH 12 0
BBX 12 16 0 0
BITMAP
00001DD10000
00001DD10000
000000000000
1EC000000BE1
07F400003F70
00DC0000BD00
006F5003F600
000DC00BD000
0005F53F5000
0000CCBC0000
00004FF40000
00000DD00000
00000DD00000
00000DD00000
00000DD00000
00000DD00000
ENDCHAR
STARTCHAR uni1E8F
ENCODING 7823
SWIDTH 600 0
DWIDTH 12 0
BBX 10 19 1 -4
BITMAP
0000CD2000
0003FF5000
0000CD2000
0000000000
0000000000
CD000000BC
4F400002F6
0CB00008E1
05F3000D90
00C9004F30
005F10AC00
000C71F600
0005D7E100
0000DE9000
00009F3000
0000DB0000
0005F50000
004EA00000
7FD7000000
ENDCHAR
STARTCHAR uni1E90
ENCODING 7824
SWIDTH 600 0
DWIDTH 12 0
BBX 10 17 1 0
BITMAP
0001DF9000
000CB3D700
005A002C10
0000000000
1FFFFFFFFA
0000000AE2
0000005F70
000001EC00
000009F300
00004F8000
0001DD0000
0008F40000
003F900000
00CD100000
07F5000000
2FA0000000
AFFFFFFFFC
ENDCHAR
STARTCHAR uni1E91
ENCODING 7825
SWIDTH 600 0
DWIDTH 12 0
BBX 10 15 1 0
BITMAP
0001CFA000
000BB3CA00
0069001A40
0000000000
0000000000
0DFFFFFFF5
0000005FA0
000002ED10
00001DE200
0000AF5000
0007F80000
004FB00000
02ED100000
0CF3000000
7FFFFFFFF9
ENDCHAR
STARTCHAR uni1E92
ENCODING 7826
SWIDTH 600 0
DWIDTH 12 0
BBX 10 17 1 -4
BITMAP
1FFFFFFFFA
0000000AE2
0000005F70
000001EC00
000009F300
00004F8000
0001DD0000
0008F40000
003F900000
00CD100000
07F5000000
2FA0000000
AFFFFFFFFC
0000000000
0000BE3000
0001FF7000
0000BE3000
ENDCHAR
STARTCHAR uni1E93
ENCODING 7827
SWIDTH 600 0
DWIDTH 12 0
BBX 10 14 1 -4
BITMAP
0DFFFFFFF5
0000005FA0
000002ED10
00001DE200
0000AF5000
0007F80000
004FB00000
02ED100000
0CF3000000
7FFFFFFFF9
0000000000
00009E4000
0000FF8000
00009E4000
ENDCHAR
STARTCHAR uni1E94
ENCODING 7828
SWIDTH 600 0
DWIDTH 12 0
BBX 10 16 1 -3
BITMAP
1FFFFFFFFA
0000000AE2
0000005F70
000001EC00
000009F300
00004F8000
0001DD0000
0008F40000
003F900000
00CD100000
07F5000000
2FA0000000
AFFFFFFFFC
0000000000
0000000000
007FFFFD00
ENDCHAR
STARTCHAR uni1E95
ENCODING 7829
SWIDTH 600 0
DWIDTH 12 0
BBX 10 13 1 -3
BITMAP
0DFFFFFFF5
0000005FA0
000002ED10
00001DE200
0000AF5000
0007F80000
004FB00000
02ED100000
0CF3000000
7FFFFFFFF9
0000000000
0000000000
006FFFFE00
ENDCHAR
STARTCHAR uni1E96
ENCODING 7830
SWIDTH 600 0
DWIDTH 12 0
BBX 10 17 1 -3
BITMAP
2F80000000
2F80000000
2F80000000
2F70000000
2F72AEEB20
2F9C413DD0
2FC10006F4
2F800003F6
2F800003F7
2F800003F7
2F800003F7
2F800003F7
2F800003F7
2F800003F7
0000000000
0000000000
006FFFFE00
ENDCHAR
STARTCHAR uni1E97
ENCODING 7831
SWIDTH 600 0
DWIDTH 12 0
BBX 10 17 1 0
BITMAP
08E30AE200
08E30AE200
0000000000
0000000000
0009C00000
000BC00000
000CC00000
9EFFFFFFF8
000DC00000
000DC00000
000DC00000
000DC00000
000DC00000
000CC00000
000AE00000
0003F92024
00005CFED8
ENDCHAR
STARTCHAR uni1E9E
ENCODING 7838
SWIDTH 600 0
DWIDTH 12 0
BBX 11 13 1 0
BITMAP
004BEEC50000
05F8216F6000
1EA00009E100
5F50002EC100
6F4001CE2000
7F400AF30000
7F400CFE7000
7F40003BFA00
7F400000BF30
7F4000006F50
7F4000007F30
7F42C403EC00
7F418DFD9100
ENDCHAR
STARTCHAR uni1EA0
ENCODING 7840
SWIDTH 600 0
DWIDTH 12 0
BBX 12 17 0 -4
BITMAP
00002FF20000
00007EE70000
0000C9AC0000
0002F56F2000
0007F12F7000
000CB00CC000
002F7008F200
007F2003F700
00CFFFFFFC00
03F700007F20
08F200003F80
0DC000000DD0
3F80000008F3
000000000000
00001DD10000
00004FF40000
00001DD10000
ENDCHAR
STARTCHAR uni1EA1
ENCODING 7841
SWIDTH 600 0
DWIDTH 12 0
BBX 10 14 1 -4
BITMAP
028CEFD800
0AB4117F80
0000000AF1
00000006F3
00159BDFF4
06EC7425F4
3F900005F4
5F400007F4
2EB203ABF4
03BEEA31F4
0000000000
0001DD1000
0004FF4000
0001DD1000
ENDCHAR
STARTCHAR uni1EA2
ENCODING 7842
SWIDTH 600 0
DWIDTH 12 0
BBX 12 18 0 0
BITMAP
00004E910000
000002D70000
000002D60000
00000A900000
000000000000
00002FF20000
00007EE70000
0000C9AC0000
0002F56F2000
0007F12F7000
000CB00CC000
002F7008F200
007F2003F700
00CFFFFFFC00
03F700007F20
08F200003F80
0DC000000DD0
3F80000008F3
ENDCHAR
STARTCHAR uni1EA3
ENCODING 7843
SWIDTH 600 0
DWIDTH 12 0
BBX 10 15 1 0
BITMAP
0000DB3000
000019D000
000019D000
00005C3000
0000000000
028CEFD800
0AB4117F80
0000000AF1
00000006F3
00159BDFF4
06EC7425F4
3F900005F4
5F400007F4
2EB203ABF4
03BEEA31F4
ENDCHAR
STARTCHAR uni1EA4
ENCODING 7844
SWIDTH 600 0
DWIDTH 12 0
BBX 12 18 0 0
BITMAP
000000000920
000000008C10
00005EE6B100
0004B22B4000
000000000000
00002FF20000
00007EE70000
0000C9AC0000
0002F56F2000
0007F12F7000
000CB00CC000
002F7008F200
007F2003F700
00CFFFFFFC00
03F700007F20
08F200003F80
0DC000000DD0
3F80000008F3
ENDCHAR
STARTCHAR uni1EA5
ENCODING 7845
SWIDTH 600 0
DWIDTH 12 0
BBX 10 16 1 0
BITMAP
000000004B
00000001D6
0000BF8580
000AD7E700
001B203B00
0000000000
028CEFD800
0AB4117F80
0000000AF1
00000006F3
00159BDFF4
06EC7425F4
3F900005F4
5F400007F4
2EB203ABF4
03BEEA31F4
ENDCHAR
STARTCHAR uni1EA6
ENCODING 7846
SWIDTH 600 0
DWIDTH 12 0
BBX 12 18 0 0
BITMAP
01A100000000
00A900000000
001B6EE50000
0004B22B4000
000000000000
00002FF20000
00007EE70000
0000C9AC0000
0002F56F2000
0007F12F7000
000CB00CC000
002F7008F200
007F2003F700
00CFFFFFFC00
03F700007F20
08F200003F80
0DC000000DD0
3F80000008F3
ENDCHAR
STARTCHAR uni1EA7
ENCODING 7847
SWIDTH 600 0
DWIDTH 12 0
BBX 10 16 1 0
BITMAP
3B10000000
1BA0000000
01B3BF8000
000AD7E700
001B203B00
0000000000
028CEFD800
0AB4117F80
0000000AF1
00000006F3
00159BDFF4
06EC7425F4
3F900005F4
5F400007F4
2EB203ABF4
03BEEA31F4
ENDCHAR
STARTCHAR uni1EA8
ENCODING 7848
SWIDTH 600 0
DWIDTH 12 0
BBX 12 19 0 0
BITMAP
00000005D600
000000004F10
000000004F10
00005EE5B600
0004B22B4000
000000000000
00002FF20000
00007EE70000
0000C9AC0000
0002F56F2000
0007F12F7000
000CB00CC000
002F7008F200
007F2003F700
00CFFFFFFC00
03F700007F20
08F200003F80
0DC000000DD0
3F80000008F3
ENDCHAR
ENDFONT
